0
SECTION
2
HEADER
9
$INSUNITS
70
4
9
$ACADVER
1
AC1014
9
$HANDSEED
5
FFFF
0
ENDSEC
0
SECTION
2
TABLES
0
TABLE
2
VPORT
5
8
100
AcDbSymbolTable
0
ENDTAB
0
TABLE
2
LTYPE
5
5
100
AcDbSymbolTable
0
LTYPE
5
14
100
AcDbSymbolTableRecord
100
AcDbLinetypeTableRecord
2
BYBLOCK
70
0
0
LTYPE
5
15
100
AcDbSymbolTableRecord
100
AcDbLinetypeTableRecord
2
BYLAYER
70
0
0
LTYPE
5
16
100
AcDbSymbolTableRecord
100
AcDbLinetypeTableRecord
2
DASHED
70
0
3
Dashed __ __ __ __ __ __ __ __ __ __ __ __ __ _
72
65
73
2
40
0.75
49
0.5
74
0
49
-0.25
74
0
0
ENDTAB
0
TABLE
2
LAYER
5
2
100
AcDbSymbolTable
70
2
0
LAYER
5
50
100
AcDbSymbolTableRecord
100
AcDbLayerTableRecord
2
0
70
0
62
7
6
CONTINUOUS
0
ENDTAB
0
TABLE
2
STYLE
5
3
100
AcDbSymbolTable
70
1
0
STYLE
5
11
100
AcDbSymbolTableRecord
100
AcDbTextStyleTableRecord
2
STANDARD
70
0
0
ENDTAB
0
TABLE
2
VIEW
5
6
100
AcDbSymbolTable
70
0
0
ENDTAB
0
TABLE
2
UCS
5
7
100
AcDbSymbolTable
70
0
0
ENDTAB
0
TABLE
2
APPID
5
9
100
AcDbSymbolTable
70
2
0
APPID
5
12
100
AcDbSymbolTableRecord
100
AcDbRegAppTableRecord
2
ACAD
70
0
0
ENDTAB
0
TABLE
2
DIMSTYLE
5
A
100
AcDbSymbolTable
70
1
0
ENDTAB
0
TABLE
2
BLOCK_RECORD
5
1
100
AcDbSymbolTable
70
1
0
BLOCK_RECORD
5
1F
100
AcDbSymbolTableRecord
100
AcDbBlockTableRecord
2
*MODEL_SPACE
0
BLOCK_RECORD
5
1B
100
AcDbSymbolTableRecord
100
AcDbBlockTableRecord
2
*PAPER_SPACE
0
ENDTAB
0
ENDSEC
0
SECTION
2
BLOCKS
0
BLOCK
5
20
100
AcDbEntity
100
AcDbBlockBegin
2
*MODEL_SPACE
0
ENDBLK
5
21
100
AcDbEntity
100
AcDbBlockEnd
0
BLOCK
5
1C
100
AcDbEntity
100
AcDbBlockBegin
2
*PAPER_SPACE
0
ENDBLK
5
1D
100
AcDbEntity
100
AcDbBlockEnd
0
ENDSEC
0
SECTION
2
ENTITIES
0
POINT
5
100
100
AcDbEntity
8
0
100
AcDbPoint
10
23.225383200709821
20
-48.81185068478068
30
0
0
POINT
5
101
100
AcDbEntity
8
0
100
AcDbPoint
10
-24.774616799290186
20
-48.81185068478068
30
0
0
POINT
5
102
100
AcDbEntity
8
0
100
AcDbPoint
10
23.225383200709821
20
37.188149315219327
30
0
0
POINT
5
103
100
AcDbEntity
8
0
100
AcDbPoint
10
-6.8746167992901857
20
-31.717876800774828
30
0
0
LWPOLYLINE
5
104
100
AcDbEntity
8
0
100
AcDbPolyline
90
4
70
1
43
0.0
10
5.3253832007098145
20
-37.11787680077483
10
5.3253832007098145
20
-26.31787680077483
42
0.99999999999999989
10
-6.8746167992901857
20
-26.31787680077483
10
-6.8746167992901857
20
-37.11787680077483
42
0.99999999999999989
0
LINE
5
105
100
AcDbEntity
8
0
100
AcDbLine
10
-0.77461679929018556
20
-43.217876800774832
30
0
11
-0.77461679929018556
21
-20.217876800774832
31
0
6
DASHED
0
LWPOLYLINE
5
106
100
AcDbEntity
8
0
100
AcDbPolyline
90
8
70
1
43
0.0
10
4.1753832007098213
20
-48.81185068478068
10
-5.7246167992901835
20
-48.811850684780673
42
-0.41421356237309537
10
-24.774616799290186
20
-29.761850684780672
10
-24.774616799290186
20
18.13814931521933
42
-0.4142135623730957
10
-5.7246167992901933
20
37.188149315219327
10
4.1753832007098186
20
37.188149315219327
42
-0.41421356237309542
10
23.225383200709821
20
18.138149315219319
10
23.225383200709821
20
-29.76185068478069
42
-0.41421356237309515
0
LWPOLYLINE
5
107
100
AcDbEntity
8
0
100
AcDbPolyline
90
8
70
1
43
0.0
10
4.8753832007098179
20
-46.392876800774829
10
-6.4246167992901864
20
-46.392876800774836
42
-0.41421356237309503
10
-12.774616799290188
20
-40.042876800774827
10
-12.774616799290186
20
-23.392876800774832
42
-0.41421356237309503
10
-6.4246167992901846
20
-17.042876800774831
10
4.8753832007098126
20
-17.042876800774831
42
-0.41421356237309503
10
11.225383200709816
20
-23.392876800774832
10
11.225383200709816
20
-40.042876800774827
42
-0.41421356237309503
0
LWPOLYLINE
5
108
100
AcDbEntity
8
0
100
AcDbPolyline
90
8
70
1
43
0.0
10
10.225383200709814
20
-23.392876800774832
10
10.225383200709819
20
-40.042876800774827
42
-0.41421356237309503
10
4.8753832007098179
20
-45.392876800774829
10
-6.4246167992901864
20
-45.392876800774829
42
-0.41421356237309503
10
-11.774616799290188
20
-40.042876800774827
10
-11.774616799290186
20
-23.392876800774832
42
-0.41421356237309503
10
-6.4246167992901846
20
-18.042876800774831
10
4.8753832007098126
20
-18.042876800774831
42
-0.41421356237309503
0
LWPOLYLINE
5
109
100
AcDbEntity
8
0
100
AcDbPolyline
90
8
70
1
43
0.0
10
9.2253832007098122
20
-23.392876800774832
10
9.2253832007098229
20
-40.042876800774827
42
-0.41421356237309503
10
4.8753832007098179
20
-44.392876800774836
10
-6.4246167992901864
20
-44.392876800774829
42
-0.41421356237309503
10
-10.774616799290186
20
-40.042876800774827
10
-10.774616799290184
20
-23.392876800774832
42
-0.41421356237309503
10
-6.4246167992901846
20
-19.042876800774835
10
4.8753832007098126
20
-19.042876800774835
42
-0.41421356237309503
0
LWPOLYLINE
5
110
100
AcDbEntity
8
0
100
AcDbPolyline
90
4
70
1
43
0.0
10
-43.024616799290179
20
65.796365165217566
10
41.475383200709828
20
65.796365165217566
10
41.475383200709814
20
-67.703634834782449
10
-43.024616799290179
20
-67.703634834782449
0
LWPOLYLINE
5
111
100
AcDbEntity
8
0
100
AcDbPolyline
90
4
70
1
43
0.0
10
-38.774616799290193
20
61.09636516521757
10
37.225383200709807
20
61.09636516521757
10
37.225383200709807
20
-62.403634834782444
10
-38.774616799290193
20
-62.403634834782444
0
LINE
5
112
100
AcDbEntity
8
0
100
AcDbLine
10
-0.77461679929018556
20
-67.703634834782449
30
0
11
-0.77461679929019467
21
65.796365165217566
31
0
6
DASHED
0
LWPOLYLINE
5
113
100
AcDbEntity
8
0
100
AcDbPolyline
90
4
70
1
43
0.0
10
24.225383200709807
20
-64.903634834782451
10
19.225383200709807
20
-64.903634834782451
10
19.225383200709807
20
-62.403634834782444
10
24.225383200709807
20
-62.403634834782444
0
LWPOLYLINE
5
114
100
AcDbEntity
8
0
100
AcDbPolyline
90
4
70
1
43
0.0
10
-20.774616799290179
20
-62.403634834782444
10
-25.774616799290175
20
-62.403634834782444
10
-25.774616799290175
20
-64.903634834782451
10
-20.774616799290179
20
-64.903634834782451
0
LWPOLYLINE
5
115
100
AcDbEntity
8
0
100
AcDbPolyline
90
4
70
1
43
0.0
10
66.475383200709814
20
-92.703634834782463
10
-68.024616799290186
20
-92.703634834782463
10
-68.024616799290186
20
90.796365165217566
10
66.475383200709814
20
90.796365165217566
0
CIRCLE
5
116
100
AcDbEntity
8
0
100
AcDbCircle
10
-55.524616799290179
20
-55.203634834782456
30
0
40
2.0000000000000022
210
0
220
0
230
1
0
CIRCLE
5
117
100
AcDbEntity
8
0
100
AcDbCircle
10
-55.524616799290179
20
53.296365165217559
30
0
40
2.0000000000000022
210
0
220
0
230
1
0
CIRCLE
5
118
100
AcDbEntity
8
0
100
AcDbCircle
10
53.975383200709814
20
-55.203634834782449
30
0
40
2.0000000000000022
210
0
220
0
230
1
0
CIRCLE
5
119
100
AcDbEntity
8
0
100
AcDbCircle
10
53.975383200709793
20
53.296365165217566
30
0
40
2.0000000000000022
210
0
220
0
230
1
0
CIRCLE
5
120
100
AcDbEntity
8
0
100
AcDbCircle
10
-50.774616799290186
20
-31.717876800774832
30
0
40
1.595
210
0
220
0
230
1
0
CIRCLE
5
121
100
AcDbEntity
8
0
100
AcDbCircle
10
49.2253832007098
20
-31.717876800774825
30
0
40
1.595
210
0
220
0
230
1
0
LINE
5
122
100
AcDbEntity
8
0
100
AcDbLine
10
-50.774616799290186
20
-31.717876800774832
30
0
11
-0.77461679929018556
21
-31.717876800774828
31
0
0
LINE
5
123
100
AcDbEntity
8
0
100
AcDbLine
10
-68.024616799290186
20
-62.403634834782444
30
0
11
66.475383200709814
21
-62.403634834782444
31
0
6
DASHED
0
LINE
5
124
100
AcDbEntity
8
0
100
AcDbLine
10
66.475383200709814
20
-62.403634834782444
30
0
11
66.475383200709814
21
-92.703634834782463
31
0
6
DASHED
0
LINE
5
125
100
AcDbEntity
8
0
100
AcDbLine
10
66.475383200709814
20
-92.703634834782463
30
0
11
-68.024616799290186
21
-92.703634834782463
31
0
6
DASHED
0
LINE
5
126
100
AcDbEntity
8
0
100
AcDbLine
10
-68.024616799290186
20
-92.703634834782463
30
0
11
-68.024616799290186
21
-62.403634834782444
31
0
6
DASHED
0
LINE
5
127
100
AcDbEntity
8
0
100
AcDbLine
10
-62.786212674314982
20
84.796364926798987
30
0
11
-62.786212674314982
21
71.796365403636145
31
0
0
LINE
5
128
100
AcDbEntity
8
0
100
AcDbLine
10
-62.786212674314982
20
71.796365403636145
30
0
11
-58.308040014441019
21
71.796365403636145
31
0
0
SPLINE
5
129
100
AcDbEntity
8
0
100
AcDbSpline
70
0
71
2
72
6
73
3
74
0
42
0.000000001
43
0.0000000001
44
0.0000000001
40
0
40
0
40
0
40
1
40
1
40
1
10
-58.308040014441019
20
71.796365403636145
30
0
10
-56.791669241125589
20
71.796365403636145
30
0
10
-55.993579736883646
20
71.982585811122107
30
0
0
SPLINE
5
130
100
AcDbEntity
8
0
100
AcDbSpline
70
0
71
2
72
6
73
3
74
0
42
0.000000001
43
0.0000000001
44
0.0000000001
40
0
40
0
40
0
40
1
40
1
40
1
10
-55.993579736883646
20
71.982585811122107
30
0
10
-54.876253715689188
20
72.239748858912634
30
0
10
-54.087030998404032
20
72.913691424830603
30
0
0
SPLINE
5
131
100
AcDbEntity
8
0
100
AcDbSpline
70
0
71
2
72
6
73
3
74
0
42
0.000000001
43
0.0000000001
44
0.0000000001
40
0
40
0
40
0
40
1
40
1
40
1
10
-54.087030998404032
20
72.913691424830603
30
0
10
-53.058381191427713
20
73.782722377284216
30
0
10
-52.548490873510843
20
75.135040902598547
30
0
0
SPLINE
5
132
100
AcDbEntity
8
0
100
AcDbSpline
70
0
71
2
72
6
73
3
74
0
42
0.000000001
43
0.0000000001
44
0.0000000001
40
0
40
0
40
0
40
1
40
1
40
1
10
-52.548490873510843
20
75.135040902598547
30
0
10
-52.038599363501078
20
76.487360620005774
30
0
10
-52.038599363501078
20
78.225423717005896
30
0
0
SPLINE
5
133
100
AcDbEntity
8
0
100
AcDbSpline
70
0
71
2
72
6
73
3
74
0
42
0.000000001
43
0.0000000001
44
0.0000000001
40
0
40
0
40
0
40
1
40
1
40
1
10
-52.038599363501078
20
78.225423717005896
30
0
10
-52.038599363501078
20
79.70632376621549
30
0
10
-52.384438625509745
20
80.850253724558996
30
0
0
SPLINE
5
134
100
AcDbEntity
8
0
100
AcDbSpline
70
0
71
2
72
6
73
3
74
0
42
0.000000001
43
0.0000000001
44
0.0000000001
40
0
40
0
40
0
40
1
40
1
40
1
10
-52.384438625509745
20
80.850253724558996
30
0
10
-52.730277887518412
20
81.994182490809607
30
0
10
-53.271205536062723
20
82.743499898417639
30
0
0
SPLINE
5
135
100
AcDbEntity
8
0
100
AcDbSpline
70
0
71
2
72
6
73
3
74
0
42
0.000000001
43
0.0000000001
44
0.0000000001
40
0
40
0
40
0
40
1
40
1
40
1
10
-53.271205536062723
20
82.743499898417639
30
0
10
-53.812133184607035
20
83.492818498118567
30
0
10
-54.455039611990458
20
83.922899388774084
30
0
0
SPLINE
5
136
100
AcDbEntity
8
0
100
AcDbSpline
70
0
71
2
72
6
73
3
74
0
42
0.000000001
43
0.0000000001
44
0.0000000001
40
0
40
0
40
0
40
1
40
1
40
1
10
-54.455039611990458
20
83.922899388774084
30
0
10
-55.09794603937388
20
84.352982663615393
30
0
10
-56.006881109411722
20
84.57467379520719
30
0
0
SPLINE
5
137
100
AcDbEntity
8
0
100
AcDbSpline
70
0
71
2
72
6
73
3
74
0
42
0.000000001
43
0.0000000001
44
0.0000000001
40
0
40
0
40
0
40
1
40
1
40
1
10
-56.006881109411722
20
84.57467379520719
30
0
10
-56.91581737154246
20
84.796364926798987
30
0
10
-58.095216861898905
20
84.796364926798987
30
0
0
LINE
5
138
100
AcDbEntity
8
0
100
AcDbLine
10
-58.095216861898919
20
84.796364926798987
30
0
11
-62.786212674314982
21
84.796364926798987
31
0
0
LINE
5
139
100
AcDbEntity
8
0
100
AcDbLine
10
-61.065884939367777
20
83.262258195384192
30
0
11
-58.290305248434549
21
83.262258195384192
31
0
0
SPLINE
5
140
100
AcDbEntity
8
0
100
AcDbSpline
70
0
71
2
72
6
73
3
74
0
42
0.000000001
43
0.0000000001
44
0.0000000001
40
0
40
0
40
0
40
1
40
1
40
1
10
-58.290305248434549
20
83.262258195384192
30
0
10
-57.004493585760599
20
83.262258195384192
30
0
10
-56.272910944159037
20
83.022831105693029
30
0
0
SPLINE
5
141
100
AcDbEntity
8
0
100
AcDbSpline
70
0
71
2
72
6
73
3
74
0
42
0.000000001
43
0.0000000001
44
0.0000000001
40
0
40
0
40
0
40
1
40
1
40
1
10
-56.272910944159037
20
83.022831105693029
30
0
10
-55.541328302557474
20
82.783404016001867
30
0
10
-55.106812826330668
20
82.348888539775061
30
0
0
SPLINE
5
142
100
AcDbEntity
8
0
100
AcDbSpline
70
0
71
2
72
6
73
3
74
0
42
0.000000001
43
0.0000000001
44
0.0000000001
40
0
40
0
40
0
40
1
40
1
40
1
10
-55.106812826330668
20
82.348888539775061
30
0
10
-54.494943729574686
20
81.737019443019079
30
0
10
-54.153539053137308
20
80.703936242564367
30
0
0
SPLINE
5
143
100
AcDbEntity
8
0
100
AcDbSpline
70
0
71
2
72
6
73
3
74
0
42
0.000000001
43
0.0000000001
44
0.0000000001
40
0
40
0
40
0
40
1
40
1
40
1
10
-54.153539053137308
20
80.703936242564367
30
0
10
-53.812133184607035
20
79.670854234202551
30
0
10
-53.812133184607035
20
78.198819779856848
30
0
0
SPLINE
5
144
100
AcDbEntity
8
0
100
AcDbSpline
70
0
71
2
72
6
73
3
74
0
42
0.000000001
43
0.0000000001
44
0.0000000001
40
0
40
0
40
0
40
1
40
1
40
1
10
-53.812133184607035
20
78.198819779856848
30
0
10
-53.812133184607035
20
76.159257316096472
30
0
10
-54.48164235704661
20
75.064099454386877
30
0
0
SPLINE
5
145
100
AcDbEntity
8
0
100
AcDbSpline
70
0
71
2
72
6
73
3
74
0
42
0.000000001
43
0.0000000001
44
0.0000000001
40
0
40
0
40
0
40
1
40
1
40
1
10
-54.48164235704661
20
75.064099454386877
30
0
10
-55.151151529486185
20
73.968943976863073
30
0
10
-56.108859888250834
20
73.596501969798254
30
0
0
SPLINE
5
146
100
AcDbEntity
8
0
100
AcDbSpline
70
0
71
2
72
6
73
3
74
0
42
0.000000001
43
0.0000000001
44
0.0000000001
40
0
40
0
40
0
40
1
40
1
40
1
10
-56.108859888250834
20
73.596501969798254
30
0
10
-56.800537220175272
20
73.330470942958044
30
0
10
-58.334643951590067
20
73.330470942958044
30
0
0
LINE
5
147
100
AcDbEntity
8
0
100
AcDbLine
10
-58.334643951590067
20
73.330470942958044
30
0
11
-61.065884939367777
21
73.330470942958044
31
0
0
LINE
5
148
100
AcDbEntity
8
0
100
AcDbLine
10
-61.065884939367777
20
73.330470942958044
30
0
11
-61.065884939367777
21
83.262258195384192
31
0
0
LWPOLYLINE
5
149
100
AcDbEntity
8
0
100
AcDbPolyline
90
4
70
1
43
0.0
10
-49.866021982367045
20
73.631972693904089
10
-49.866021982367045
20
71.796365403636145
10
-48.269840589697367
20
71.796365403636145
10
-48.269840589697367
20
73.631972693904089
0
LWPOLYLINE
5
150
100
AcDbEntity
8
0
100
AcDbPolyline
90
4
70
1
43
0.0
10
-49.866021982367045
20
84.796364926798987
10
-49.866021982367045
20
75.378902577860998
10
-48.269840589697367
20
75.378902577860998
10
-48.269840589697367
20
84.796364926798987
0
LINE
5
151
100
AcDbEntity
8
0
100
AcDbLine
10
-46.132732740576273
20
85.576720857127356
30
0
11
-44.580890051062113
21
85.80727877567594
31
0
0
SPLINE
5
152
100
AcDbEntity
8
0
100
AcDbSpline
70
0
71
2
72
6
73
3
74
0
42
0.000000001
43
0.0000000001
44
0.0000000001
40
0
40
0
40
0
40
1
40
1
40
1
10
-44.580890051062113
20
85.80727877567594
30
0
10
-44.483348241980082
20
86.525560044749426
30
0
10
-44.039963594610697
20
86.853664540751623
30
0
0
SPLINE
5
153
100
AcDbEntity
8
0
100
AcDbSpline
70
0
71
2
72
6
73
3
74
0
42
0.000000001
43
0.0000000001
44
0.0000000001
40
0
40
0
40
0
40
1
40
1
40
1
10
-44.039963594610697
20
86.853664540751623
30
0
10
-43.445829263861185
20
87.297046803935217
30
0
10
-42.417179456884867
20
87.297046803935217
30
0
0
SPLINE
5
154
100
AcDbEntity
8
0
100
AcDbSpline
70
0
71
2
72
6
73
3
74
0
42
0.000000001
43
0.0000000001
44
0.0000000001
40
0
40
0
40
0
40
1
40
1
40
1
10
-42.417179456884867
20
87.297046803935217
30
0
10
-41.308723798925882
20
87.297046803935217
30
0
10
-40.705720297033793
20
86.853664540751623
30
0
0
SPLINE
5
155
100
AcDbEntity
8
0
100
AcDbSpline
70
0
71
2
72
6
73
3
74
0
42
0.000000001
43
0.0000000001
44
0.0000000001
40
0
40
0
40
0
40
1
40
1
40
1
10
-40.705720297033793
20
86.853664540751623
30
0
10
-40.102719179327494
20
86.410279893382238
30
0
10
-39.889894834692484
20
85.612190389140295
30
0
0
SPLINE
5
156
100
AcDbEntity
8
0
100
AcDbSpline
70
0
71
2
72
6
73
3
74
0
42
0.000000001
43
0.0000000001
44
0.0000000001
40
0
40
0
40
0
40
1
40
1
40
1
10
-39.889894834692484
20
85.612190389140295
30
0
10
-39.765747896368509
20
85.124469422801184
30
0
10
-39.774614683325296
20
83.563759946330237
30
0
0
SPLINE
5
157
100
AcDbEntity
8
0
100
AcDbSpline
70
0
71
2
72
6
73
3
74
0
42
0.000000001
43
0.0000000001
44
0.0000000001
40
0
40
0
40
0
40
1
40
1
40
1
10
-39.774614683325296
20
83.563759946330237
30
0
10
-40.82100044840098
20
84.796364926798987
30
0
10
-42.381709924871927
20
84.796364926798987
30
0
0
SPLINE
5
158
100
AcDbEntity
8
0
100
AcDbSpline
70
0
71
2
72
6
73
3
74
0
42
0.000000001
43
0.0000000001
44
0.0000000001
40
0
40
0
40
0
40
1
40
1
40
1
10
-42.381709924871927
20
84.796364926798987
30
0
10
-44.323729387457377
20
84.796364926798987
30
0
10
-45.387848726446634
20
83.395274304850744
30
0
0
SPLINE
5
159
100
AcDbEntity
8
0
100
AcDbSpline
70
0
71
2
72
6
73
3
74
0
42
0.000000001
43
0.0000000001
44
0.0000000001
40
0
40
0
40
0
40
1
40
1
40
1
10
-45.387848726446634
20
83.395274304850744
30
0
10
-46.451970449621683
20
81.994182490809607
30
0
10
-46.451970449621683
20
80.034428262217688
30
0
0
SPLINE
5
160
100
AcDbEntity
8
0
100
AcDbSpline
70
0
71
2
72
6
73
3
74
0
42
0.000000001
43
0.0000000001
44
0.0000000001
40
0
40
0
40
0
40
1
40
1
40
1
10
-46.451970449621683
20
80.034428262217688
30
0
10
-46.451970449621683
20
78.686541938288855
30
0
10
-45.964247099096781
20
77.547046565516638
30
0
0
SPLINE
5
161
100
AcDbEntity
8
0
100
AcDbSpline
70
0
71
2
72
6
73
3
74
0
42
0.000000001
43
0.0000000001
44
0.0000000001
40
0
40
0
40
0
40
1
40
1
40
1
10
-45.964247099096781
20
77.547046565516638
30
0
10
-45.47652613275767
20
76.407551192744421
30
0
10
-44.549855104620462
20
75.786815309031653
30
0
0
SPLINE
5
162
100
AcDbEntity
8
0
100
AcDbSpline
70
0
71
2
72
6
73
3
74
0
42
0.000000001
43
0.0000000001
44
0.0000000001
40
0
40
0
40
0
40
1
40
1
40
1
10
-44.549855104620462
20
75.786815309031653
30
0
10
-43.623184076483255
20
75.166078233225988
30
0
10
-42.37284313791514
20
75.166078233225988
30
0
0
SPLINE
5
163
100
AcDbEntity
8
0
100
AcDbSpline
70
0
71
2
72
6
73
3
74
0
42
0.000000001
43
0.0000000001
44
0.0000000001
40
0
40
0
40
0
40
1
40
1
40
1
10
-42.37284313791514
20
75.166078233225988
30
0
10
-40.705720297033793
20
75.166078233225988
30
0
10
-39.62386499994517
20
76.513963365061926
30
0
0
LINE
5
164
100
AcDbEntity
8
0
100
AcDbLine
10
-39.62386499994517
20
76.513963365061926
30
0
11
-39.62386499994517
21
75.378902577860998
31
0
0
LINE
5
165
100
AcDbEntity
8
0
100
AcDbLine
10
-39.62386499994517
20
75.378902577860998
30
0
11
-38.151832929785257
21
75.378902577860998
31
0
0
LINE
5
166
100
AcDbEntity
8
0
100
AcDbLine
10
-38.151832929785257
20
75.378902577860998
30
0
11
-38.151832929785257
21
83.519421243174719
31
0
0
SPLINE
5
167
100
AcDbEntity
8
0
100
AcDbSpline
70
0
71
2
72
6
73
3
74
0
42
0.000000001
43
0.0000000001
44
0.0000000001
40
0
40
0
40
0
40
1
40
1
40
1
10
-38.151832929785257
20
83.519421243174719
30
0
10
-38.151832929785257
20
85.718601369364904
30
0
10
-38.59964977854014
20
86.636405610545324
30
0
0
SPLINE
5
168
100
AcDbEntity
8
0
100
AcDbSpline
70
0
71
2
72
6
73
3
74
0
42
0.000000001
43
0.0000000001
44
0.0000000001
40
0
40
0
40
0
40
1
40
1
40
1
10
-38.59964977854014
20
86.636405610545324
30
0
10
-39.047466627295023
20
87.554209851725744
30
0
10
-40.018476358587748
20
88.086269521220373
30
0
0
SPLINE
5
169
100
AcDbEntity
8
0
100
AcDbSpline
70
0
71
2
72
6
73
3
74
0
42
0.000000001
43
0.0000000001
44
0.0000000001
40
0
40
0
40
0
40
1
40
1
40
1
10
-40.018476358587748
20
88.086269521220373
30
0
10
-40.989486089880472
20
88.618329190715002
30
0
10
-42.40831266992808
20
88.618329190715002
30
0
0
SPLINE
5
170
100
AcDbEntity
8
0
100
AcDbSpline
70
0
71
2
72
6
73
3
74
0
42
0.000000001
43
0.0000000001
44
0.0000000001
40
0
40
0
40
0
40
1
40
1
40
1
10
-42.40831266992808
20
88.618329190715002
30
0
10
-44.093169084723002
20
88.618329190715002
30
0
10
-45.130688062841898
20
87.860143804057287
30
0
0
SPLINE
5
171
100
AcDbEntity
8
0
100
AcDbSpline
70
0
71
2
72
6
73
3
74
0
42
0.000000001
43
0.0000000001
44
0.0000000001
40
0
40
0
40
0
40
1
40
1
40
1
10
-45.130688062841898
20
87.860143804057287
30
0
10
-46.168204656775004
20
87.101958417399572
30
0
10
-46.132732740576273
20
85.576720857127356
30
0
0
SPLINE
5
172
100
AcDbEntity
8
0
100
AcDbSpline
70
0
71
2
72
6
73
3
74
0
42
0.000000001
43
0.0000000001
44
0.0000000001
40
0
40
0
40
0
40
1
40
1
40
1
10
-44.811450353796488
20
79.9191481108505
30
0
10
-44.811450353796488
20
81.772490167124914
30
0
10
-44.075435510809427
20
82.623787545664953
30
0
0
SPLINE
5
173
100
AcDbEntity
8
0
100
AcDbSpline
70
0
71
2
72
6
73
3
74
0
42
0.000000001
43
0.0000000001
44
0.0000000001
40
0
40
0
40
0
40
1
40
1
40
1
10
-44.075435510809427
20
82.623787545664953
30
0
10
-43.339418283636576
20
83.475082540019201
30
0
10
-42.2309602414918
20
83.475082540019201
30
0
0
SPLINE
5
174
100
AcDbEntity
8
0
100
AcDbSpline
70
0
71
2
72
6
73
3
74
0
42
0.000000001
43
0.0000000001
44
0.0000000001
40
0
40
0
40
0
40
1
40
1
40
1
10
-42.2309602414918
20
83.475082540019201
30
0
10
-41.131368986303812
20
83.475082540019201
30
0
10
-40.386484972174173
20
82.628219747050451
30
0
0
SPLINE
5
175
100
AcDbEntity
8
0
100
AcDbSpline
70
0
71
2
72
6
73
3
74
0
42
0.000000001
43
0.0000000001
44
0.0000000001
40
0
40
0
40
0
40
1
40
1
40
1
10
-40.386484972174173
20
82.628219747050451
30
0
10
-39.641600958044535
20
81.781358146174597
30
0
10
-39.641600958044535
20
79.972353600962805
30
0
0
SPLINE
5
176
100
AcDbEntity
8
0
100
AcDbSpline
70
0
71
2
72
6
73
3
74
0
42
0.000000001
43
0.0000000001
44
0.0000000001
40
0
40
0
40
0
40
1
40
1
40
1
10
-39.641600958044535
20
79.972353600962805
30
0
10
-39.641600958044535
20
78.243158483012365
30
0
10
-40.408655515844828
20
77.36525955150907
30
0
0
SPLINE
5
177
100
AcDbEntity
8
0
100
AcDbSpline
70
0
71
2
72
6
73
3
74
0
42
0.000000001
43
0.0000000001
44
0.0000000001
40
0
40
0
40
0
40
1
40
1
40
1
10
-40.408655515844828
20
77.36525955150907
30
0
10
-41.17570768945933
20
76.487360620005774
30
0
10
-42.257562986547953
20
76.487360620005774
30
0
0
SPLINE
5
178
100
AcDbEntity
8
0
100
AcDbSpline
70
0
71
2
72
6
73
3
74
0
42
0.000000001
43
0.0000000001
44
0.0000000001
40
0
40
0
40
0
40
1
40
1
40
1
10
-42.257562986547953
20
76.487360620005774
30
0
10
-43.321682325537211
20
76.487360620005774
30
0
10
-44.066566339666849
20
77.351958178980993
30
0
0
SPLINE
5
179
100
AcDbEntity
8
0
100
AcDbSpline
70
0
71
2
72
6
73
3
74
0
42
0.000000001
43
0.0000000001
44
0.0000000001
40
0
40
0
40
0
40
1
40
1
40
1
10
-44.066566339666849
20
77.351958178980993
30
0
10
-44.811450353796488
20
78.216555737956213
30
0
10
-44.811450353796488
20
79.9191481108505
30
0
0
LWPOLYLINE
5
180
100
AcDbEntity
8
0
100
AcDbPolyline
90
4
70
1
43
0.0
10
-35.730961672003275
20
73.631972693904089
10
-35.730961672003275
20
71.796365403636145
10
-34.134782663519388
20
71.796365403636145
10
-34.134782663519388
20
73.631972693904089
0
LWPOLYLINE
5
181
100
AcDbEntity
8
0
100
AcDbPolyline
90
4
70
1
43
0.0
10
-35.730961672003275
20
84.796364926798987
10
-35.730961672003275
20
75.378902577860998
10
-34.134782663519388
20
75.378902577860998
10
-34.134782663519388
20
84.796364926798987
0
LINE
5
182
100
AcDbEntity
8
0
100
AcDbLine
10
-28.220044485266218
20
83.368671559794592
30
0
11
-27.989488950903425
21
84.778628968699621
31
0
0
SPLINE
5
183
100
AcDbEntity
8
0
100
AcDbSpline
70
0
71
2
72
6
73
3
74
0
42
0.000000001
43
0.0000000001
44
0.0000000001
40
0
40
0
40
0
40
1
40
1
40
1
10
-27.989488950903425
20
84.778628968699621
30
0
10
-28.663431516821394
20
84.920511865122961
30
0
10
-29.195491186316023
20
84.920511865122961
30
0
0
SPLINE
5
184
100
AcDbEntity
8
0
100
AcDbSpline
70
0
71
2
72
6
73
3
74
0
42
0.000000001
43
0.0000000001
44
0.0000000001
40
0
40
0
40
0
40
1
40
1
40
1
10
-29.195491186316023
20
84.920511865122961
30
0
10
-30.064522138769636
20
84.920511865122961
30
0
10
-30.54337631815196
20
84.64561524341886
30
0
0
SPLINE
5
185
100
AcDbEntity
8
0
100
AcDbSpline
70
0
71
2
72
6
73
3
74
0
42
0.000000001
43
0.0000000001
44
0.0000000001
40
0
40
0
40
0
40
1
40
1
40
1
10
-30.54337631815196
20
84.64561524341886
30
0
10
-31.022230497534284
20
84.370716237528967
30
0
10
-31.217318884069929
20
83.922899388774084
30
0
0
SPLINE
5
186
100
AcDbEntity
8
0
100
AcDbSpline
70
0
71
2
72
6
73
3
74
0
42
0.000000001
43
0.0000000001
44
0.0000000001
40
0
40
0
40
0
40
1
40
1
40
1
10
-31.217318884069929
20
83.922899388774084
30
0
10
-31.412407270605573
20
83.475082540019201
30
0
10
-31.412407270605573
20
82.038520001872229
30
0
0
LINE
5
187
100
AcDbEntity
8
0
100
AcDbLine
10
-31.412407270605573
20
82.0385200018722
30
0
11
-31.412407270605573
21
76.620376729472326
31
0
0
LINE
5
188
100
AcDbEntity
8
0
100
AcDbLine
10
-31.412407270605573
20
76.620376729472326
30
0
11
-32.582939974005228
21
76.620376729472326
31
0
0
LINE
5
189
100
AcDbEntity
8
0
100
AcDbLine
10
-32.582939974005228
20
76.620376729472326
30
0
11
-32.582939974005228
21
75.378902577860998
31
0
0
LINE
5
190
100
AcDbEntity
8
0
100
AcDbLine
10
-32.582939974005228
20
75.378902577860998
30
0
11
-31.412407270605573
21
75.378902577860998
31
0
0
LINE
5
191
100
AcDbEntity
8
0
100
AcDbLine
10
-31.412407270605573
20
75.378902577860998
30
0
11
-31.412407270605573
21
73.046705150111364
31
0
0
LINE
5
192
100
AcDbEntity
8
0
100
AcDbLine
10
-31.412407270605573
20
73.046705150111364
30
0
11
-29.825095049078474
21
72.088997983439612
31
0
0
LINE
5
193
100
AcDbEntity
8
0
100
AcDbLine
10
-29.825095049078474
20
72.088997983439612
30
0
11
-29.825095049078474
21
75.378902577860998
31
0
0
LINE
5
194
100
AcDbEntity
8
0
100
AcDbLine
10
-29.825095049078474
20
75.378902577860998
30
0
11
-28.220044485266218
21
75.378902577860998
31
0
0
LINE
5
195
100
AcDbEntity
8
0
100
AcDbLine
10
-28.220044485266218
20
75.378902577860998
30
0
11
-28.220044485266218
21
76.620376729472326
31
0
0
LINE
5
196
100
AcDbEntity
8
0
100
AcDbLine
10
-28.220044485266218
20
76.620376729472326
30
0
11
-29.825095049078474
21
76.620376729472326
31
0
0
LINE
5
197
100
AcDbEntity
8
0
100
AcDbLine
10
-29.825095049078474
20
76.620376729472326
30
0
11
-29.825095049078474
21
82.127197408183264
31
0
0
SPLINE
5
198
100
AcDbEntity
8
0
100
AcDbSpline
70
0
71
2
72
6
73
3
74
0
42
0.000000001
43
0.0000000001
44
0.0000000001
40
0
40
0
40
0
40
1
40
1
40
1
10
-29.825095049078474
20
82.127197408183264
30
0
10
-29.825095049078474
20
82.81000676105802
30
0
10
-29.740852228338728
20
83.005095147593664
30
0
0
SPLINE
5
199
100
AcDbEntity
8
0
100
AcDbSpline
70
0
71
2
72
6
73
3
74
0
42
0.000000001
43
0.0000000001
44
0.0000000001
40
0
40
0
40
0
40
1
40
1
40
1
10
-29.740852228338728
20
83.005095147593664
30
0
10
-29.656609407598982
20
83.2001859183151
30
0
10
-29.465955606634626
20
83.315463685496496
30
0
0
SPLINE
5
200
100
AcDbEntity
8
0
100
AcDbSpline
70
0
71
2
72
6
73
3
74
0
42
0.000000001
43
0.0000000001
44
0.0000000001
40
0
40
0
40
0
40
1
40
1
40
1
10
-29.465955606634626
20
83.315463685496496
30
0
10
-29.27529942148448
20
83.430743836863684
30
0
10
-28.920594564611921
20
83.430743836863684
30
0
0
SPLINE
5
201
100
AcDbEntity
8
0
100
AcDbSpline
70
0
71
2
72
6
73
3
74
0
42
0.000000001
43
0.0000000001
44
0.0000000001
40
0
40
0
40
0
40
1
40
1
40
1
10
-28.920594564611921
20
83.430743836863684
30
0
10
-28.654562345678816
20
83.430743836863684
30
0
10
-28.220044485266218
20
83.368671559794592
30
0
0
SPLINE
5
202
100
AcDbEntity
8
0
100
AcDbSpline
70
0
71
2
72
6
73
3
74
0
42
0.000000001
43
0.0000000001
44
0.0000000001
40
0
40
0
40
0
40
1
40
1
40
1
10
-20.514046064550886
20
83.634701394541906
30
0
10
-21.400810590918073
20
84.388452195628332
30
0
10
-22.221070638830671
20
84.698820733531164
30
0
0
SPLINE
5
203
100
AcDbEntity
8
0
100
AcDbSpline
70
0
71
2
72
6
73
3
74
0
42
0.000000001
43
0.0000000001
44
0.0000000001
40
0
40
0
40
0
40
1
40
1
40
1
10
-22.221070638830671
20
84.698820733531164
30
0
10
-23.041330686743269
20
85.009189271433996
30
0
10
-23.981300703222761
20
85.009189271433996
30
0
0
SPLINE
5
204
100
AcDbEntity
8
0
100
AcDbSpline
70
0
71
2
72
6
73
3
74
0
42
0.000000001
43
0.0000000001
44
0.0000000001
40
0
40
0
40
0
40
1
40
1
40
1
10
-23.981300703222761
20
85.009189271433996
30
0
10
-25.533143392736921
20
85.009189271433996
30
0
10
-26.366702428991804
20
84.251003884776281
30
0
0
SPLINE
5
205
100
AcDbEntity
8
0
100
AcDbSpline
70
0
71
2
72
6
73
3
74
0
42
0.000000001
43
0.0000000001
44
0.0000000001
40
0
40
0
40
0
40
1
40
1
40
1
10
-26.366702428991804
20
84.251003884776281
30
0
10
-27.200266233618269
20
83.492818498118567
30
0
10
-27.200266233618269
20
82.313417815669226
30
0
0
SPLINE
5
206
100
AcDbEntity
8
0
100
AcDbSpline
70
0
71
2
72
6
73
3
74
0
42
0.000000001
43
0.0000000001
44
0.0000000001
40
0
40
0
40
0
40
1
40
1
40
1
10
-27.200266233618269
20
82.313417815669226
30
0
10
-27.200266233618269
20
81.621740483744787
30
0
10
-26.885463110144148
20
81.049775504573034
30
0
0
SPLINE
5
207
100
AcDbEntity
8
0
100
AcDbSpline
70
0
71
2
72
6
73
3
74
0
42
0.000000001
43
0.0000000001
44
0.0000000001
40
0
40
0
40
0
40
1
40
1
40
1
10
-26.885463110144148
20
81.049775504573034
30
0
10
-26.570664755041609
20
80.477810525401281
30
0
10
-26.060773245031843
20
80.13197245548551
30
0
0
SPLINE
5
208
100
AcDbEntity
8
0
100
AcDbSpline
70
0
71
2
72
6
73
3
74
0
42
0.000000001
43
0.0000000001
44
0.0000000001
40
0
40
0
40
0
40
1
40
1
40
1
10
-26.060773245031843
20
80.13197245548551
30
0
10
-25.550881735022077
20
79.786132001383947
30
0
10
-24.912406316931257
20
79.608779572947668
30
0
0
SPLINE
5
209
100
AcDbEntity
8
0
100
AcDbSpline
70
0
71
2
72
6
73
3
74
0
42
0.000000001
43
0.0000000001
44
0.0000000001
40
0
40
0
40
0
40
1
40
1
40
1
10
-24.912406316931257
20
79.608779572947668
30
0
10
-24.442421308691511
20
79.484632634623694
30
0
10
-23.493582121069441
20
79.369352483256506
30
0
0
SPLINE
5
210
100
AcDbEntity
8
0
100
AcDbSpline
70
0
71
2
72
6
73
3
74
0
42
0.000000001
43
0.0000000001
44
0.0000000001
40
0
40
0
40
0
40
1
40
1
40
1
10
-23.493582121069441
20
79.369352483256506
30
0
10
-21.56043182962657
20
79.138793372615027
30
0
10
-20.647059789831648
20
78.819556855662512
30
0
0
SPLINE
5
211
100
AcDbEntity
8
0
100
AcDbSpline
70
0
71
2
72
6
73
3
74
0
42
0.000000001
43
0.0000000001
44
0.0000000001
40
0
40
0
40
0
40
1
40
1
40
1
10
-20.647059789831648
20
78.819556855662512
30
0
10
-20.63819061868907
20
78.49145355175321
30
0
10
-20.63819061868907
20
78.402777337535071
30
0
0
SPLINE
5
212
100
AcDbEntity
8
0
100
AcDbSpline
70
0
71
2
72
6
73
3
74
0
42
0.000000001
43
0.0000000001
44
0.0000000001
40
0
40
0
40
0
40
1
40
1
40
1
10
-20.63819061868907
20
78.402777337535071
30
0
10
-20.63819061868907
20
77.427333020671057
30
0
10
-21.090442053015241
20
77.028288268550085
30
0
0
SPLINE
5
213
100
AcDbEntity
8
0
100
AcDbSpline
70
0
71
2
72
6
73
3
74
0
42
0.000000001
43
0.0000000001
44
0.0000000001
40
0
40
0
40
0
40
1
40
1
40
1
10
-21.090442053015241
20
77.028288268550085
30
0
10
-21.702314726049909
20
76.487360620005774
30
0
10
-22.908316961462507
20
76.487360620005774
30
0
0
SPLINE
5
214
100
AcDbEntity
8
0
100
AcDbSpline
70
0
71
2
72
6
73
3
74
0
42
0.000000001
43
0.0000000001
44
0.0000000001
40
0
40
0
40
0
40
1
40
1
40
1
10
-22.908316961462507
20
76.487360620005774
30
0
10
-24.034510961706648
20
76.487360620005774
30
0
10
-24.571000448400984
20
76.881971978648352
30
0
0
SPLINE
5
215
100
AcDbEntity
8
0
100
AcDbSpline
70
0
71
2
72
6
73
3
74
0
42
0.000000001
43
0.0000000001
44
0.0000000001
40
0
40
0
40
0
40
1
40
1
40
1
10
-24.571000448400984
20
76.881971978648352
30
0
10
-25.107499471838484
20
77.27658333729093
30
0
10
-25.364657751257429
20
78.2786292071182
30
0
0
LINE
5
216
100
AcDbEntity
8
0
100
AcDbLine
10
-25.364657751257429
20
78.2786292071182
30
0
11
-26.925369611914167
21
78.065806054576086
31
0
0
SPLINE
5
217
100
AcDbEntity
8
0
100
AcDbSpline
70
0
71
2
72
6
73
3
74
0
42
0.000000001
43
0.0000000001
44
0.0000000001
40
0
40
0
40
0
40
1
40
1
40
1
10
-26.925369611914167
20
78.065806054576086
30
0
10
-26.712542883093366
20
77.06375899265592
30
0
10
-26.224824300940046
20
76.447456502421545
30
0
0
SPLINE
5
218
100
AcDbEntity
8
0
100
AcDbSpline
70
0
71
2
72
6
73
3
74
0
42
0.000000001
43
0.0000000001
44
0.0000000001
40
0
40
0
40
0
40
1
40
1
40
1
10
-26.224824300940046
20
76.447456502421545
30
0
10
-25.737100950415144
20
75.83115401218717
30
0
10
-24.814864507849226
20
75.498614930613684
30
0
0
SPLINE
5
219
100
AcDbEntity
8
0
100
AcDbSpline
70
0
71
2
72
6
73
3
74
0
42
0.000000001
43
0.0000000001
44
0.0000000001
40
0
40
0
40
0
40
1
40
1
40
1
10
-24.814864507849226
20
75.498614930613684
30
0
10
-23.892628065283308
20
75.166078233225988
30
0
10
-22.677756658728132
20
75.166078233225988
30
0
0
SPLINE
5
220
100
AcDbEntity
8
0
100
AcDbSpline
70
0
71
2
72
6
73
3
74
0
42
0.000000001
43
0.0000000001
44
0.0000000001
40
0
40
0
40
0
40
1
40
1
40
1
10
-22.677756658728132
20
75.166078233225988
30
0
10
-21.471754423315534
20
75.166078233225988
30
0
10
-20.718003622229109
20
75.449844026072668
30
0
0
SPLINE
5
221
100
AcDbEntity
8
0
100
AcDbSpline
70
0
71
2
72
6
73
3
74
0
42
0.000000001
43
0.0000000001
44
0.0000000001
40
0
40
0
40
0
40
1
40
1
40
1
10
-20.718003622229109
20
75.449844026072668
30
0
10
-19.964248052771101
20
75.733609818919348
30
0
10
-19.609543195898542
20
76.163690709574865
30
0
0
SPLINE
5
222
100
AcDbEntity
8
0
100
AcDbSpline
70
0
71
2
72
6
73
3
74
0
42
0.000000001
43
0.0000000001
44
0.0000000001
40
0
40
0
40
0
40
1
40
1
40
1
10
-19.609543195898542
20
76.163690709574865
30
0
10
-19.254838339025984
20
76.593772792323279
30
0
10
-19.112955442602644
20
77.249980592234778
30
0
0
SPLINE
5
223
100
AcDbEntity
8
0
100
AcDbSpline
70
0
71
2
72
6
73
3
74
0
42
0.000000001
43
0.0000000001
44
0.0000000001
40
0
40
0
40
0
40
1
40
1
40
1
10
-19.112955442602644
20
77.249980592234778
30
0
10
-19.033142439062605
20
77.657893323405432
30
0
10
-19.033142439062605
20
78.72201266239469
30
0
0
LINE
5
224
100
AcDbEntity
8
0
100
AcDbLine
10
-19.033142439062605
20
78.72201266239469
30
0
11
-19.033142439062605
21
80.850253724558996
31
0
0
SPLINE
5
225
100
AcDbEntity
8
0
100
AcDbSpline
70
0
71
2
72
6
73
3
74
0
42
0.000000001
43
0.0000000001
44
0.0000000001
40
0
40
0
40
0
40
1
40
1
40
1
10
-19.033142439062605
20
80.850253724558996
30
0
10
-19.033142439062605
20
83.076036595805334
30
0
10
-18.931166044409284
20
83.665736340983557
30
0
0
SPLINE
5
226
100
AcDbEntity
8
0
100
AcDbSpline
70
0
71
2
72
6
73
3
74
0
42
0.000000001
43
0.0000000001
44
0.0000000001
40
0
40
0
40
0
40
1
40
1
40
1
10
-18.931166044409284
20
83.665736340983557
30
0
10
-18.829189649755964
20
84.255436086161779
30
0
10
-18.527685514624128
20
84.796364926798987
30
0
0
LINE
5
227
100
AcDbEntity
8
0
100
AcDbLine
10
-18.527685514624128
20
84.796364926799001
30
0
11
-20.194808355505476
21
84.796364926798987
31
0
0
SPLINE
5
228
100
AcDbEntity
8
0
100
AcDbSpline
70
0
71
2
72
6
73
3
74
0
42
0.000000001
43
0.0000000001
44
0.0000000001
40
0
40
0
40
0
40
1
40
1
40
1
10
-20.194808355505476
20
84.796364926798987
30
0
10
-20.443102232153425
20
84.299774789317297
30
0
10
-20.514046064550886
20
83.634701394541906
30
0
0
SPLINE
5
229
100
AcDbEntity
8
0
100
AcDbSpline
70
0
71
2
72
6
73
3
74
0
42
0.000000001
43
0.0000000001
44
0.0000000001
40
0
40
0
40
0
40
1
40
1
40
1
10
-20.647059789831648
20
80.069897794230627
30
0
10
-21.516090742285261
20
80.424605035288977
30
0
10
-23.254152647192488
20
80.672900104029821
30
0
0
SPLINE
5
230
100
AcDbEntity
8
0
100
AcDbSpline
70
0
71
2
72
6
73
3
74
0
42
0.000000001
43
0.0000000001
44
0.0000000001
40
0
40
0
40
0
40
1
40
1
40
1
10
-23.254152647192488
20
80.672900104029821
30
0
10
-24.238463751013288
20
80.814781808360266
30
0
10
-24.646378866369734
20
80.992135428889441
30
0
0
SPLINE
5
231
100
AcDbEntity
8
0
100
AcDbSpline
70
0
71
2
72
6
73
3
74
0
42
0.000000001
43
0.0000000001
44
0.0000000001
40
0
40
0
40
0
40
1
40
1
40
1
10
-24.646378866369734
20
80.992135428889441
30
0
10
-25.054293981726179
20
81.169489049418615
30
0
10
-25.275985113317976
20
81.510894917948889
30
0
0
SPLINE
5
232
100
AcDbEntity
8
0
100
AcDbSpline
70
0
71
2
72
6
73
3
74
0
42
0.000000001
43
0.0000000001
44
0.0000000001
40
0
40
0
40
0
40
1
40
1
40
1
10
-25.275985113317976
20
81.510894917948889
30
0
10
-25.497676244909773
20
81.852299594386267
30
0
10
-25.497676244909773
20
82.269080304606604
30
0
0
SPLINE
5
233
100
AcDbEntity
8
0
100
AcDbSpline
70
0
71
2
72
6
73
3
74
0
42
0.000000001
43
0.0000000001
44
0.0000000001
40
0
40
0
40
0
40
1
40
1
40
1
10
-25.497676244909773
20
82.269080304606604
30
0
10
-25.497676244909773
20
82.907550954325842
30
0
10
-25.014387479956159
20
83.333199643595862
30
0
0
SPLINE
5
234
100
AcDbEntity
8
0
100
AcDbSpline
70
0
71
2
72
6
73
3
74
0
42
0.000000001
43
0.0000000001
44
0.0000000001
40
0
40
0
40
0
40
1
40
1
40
1
10
-25.014387479956159
20
83.333199643595862
30
0
10
-24.531098715002546
20
83.758848332865881
30
0
10
-23.59999310129405
20
83.758848332865881
30
0
0
SPLINE
5
235
100
AcDbEntity
8
0
100
AcDbSpline
70
0
71
2
72
6
73
3
74
0
42
0.000000001
43
0.0000000001
44
0.0000000001
40
0
40
0
40
0
40
1
40
1
40
1
10
-23.59999310129405
20
83.758848332865881
30
0
10
-22.677756658728132
20
83.758848332865881
30
0
10
-21.959473005468855
20
83.355370187266516
30
0
0
SPLINE
5
236
100
AcDbEntity
8
0
100
AcDbSpline
70
0
71
2
72
6
73
3
74
0
42
0.000000001
43
0.0000000001
44
0.0000000001
40
0
40
0
40
0
40
1
40
1
40
1
10
-21.959473005468855
20
83.355370187266516
30
0
10
-21.241194120581159
20
82.95188965748136
30
0
10
-20.904222837622175
20
82.251344346507238
30
0
0
SPLINE
5
237
100
AcDbEntity
8
0
100
AcDbSpline
70
0
71
2
72
6
73
3
74
0
42
0.000000001
43
0.0000000001
44
0.0000000001
40
0
40
0
40
0
40
1
40
1
40
1
10
-20.904222837622175
20
82.251344346507238
30
0
10
-20.647059789831648
20
81.710416697962927
30
0
10
-20.647059789831648
20
80.655164145930456
30
0
0
LINE
5
238
100
AcDbEntity
8
0
100
AcDbLine
10
-20.647059789831648
20
80.655164145930456
30
0
11
-20.647059789831648
21
80.069897794230627
31
0
0
LWPOLYLINE
5
239
100
AcDbEntity
8
0
100
AcDbPolyline
90
4
70
1
43
0.0
10
-16.594535223181257
20
84.796364926798987
10
-16.594535223181257
20
71.796365403636145
10
-14.99835621469737
20
71.796365403636145
10
-14.99835621469737
20
84.796364926798987
0
LWPOLYLINE
5
240
100
AcDbEntity
8
0
100
AcDbPolyline
90
4
70
1
43
0.0
10
-6.9819844877076243
20
84.796364926798987
10
-6.9819844877076243
20
71.796365403636145
10
-5.2616561567139719
20
71.796365403636145
10
-5.2616561567139719
20
84.796364926798987
0
LINE
5
241
100
AcDbEntity
8
0
100
AcDbLine
10
-2.4328721677613352
20
84.796364926798987
30
0
11
-2.4328721677613352
21
75.378902577860998
31
0
0
LINE
5
242
100
AcDbEntity
8
0
100
AcDbLine
10
-2.4328721677613352
20
75.378902577860998
30
0
11
-0.99630962961436254
21
75.378902577860998
31
0
0
LINE
5
243
100
AcDbEntity
8
0
100
AcDbLine
10
-0.99630962961436254
20
75.378902577860998
30
0
11
-0.99630962961436254
21
76.717920922740149
31
0
0
SPLINE
5
244
100
AcDbEntity
8
0
100
AcDbSpline
70
0
71
2
72
6
73
3
74
0
42
0.000000001
43
0.0000000001
44
0.0000000001
40
0
40
0
40
0
40
1
40
1
40
1
10
-0.99630962961436254
20
76.717920922740149
30
0
10
0.041206964318742934
20
75.166078233225988
30
0
10
2.0009600008177664
20
75.166078233225988
30
0
0
SPLINE
5
245
100
AcDbEntity
8
0
100
AcDbSpline
70
0
71
2
72
6
73
3
74
0
42
0.000000001
43
0.0000000001
44
0.0000000001
40
0
40
0
40
0
40
1
40
1
40
1
10
2.0009600008177664
20
75.166078233225988
30
0
10
2.8522573793578054
20
75.166078233225988
30
0
10
3.5661064470457937
20
75.472012185557531
30
0
0
SPLINE
5
246
100
AcDbEntity
8
0
100
AcDbSpline
70
0
71
2
72
6
73
3
74
0
42
0.000000001
43
0.0000000001
44
0.0000000001
40
0
40
0
40
0
40
1
40
1
40
1
10
3.5661064470457937
20
75.472012185557531
30
0
10
4.2799507463622
20
75.77794732998197
30
0
10
4.6346603716063406
20
76.274536275370764
30
0
0
SPLINE
5
247
100
AcDbEntity
8
0
100
AcDbSpline
70
0
71
2
72
6
73
3
74
0
42
0.000000001
43
0.0000000001
44
0.0000000001
40
0
40
0
40
0
40
1
40
1
40
1
10
4.6346603716063406
20
76.274536275370764
30
0
10
4.9893652284788992
20
76.771126412852453
30
0
10
5.131248124902239
20
77.453935765727209
30
0
0
SPLINE
5
248
100
AcDbEntity
8
0
100
AcDbSpline
70
0
71
2
72
6
73
3
74
0
42
0.000000001
43
0.0000000001
44
0.0000000001
40
0
40
0
40
0
40
1
40
1
40
1
10
5.131248124902239
20
77.453935765727209
30
0
10
5.2199255312132742
20
77.897320413096594
30
0
10
5.2199255312132742
20
79.005778455241369
30
0
0
LINE
5
249
100
AcDbEntity
8
0
100
AcDbLine
10
5.2199255312132742
20
79.005778455241369
30
0
11
5.2199255312132742
21
84.796364926798987
31
0
0
LINE
5
250
100
AcDbEntity
8
0
100
AcDbLine
10
5.2199255312132742
20
84.796364926798987
30
0
11
3.6237465227293875
21
84.796364926798987
31
0
0
LINE
5
251
100
AcDbEntity
8
0
100
AcDbLine
10
3.6237465227293875
20
84.796364926798987
30
0
11
3.6237465227293875
21
79.067851924403357
31
0
0
SPLINE
5
252
100
AcDbEntity
8
0
100
AcDbSpline
70
0
71
2
72
6
73
3
74
0
42
0.000000001
43
0.0000000001
44
0.0000000001
40
0
40
0
40
0
40
1
40
1
40
1
10
3.6237465227293875
20
79.067851924403357
30
0
10
3.6237465227293875
20
78.092408799632238
30
0
10
3.437522538964739
20
77.609120034678625
30
0
0
SPLINE
5
253
100
AcDbEntity
8
0
100
AcDbSpline
70
0
71
2
72
6
73
3
74
0
42
0.000000001
43
0.0000000001
44
0.0000000001
40
0
40
0
40
0
40
1
40
1
40
1
10
3.437522538964739
20
77.609120034678625
30
0
10
3.2513033235716726
20
77.125833653910803
30
0
10
2.7768837297606375
20
76.837633275492834
30
0
0
SPLINE
5
254
100
AcDbEntity
8
0
100
AcDbSpline
70
0
71
2
72
6
73
3
74
0
42
0.000000001
43
0.0000000001
44
0.0000000001
40
0
40
0
40
0
40
1
40
1
40
1
10
2.7768837297606375
20
76.837633275492834
30
0
10
2.3024641359496023
20
76.549435281260656
30
0
10
1.663988717858782
20
76.549435281260656
30
0
0
SPLINE
5
255
100
AcDbEntity
8
0
100
AcDbSpline
70
0
71
2
72
6
73
3
74
0
42
0.000000001
43
0.0000000001
44
0.0000000001
40
0
40
0
40
0
40
1
40
1
40
1
10
1.663988717858782
20
76.549435281260656
30
0
10
0.64421046621083278
20
76.549435281260656
30
0
10
-0.096241346533307848
20
77.196775102122473
30
0
0
SPLINE
5
256
100
AcDbEntity
8
0
100
AcDbSpline
70
0
71
2
72
6
73
3
74
0
42
0.000000001
43
0.0000000001
44
0.0000000001
40
0
40
0
40
0
40
1
40
1
40
1
10
-0.096241346533307848
20
77.196775102122473
30
0
10
-0.83669315927744847
20
77.844113730891394
30
0
10
-0.83669315927744847
20
79.653118276103186
30
0
0
LINE
5
257
100
AcDbEntity
8
0
100
AcDbLine
10
-0.83669315927744847
20
79.653118276103186
30
0
11
-0.83669315927744847
21
84.796364926798987
31
0
0
LINE
5
258
100
AcDbEntity
8
0
100
AcDbLine
10
-0.83669315927744847
20
84.796364926798987
30
0
11
-2.4328721677613352
21
84.796364926798987
31
0
0
LINE
5
259
100
AcDbEntity
8
0
100
AcDbLine
10
11.152399667565813
20
83.368671559794592
30
0
11
11.382959970300188
21
84.778628968699621
31
0
0
SPLINE
5
260
100
AcDbEntity
8
0
100
AcDbSpline
70
0
71
2
72
6
73
3
74
0
42
0.000000001
43
0.0000000001
44
0.0000000001
40
0
40
0
40
0
40
1
40
1
40
1
10
11.382959970300188
20
84.778628968699621
30
0
10
10.709017404382219
20
84.920511865122961
30
0
10
10.176957734887591
20
84.920511865122961
30
0
0
SPLINE
5
261
100
AcDbEntity
8
0
100
AcDbSpline
70
0
71
2
72
6
73
3
74
0
42
0.000000001
43
0.0000000001
44
0.0000000001
40
0
40
0
40
0
40
1
40
1
40
1
10
10.176957734887591
20
84.920511865122961
30
0
10
9.3079220140623953
20
84.920511865122961
30
0
10
8.8290678346800711
20
84.64561524341886
30
0
0
SPLINE
5
262
100
AcDbEntity
8
0
100
AcDbSpline
70
0
71
2
72
6
73
3
74
0
42
0.000000001
43
0.0000000001
44
0.0000000001
40
0
40
0
40
0
40
1
40
1
40
1
10
8.8290678346800711
20
84.64561524341886
30
0
10
8.3502136552977468
20
84.370716237528967
30
0
10
8.1551252687621023
20
83.922899388774084
30
0
0
SPLINE
5
263
100
AcDbEntity
8
0
100
AcDbSpline
70
0
71
2
72
6
73
3
74
0
42
0.000000001
43
0.0000000001
44
0.0000000001
40
0
40
0
40
0
40
1
40
1
40
1
10
8.1551252687621023
20
83.922899388774084
30
0
10
7.9600368822264578
20
83.475082540019201
30
0
10
7.9600368822264578
20
82.038520001872229
30
0
0
LINE
5
264
100
AcDbEntity
8
0
100
AcDbLine
10
7.9600368822264578
20
82.0385200018722
30
0
11
7.9600368822264578
21
76.620376729472326
31
0
0
LINE
5
265
100
AcDbEntity
8
0
100
AcDbLine
10
7.9600368822264578
20
76.620376729472326
30
0
11
6.7895065630125906
21
76.620376729472326
31
0
0
LINE
5
266
100
AcDbEntity
8
0
100
AcDbLine
10
6.7895065630125906
20
76.620376729472326
30
0
11
6.7895065630125906
21
75.378902577860998
31
0
0
LINE
5
267
100
AcDbEntity
8
0
100
AcDbLine
10
6.7895065630125906
20
75.378902577860998
30
0
11
7.9600368822264578
21
75.378902577860998
31
0
0
LINE
5
268
100
AcDbEntity
8
0
100
AcDbLine
10
7.9600368822264578
20
75.378902577860998
30
0
11
7.9600368822264578
21
73.046705150111364
31
0
0
LINE
5
269
100
AcDbEntity
8
0
100
AcDbLine
10
7.9600368822264578
20
73.046705150111364
30
0
11
9.5473514879393484
21
72.088997983439612
31
0
0
LINE
5
270
100
AcDbEntity
8
0
100
AcDbLine
10
9.5473514879393484
20
72.088997983439612
30
0
11
9.5473514879393484
21
75.378902577860998
31
0
0
LINE
5
271
100
AcDbEntity
8
0
100
AcDbLine
10
9.5473514879393484
20
75.378902577860998
30
0
11
11.152399667565813
21
75.378902577860998
31
0
0
LINE
5
272
100
AcDbEntity
8
0
100
AcDbLine
10
11.152399667565813
20
75.378902577860998
30
0
11
11.152399667565813
21
76.620376729472326
31
0
0
LINE
5
273
100
AcDbEntity
8
0
100
AcDbLine
10
11.152399667565813
20
76.620376729472326
30
0
11
9.5473514879393484
21
76.620376729472326
31
0
0
LINE
5
274
100
AcDbEntity
8
0
100
AcDbLine
10
9.5473514879393484
20
76.620376729472326
30
0
11
9.5473514879393484
21
82.127197408183264
31
0
0
SPLINE
5
275
100
AcDbEntity
8
0
100
AcDbSpline
70
0
71
2
72
6
73
3
74
0
42
0.000000001
43
0.0000000001
44
0.0000000001
40
0
40
0
40
0
40
1
40
1
40
1
10
9.5473514879393484
20
82.127197408183264
30
0
10
9.5473514879393484
20
82.81000676105802
30
0
10
9.6315943086790945
20
83.005095147593664
30
0
0
SPLINE
5
276
100
AcDbEntity
8
0
100
AcDbSpline
70
0
71
2
72
6
73
3
74
0
42
0.000000001
43
0.0000000001
44
0.0000000001
40
0
40
0
40
0
40
1
40
1
40
1
10
9.6315943086790945
20
83.005095147593664
30
0
10
9.7158371294188406
20
83.2001859183151
30
0
10
9.9064909303831961
20
83.315463685496496
30
0
0
SPLINE
5
277
100
AcDbEntity
8
0
100
AcDbSpline
70
0
71
2
72
6
73
3
74
0
42
0.000000001
43
0.0000000001
44
0.0000000001
40
0
40
0
40
0
40
1
40
1
40
1
10
9.9064909303831961
20
83.315463685496496
30
0
10
10.097144731347552
20
83.430743836863684
30
0
10
10.451854356591692
20
83.430743836863684
30
0
0
SPLINE
5
278
100
AcDbEntity
8
0
100
AcDbSpline
70
0
71
2
72
6
73
3
74
0
42
0.000000001
43
0.0000000001
44
0.0000000001
40
0
40
0
40
0
40
1
40
1
40
1
10
10.451854356591692
20
83.430743836863684
30
0
10
10.717877038781634
20
83.430743836863684
30
0
10
11.152399667565813
20
83.368671559794592
30
0
0
LINE
5
279
100
AcDbEntity
8
0
100
AcDbLine
10
19.159897455041399
20
81.763623380168127
30
0
11
20.809277185266009
21
81.967578553660559
31
0
0
SPLINE
5
280
100
AcDbEntity
8
0
100
AcDbSpline
70
0
71
2
72
6
73
3
74
0
42
0.000000001
43
0.0000000001
44
0.0000000001
40
0
40
0
40
0
40
1
40
1
40
1
10
20.809277185266009
20
81.967578553660559
30
0
10
20.419109948937884
20
83.413007878764319
30
0
10
19.36385024434804
20
84.211099767192053
30
0
0
SPLINE
5
281
100
AcDbEntity
8
0
100
AcDbSpline
70
0
71
2
72
6
73
3
74
0
42
0.000000001
43
0.0000000001
44
0.0000000001
40
0
40
0
40
0
40
1
40
1
40
1
10
19.36385024434804
20
84.211099767192053
30
0
10
18.308590539758196
20
85.009189271433996
30
0
10
16.668079980676165
20
85.009189271433996
30
0
0
SPLINE
5
282
100
AcDbEntity
8
0
100
AcDbSpline
70
0
71
2
72
6
73
3
74
0
42
0.000000001
43
0.0000000001
44
0.0000000001
40
0
40
0
40
0
40
1
40
1
40
1
10
16.668079980676165
20
85.009189271433996
30
0
10
14.601915963952532
20
85.009189271433996
30
0
10
13.391483911340227
20
83.736677789195227
30
0
0
SPLINE
5
283
100
AcDbEntity
8
0
100
AcDbSpline
70
0
71
2
72
6
73
3
74
0
42
0.000000001
43
0.0000000001
44
0.0000000001
40
0
40
0
40
0
40
1
40
1
40
1
10
13.391483911340227
20
83.736677789195227
30
0
10
12.181042321984759
20
82.464168691142248
30
0
10
12.181042321984759
20
80.167443179591345
30
0
0
SPLINE
5
284
100
AcDbEntity
8
0
100
AcDbSpline
70
0
71
2
72
6
73
3
74
0
42
0.000000001
43
0.0000000001
44
0.0000000001
40
0
40
0
40
0
40
1
40
1
40
1
10
12.181042321984759
20
80.167443179591345
30
0
10
12.181042321984759
20
77.790907048686194
30
0
10
13.40477813131093
20
76.478493833048987
30
0
0
SPLINE
5
285
100
AcDbEntity
8
0
100
AcDbSpline
70
0
71
2
72
6
73
3
74
0
42
0.000000001
43
0.0000000001
44
0.0000000001
40
0
40
0
40
0
40
1
40
1
40
1
10
13.40477813131093
20
76.478493833048987
30
0
10
14.628513940637102
20
75.166078233225988
30
0
10
16.579407342736712
20
75.166078233225988
30
0
0
SPLINE
5
286
100
AcDbEntity
8
0
100
AcDbSpline
70
0
71
2
72
6
73
3
74
0
42
0.000000001
43
0.0000000001
44
0.0000000001
40
0
40
0
40
0
40
1
40
1
40
1
10
16.579407342736712
20
75.166078233225988
30
0
10
18.468216546838274
20
75.166078233225988
30
0
10
19.665344842736712
20
76.451889895899939
30
0
0
SPLINE
5
287
100
AcDbEntity
8
0
100
AcDbSpline
70
0
71
2
72
6
73
3
74
0
42
0.000000001
43
0.0000000001
44
0.0000000001
40
0
40
0
40
0
40
1
40
1
40
1
10
19.665344842736712
20
76.451889895899939
30
0
10
20.862492212121477
20
77.737701558573889
30
0
10
20.862492212121477
20
80.069897794230627
30
0
0
SPLINE
5
288
100
AcDbEntity
8
0
100
AcDbSpline
70
0
71
2
72
6
73
3
74
0
42
0.000000001
43
0.0000000001
44
0.0000000001
40
0
40
0
40
0
40
1
40
1
40
1
10
20.862492212121477
20
80.069897794230627
30
0
10
20.862492212121477
20
80.211780690653967
30
0
10
20.853623040978899
20
80.495546483500647
30
0
0
LINE
5
289
100
AcDbEntity
8
0
100
AcDbLine
10
20.853623040978899
20
80.495546483500647
30
0
11
13.830422052209368
21
80.495546483500647
31
0
0
SPLINE
5
290
100
AcDbEntity
8
0
100
AcDbSpline
70
0
71
2
72
6
73
3
74
0
42
0.000000001
43
0.0000000001
44
0.0000000001
40
0
40
0
40
0
40
1
40
1
40
1
10
13.830422052209368
20
80.495546483500647
30
0
10
13.919104226891985
20
82.047387980921911
30
0
10
14.708326944177141
20
82.872081422312903
30
0
0
SPLINE
5
291
100
AcDbEntity
8
0
100
AcDbSpline
70
0
71
2
72
6
73
3
74
0
42
0.000000001
43
0.0000000001
44
0.0000000001
40
0
40
0
40
0
40
1
40
1
40
1
10
14.708326944177141
20
82.872081422312903
30
0
10
15.497549661462298
20
83.696773671610998
30
0
10
16.676949151818743
20
83.696773671610998
30
0
0
SPLINE
5
292
100
AcDbEntity
8
0
100
AcDbSpline
70
0
71
2
72
6
73
3
74
0
42
0.000000001
43
0.0000000001
44
0.0000000001
40
0
40
0
40
0
40
1
40
1
40
1
10
16.676949151818743
20
83.696773671610998
30
0
10
17.554844507043352
20
83.696773671610998
30
0
10
18.17559111959218
20
83.235655450328039
30
0
0
SPLINE
5
293
100
AcDbEntity
8
0
100
AcDbSpline
70
0
71
2
72
6
73
3
74
0
42
0.000000001
43
0.0000000001
44
0.0000000001
40
0
40
0
40
0
40
1
40
1
40
1
10
18.17559111959218
20
83.235655450328039
30
0
10
18.79631865865468
20
82.77453722904508
30
0
10
19.159897455041399
20
81.763623380168127
30
0
0
LINE
5
294
100
AcDbEntity
8
0
100
AcDbLine
10
13.919104226891985
20
79.183130883677649
30
0
11
19.177635797326555
21
79.183130883677649
31
0
0
SPLINE
5
295
100
AcDbEntity
8
0
100
AcDbSpline
70
0
71
2
72
6
73
3
74
0
42
0.000000001
43
0.0000000001
44
0.0000000001
40
0
40
0
40
0
40
1
40
1
40
1
10
19.177635797326555
20
79.183130883677649
30
0
10
19.071224817101946
20
77.994864606364416
30
0
10
18.574627527062884
20
77.400730275614904
30
0
0
SPLINE
5
296
100
AcDbEntity
8
0
100
AcDbSpline
70
0
71
2
72
6
73
3
74
0
42
0.000000001
43
0.0000000001
44
0.0000000001
40
0
40
0
40
0
40
1
40
1
40
1
10
18.574627527062884
20
77.400730275614904
30
0
10
17.812012323205462
20
76.478493833048987
30
0
10
16.597145685021868
20
76.478493833048987
30
0
0
SPLINE
5
297
100
AcDbEntity
8
0
100
AcDbSpline
70
0
71
2
72
6
73
3
74
0
42
0.000000001
43
0.0000000001
44
0.0000000001
40
0
40
0
40
0
40
1
40
1
40
1
10
16.597145685021868
20
76.478493833048987
30
0
10
15.497549661462298
20
76.478493833048987
30
0
10
14.748238214318743
20
77.214508676036047
30
0
0
SPLINE
5
298
100
AcDbEntity
8
0
100
AcDbSpline
70
0
71
2
72
6
73
3
74
0
42
0.000000001
43
0.0000000001
44
0.0000000001
40
0
40
0
40
0
40
1
40
1
40
1
10
14.748238214318743
20
77.214508676036047
30
0
10
13.998917230432024
20
77.950525903208899
30
0
10
13.919104226891985
20
79.183130883677649
30
0
0
LINE
5
299
100
AcDbEntity
8
0
100
AcDbLine
10
22.79564727193593
20
84.796364926798987
30
0
11
22.79564727193593
21
75.378902577860998
31
0
0
LINE
5
300
100
AcDbEntity
8
0
100
AcDbLine
10
22.79564727193593
20
75.378902577860998
30
0
11
24.232205041711321
21
75.378902577860998
31
0
0
LINE
5
301
100
AcDbEntity
8
0
100
AcDbLine
10
24.232205041711321
20
75.378902577860998
30
0
11
24.232205041711321
21
76.806597136958288
31
0
0
SPLINE
5
302
100
AcDbEntity
8
0
100
AcDbSpline
70
0
71
2
72
6
73
3
74
0
42
0.000000001
43
0.0000000001
44
0.0000000001
40
0
40
0
40
0
40
1
40
1
40
1
10
24.232205041711321
20
76.806597136958288
30
0
10
24.781998285119524
20
75.804551267131018
30
0
10
25.247543939416399
20
75.485314750178503
30
0
0
SPLINE
5
303
100
AcDbEntity
8
0
100
AcDbSpline
70
0
71
2
72
6
73
3
74
0
42
0.000000001
43
0.0000000001
44
0.0000000001
40
0
40
0
40
0
40
1
40
1
40
1
10
25.247543939416399
20
75.485314750178503
30
0
10
25.713108667199602
20
75.166078233225988
30
0
10
26.271771081750384
20
75.166078233225988
30
0
0
SPLINE
5
304
100
AcDbEntity
8
0
100
AcDbSpline
70
0
71
2
72
6
73
3
74
0
42
0.000000001
43
0.0000000001
44
0.0000000001
40
0
40
0
40
0
40
1
40
1
40
1
10
26.271771081750384
20
75.166078233225988
30
0
10
27.078732141320696
20
75.166078233225988
30
0
10
27.912281640832415
20
75.680403136714148
30
0
0
LINE
5
305
100
AcDbEntity
8
0
100
AcDbLine
10
27.912281640832415
20
75.680403136714148
30
0
11
27.362488397424212
21
77.161303185923742
31
0
0
SPLINE
5
306
100
AcDbEntity
8
0
100
AcDbSpline
70
0
71
2
72
6
73
3
74
0
42
0.000000001
43
0.0000000001
44
0.0000000001
40
0
40
0
40
0
40
1
40
1
40
1
10
27.362488397424212
20
77.161303185923742
30
0
10
26.777218469445696
20
76.815465116007971
30
0
10
26.191967614953509
20
76.815465116007971
30
0
0
SPLINE
5
307
100
AcDbEntity
8
0
100
AcDbSpline
70
0
71
2
72
6
73
3
74
0
42
0.000000001
43
0.0000000001
44
0.0000000001
40
0
40
0
40
0
40
1
40
1
40
1
10
26.191967614953509
20
76.815465116007971
30
0
10
25.668762811486712
20
76.815465116007971
30
0
10
25.251988061730852
20
77.130267047389196
30
0
0
SPLINE
5
308
100
AcDbEntity
8
0
100
AcDbSpline
70
0
71
2
72
6
73
3
74
0
42
0.000000001
43
0.0000000001
44
0.0000000001
40
0
40
0
40
0
40
1
40
1
40
1
10
25.251988061730852
20
77.130267047389196
30
0
10
24.835213311974993
20
77.445068978770422
30
0
10
24.657848962609759
20
78.003731393321203
30
0
0
SPLINE
5
309
100
AcDbEntity
8
0
100
AcDbSpline
70
0
71
2
72
6
73
3
74
0
42
0.000000001
43
0.0000000001
44
0.0000000001
40
0
40
0
40
0
40
1
40
1
40
1
10
24.657848962609759
20
78.003731393321203
30
0
10
24.391831048791399
20
78.855028771861242
30
0
10
24.391831048791399
20
79.865942620738196
30
0
0
LINE
5
310
100
AcDbEntity
8
0
100
AcDbLine
10
24.391831048791399
20
79.865942620738196
30
0
11
24.391831048791399
21
84.796364926798987
31
0
0
LINE
5
311
100
AcDbEntity
8
0
100
AcDbLine
10
24.391831048791399
20
84.796364926798987
30
0
11
22.79564727193593
21
84.796364926798987
31
0
0
LINE
5
312
100
AcDbEntity
8
0
100
AcDbLine
10
29.242428430383196
20
84.796364926798987
30
0
11
29.242428430383196
21
76.620376729472326
31
0
0
LINE
5
313
100
AcDbEntity
8
0
100
AcDbLine
10
29.242428430383196
20
76.620376729472326
30
0
11
27.83247817403554
21
76.620376729472326
31
0
0
LINE
5
314
100
AcDbEntity
8
0
100
AcDbLine
10
27.83247817403554
20
76.620376729472326
30
0
11
27.83247817403554
21
75.378902577860998
31
0
0
LINE
5
315
100
AcDbEntity
8
0
100
AcDbLine
10
27.83247817403554
20
75.378902577860998
30
0
11
29.242428430383196
21
75.378902577860998
31
0
0
LINE
5
316
100
AcDbEntity
8
0
100
AcDbLine
10
29.242428430383196
20
75.378902577860998
30
0
11
29.242428430383196
21
74.376856708033728
31
0
0
SPLINE
5
317
100
AcDbEntity
8
0
100
AcDbSpline
70
0
71
2
72
6
73
3
74
0
42
0.000000001
43
0.0000000001
44
0.0000000001
40
0
40
0
40
0
40
1
40
1
40
1
10
29.242428430383196
20
74.376856708033728
30
0
10
29.242428430383196
20
73.428016328318762
30
0
10
29.410923608605852
20
72.966896914942907
30
0
0
SPLINE
5
318
100
AcDbEntity
8
0
100
AcDbSpline
70
0
71
2
72
6
73
3
74
0
42
0.000000001
43
0.0000000001
44
0.0000000001
40
0
40
0
40
0
40
1
40
1
40
1
10
29.410923608605852
20
72.966896914942907
30
0
10
29.641483911340227
20
72.346159839137243
30
0
10
30.22230971700429
20
71.960416459544348
30
0
0
SPLINE
5
319
100
AcDbEntity
8
0
100
AcDbSpline
70
0
71
2
72
6
73
3
74
0
42
0.000000001
43
0.0000000001
44
0.0000000001
40
0
40
0
40
0
40
1
40
1
40
1
10
30.22230971700429
20
71.960416459544348
30
0
10
30.803135522668352
20
71.574673079951452
30
0
10
31.849526056115618
20
71.574673079951452
30
0
0
SPLINE
5
320
100
AcDbEntity
8
0
100
AcDbSpline
70
0
71
2
72
6
73
3
74
0
42
0.000000001
43
0.0000000001
44
0.0000000001
40
0
40
0
40
0
40
1
40
1
40
1
10
31.849526056115618
20
71.574673079951452
30
0
10
32.52346862203359
20
71.574673079951452
30
0
10
33.339298852746481
20
71.734291934474157
30
0
0
LINE
5
321
100
AcDbEntity
8
0
100
AcDbLine
10
33.339298852746481
20
71.734291934474157
30
0
11
33.099869378869528
21
73.126514577372717
31
0
0
SPLINE
5
322
100
AcDbEntity
8
0
100
AcDbSpline
70
0
71
2
72
6
73
3
74
0
42
0.000000001
43
0.0000000001
44
0.0000000001
40
0
40
0
40
0
40
1
40
1
40
1
10
33.099869378869528
20
73.126514577372717
30
0
10
32.603272088830465
20
73.037838363154577
30
0
10
32.159889825646871
20
73.037838363154577
30
0
0
SPLINE
5
323
100
AcDbEntity
8
0
100
AcDbSpline
70
0
71
2
72
6
73
3
74
0
42
0.000000001
43
0.0000000001
44
0.0000000001
40
0
40
0
40
0
40
1
40
1
40
1
10
32.159889825646871
20
73.037838363154577
30
0
10
31.432751306359759
20
73.037838363154577
30
0
10
31.131237634484759
20
73.348206901057409
30
0
0
SPLINE
5
324
100
AcDbEntity
8
0
100
AcDbSpline
70
0
71
2
72
6
73
3
74
0
42
0.000000001
43
0.0000000001
44
0.0000000001
40
0
40
0
40
0
40
1
40
1
40
1
10
31.131237634484759
20
73.348206901057409
30
0
10
30.829743036096087
20
73.658575438960241
30
0
10
30.829743036096087
20
74.509871625407385
30
0
0
LINE
5
325
100
AcDbEntity
8
0
100
AcDbLine
10
30.829743036096087
20
74.509871625407385
30
0
11
30.829743036096087
21
75.378902577860998
31
0
0
LINE
5
326
100
AcDbEntity
8
0
100
AcDbLine
10
30.829743036096087
20
75.378902577860998
30
0
11
32.665356286828512
21
75.378902577860998
31
0
0
LINE
5
327
100
AcDbEntity
8
0
100
AcDbLine
10
32.665356286828512
20
75.378902577860998
30
0
11
32.665356286828512
21
76.620376729472326
31
0
0
LINE
5
328
100
AcDbEntity
8
0
100
AcDbLine
10
32.665356286828512
20
76.620376729472326
30
0
11
30.829743036096087
21
76.620376729472326
31
0
0
LINE
5
329
100
AcDbEntity
8
0
100
AcDbLine
10
30.829743036096087
20
76.620376729472326
30
0
11
30.829743036096087
21
84.796364926798987
31
0
0
LINE
5
330
100
AcDbEntity
8
0
100
AcDbLine
10
30.829743036096087
20
84.796364926798987
30
0
11
29.242428430383196
21
84.796364926798987
31
0
0
SPLINE
5
331
100
AcDbEntity
8
0
100
AcDbSpline
70
0
71
2
72
6
73
3
74
0
42
0.000000001
43
0.0000000001
44
0.0000000001
40
0
40
0
40
0
40
1
40
1
40
1
10
40.052116998498434
20
83.634701394541906
30
0
10
39.165352472131246
20
84.388452195628332
30
0
10
38.345097192590231
20
84.698820733531164
30
0
0
SPLINE
5
332
100
AcDbEntity
8
0
100
AcDbSpline
70
0
71
2
72
6
73
3
74
0
42
0.000000001
43
0.0000000001
44
0.0000000001
40
0
40
0
40
0
40
1
40
1
40
1
10
38.345097192590231
20
84.698820733531164
30
0
10
37.524841913049215
20
85.009189271433996
30
0
10
36.584862359826559
20
85.009189271433996
30
0
0
SPLINE
5
333
100
AcDbEntity
8
0
100
AcDbSpline
70
0
71
2
72
6
73
3
74
0
42
0.000000001
43
0.0000000001
44
0.0000000001
40
0
40
0
40
0
40
1
40
1
40
1
10
36.584862359826559
20
85.009189271433996
30
0
10
35.033024438683981
20
85.009189271433996
30
0
10
34.199455865685934
20
84.251003884776281
30
0
0
SPLINE
5
334
100
AcDbEntity
8
0
100
AcDbSpline
70
0
71
2
72
6
73
3
74
0
42
0.000000001
43
0.0000000001
44
0.0000000001
40
0
40
0
40
0
40
1
40
1
40
1
10
34.199455865685934
20
84.251003884776281
30
0
10
33.365906366174215
20
83.492818498118567
30
0
10
33.365906366174215
20
82.313417815669226
30
0
0
SPLINE
5
335
100
AcDbEntity
8
0
100
AcDbSpline
70
0
71
2
72
6
73
3
74
0
42
0.000000001
43
0.0000000001
44
0.0000000001
40
0
40
0
40
0
40
1
40
1
40
1
10
33.365906366174215
20
82.313417815669226
30
0
10
33.365906366174215
20
81.621740483744787
30
0
10
33.68069518453359
20
81.049775504573034
30
0
0
SPLINE
5
336
100
AcDbEntity
8
0
100
AcDbSpline
70
0
71
2
72
6
73
3
74
0
42
0.000000001
43
0.0000000001
44
0.0000000001
40
0
40
0
40
0
40
1
40
1
40
1
10
33.68069518453359
20
81.049775504573034
30
0
10
33.995503076379293
20
80.477810525401281
30
0
10
34.505394586389059
20
80.13197245548551
30
0
0
SPLINE
5
337
100
AcDbEntity
8
0
100
AcDbSpline
70
0
71
2
72
6
73
3
74
0
42
0.000000001
43
0.0000000001
44
0.0000000001
40
0
40
0
40
0
40
1
40
1
40
1
10
34.505394586389059
20
80.13197245548551
30
0
10
35.015286096398825
20
79.786132001383947
30
0
10
35.653751977746481
20
79.608779572947668
30
0
0
SPLINE
5
338
100
AcDbEntity
8
0
100
AcDbSpline
70
0
71
2
72
6
73
3
74
0
42
0.000000001
43
0.0000000001
44
0.0000000001
40
0
40
0
40
0
40
1
40
1
40
1
10
35.653751977746481
20
79.608779572947668
30
0
10
36.123741754357809
20
79.484632634623694
30
0
10
37.072590478723043
20
79.369352483256506
30
0
0
SPLINE
5
339
100
AcDbEntity
8
0
100
AcDbSpline
70
0
71
2
72
6
73
3
74
0
42
0.000000001
43
0.0000000001
44
0.0000000001
40
0
40
0
40
0
40
1
40
1
40
1
10
37.072590478723043
20
79.369352483256506
30
0
10
39.005745538537496
20
79.138793372615027
30
0
10
39.91909850484609
20
78.819556855662512
30
0
0
SPLINE
5
340
100
AcDbEntity
8
0
100
AcDbSpline
70
0
71
2
72
6
73
3
74
0
42
0.000000001
43
0.0000000001
44
0.0000000001
40
0
40
0
40
0
40
1
40
1
40
1
10
39.91909850484609
20
78.819556855662512
30
0
10
39.927967675988668
20
78.49145355175321
30
0
10
39.927967675988668
20
78.402777337535071
30
0
0
SPLINE
5
341
100
AcDbEntity
8
0
100
AcDbSpline
70
0
71
2
72
6
73
3
74
0
42
0.000000001
43
0.0000000001
44
0.0000000001
40
0
40
0
40
0
40
1
40
1
40
1
10
39.927967675988668
20
78.402777337535071
30
0
10
39.927967675988668
20
77.427333020671057
30
0
10
39.475716241662496
20
77.028288268550085
30
0
0
SPLINE
5
342
100
AcDbEntity
8
0
100
AcDbSpline
70
0
71
2
72
6
73
3
74
0
42
0.000000001
43
0.0000000001
44
0.0000000001
40
0
40
0
40
0
40
1
40
1
40
1
10
39.475716241662496
20
77.028288268550085
30
0
10
38.863857873742575
20
76.487360620005774
30
0
10
37.657860406701559
20
76.487360620005774
30
0
0
SPLINE
5
343
100
AcDbEntity
8
0
100
AcDbSpline
70
0
71
2
72
6
73
3
74
0
42
0.000000001
43
0.0000000001
44
0.0000000001
40
0
40
0
40
0
40
1
40
1
40
1
10
37.657860406701559
20
76.487360620005774
30
0
10
36.531666406457418
20
76.487360620005774
30
0
10
35.995167383019918
20
76.881971978648352
30
0
0
SPLINE
5
344
100
AcDbEntity
8
0
100
AcDbSpline
70
0
71
2
72
6
73
3
74
0
42
0.000000001
43
0.0000000001
44
0.0000000001
40
0
40
0
40
0
40
1
40
1
40
1
10
35.995167383019918
20
76.881971978648352
30
0
10
35.458668359582418
20
77.27658333729093
30
0
10
35.201500543420309
20
78.2786292071182
30
0
0
LINE
5
345
100
AcDbEntity
8
0
100
AcDbLine
10
35.201500543420302
20
78.2786292071182
30
0
11
33.640793451135153
21
78.065806054576086
31
0
0
SPLINE
5
346
100
AcDbEntity
8
0
100
AcDbSpline
70
0
71
2
72
6
73
3
74
0
42
0.000000001
43
0.0000000001
44
0.0000000001
40
0
40
0
40
0
40
1
40
1
40
1
10
33.640793451135153
20
78.065806054576086
30
0
10
33.853615411584371
20
77.06375899265592
30
0
10
34.341343530480856
20
76.447456502421545
30
0
0
SPLINE
5
347
100
AcDbEntity
8
0
100
AcDbSpline
70
0
71
2
72
6
73
3
74
0
42
0.000000001
43
0.0000000001
44
0.0000000001
40
0
40
0
40
0
40
1
40
1
40
1
10
34.341343530480856
20
76.447456502421545
30
0
10
34.82907164937734
20
75.83115401218717
30
0
10
35.75131286031484
20
75.498614930613684
30
0
0
SPLINE
5
348
100
AcDbEntity
8
0
100
AcDbSpline
70
0
71
2
72
6
73
3
74
0
42
0.000000001
43
0.0000000001
44
0.0000000001
40
0
40
0
40
0
40
1
40
1
40
1
10
35.75131286031484
20
75.498614930613684
30
0
10
36.673534997766012
20
75.166078233225988
30
0
10
37.888420709435934
20
75.166078233225988
30
0
0
SPLINE
5
349
100
AcDbEntity
8
0
100
AcDbSpline
70
0
71
2
72
6
73
3
74
0
42
0.000000001
43
0.0000000001
44
0.0000000001
40
0
40
0
40
0
40
1
40
1
40
1
10
37.888420709435934
20
75.166078233225988
30
0
10
39.09441817647695
20
75.166078233225988
30
0
10
39.848164209191793
20
75.449844026072668
30
0
0
SPLINE
5
350
100
AcDbEntity
8
0
100
AcDbSpline
70
0
71
2
72
6
73
3
74
0
42
0.000000001
43
0.0000000001
44
0.0000000001
40
0
40
0
40
0
40
1
40
1
40
1
10
39.848164209191793
20
75.449844026072668
30
0
10
40.601910241906637
20
75.733609818919348
30
0
10
40.956619867150778
20
76.163690709574865
30
0
0
SPLINE
5
351
100
AcDbEntity
8
0
100
AcDbSpline
70
0
71
2
72
6
73
3
74
0
42
0.000000001
43
0.0000000001
44
0.0000000001
40
0
40
0
40
0
40
1
40
1
40
1
10
40.956619867150778
20
76.163690709574865
30
0
10
41.311329492394918
20
76.593772792323279
30
0
10
41.45321715718984
20
77.249980592234778
30
0
0
SPLINE
5
352
100
AcDbEntity
8
0
100
AcDbSpline
70
0
71
2
72
6
73
3
74
0
42
0.000000001
43
0.0000000001
44
0.0000000001
40
0
40
0
40
0
40
1
40
1
40
1
10
41.45321715718984
20
77.249980592234778
30
0
10
41.533020623986715
20
77.657893323405432
30
0
10
41.533020623986715
20
78.72201266239469
30
0
0
LINE
5
353
100
AcDbEntity
8
0
100
AcDbLine
10
41.533020623986715
20
78.72201266239469
30
0
11
41.533020623986715
21
80.850253724558996
31
0
0
SPLINE
5
354
100
AcDbEntity
8
0
100
AcDbSpline
70
0
71
2
72
6
73
3
74
0
42
0.000000001
43
0.0000000001
44
0.0000000001
40
0
40
0
40
0
40
1
40
1
40
1
10
41.533020623986715
20
80.850253724558996
30
0
10
41.533020623986715
20
83.076036595805334
30
0
10
41.6350065553832
20
83.665736340983557
30
0
0
SPLINE
5
355
100
AcDbEntity
8
0
100
AcDbSpline
70
0
71
2
72
6
73
3
74
0
42
0.000000001
43
0.0000000001
44
0.0000000001
40
0
40
0
40
0
40
1
40
1
40
1
10
41.6350065553832
20
83.665736340983557
30
0
10
41.736973413293356
20
84.255436086161779
30
0
10
42.038487085168356
20
84.796364926798987
30
0
0
LINE
5
356
100
AcDbEntity
8
0
100
AcDbLine
10
42.038487085168356
20
84.796364926799001
30
0
11
40.371349939172262
21
84.796364926798987
31
0
0
SPLINE
5
357
100
AcDbEntity
8
0
100
AcDbSpline
70
0
71
2
72
6
73
3
74
0
42
0.000000001
43
0.0000000001
44
0.0000000001
40
0
40
0
40
0
40
1
40
1
40
1
10
40.371349939172262
20
84.796364926798987
30
0
10
40.123070367639059
20
84.299774789317297
30
0
10
40.052116998498434
20
83.634701394541906
30
0
0
SPLINE
5
358
100
AcDbEntity
8
0
100
AcDbSpline
70
0
71
2
72
6
73
3
74
0
42
0.000000001
43
0.0000000001
44
0.0000000001
40
0
40
0
40
0
40
1
40
1
40
1
10
39.91909850484609
20
80.069897794230627
30
0
10
39.050072320764059
20
80.424605035288977
30
0
10
37.312019952599996
20
80.672900104029821
30
0
0
SPLINE
5
359
100
AcDbEntity
8
0
100
AcDbSpline
70
0
71
2
72
6
73
3
74
0
42
0.000000001
43
0.0000000001
44
0.0000000001
40
0
40
0
40
0
40
1
40
1
40
1
10
37.312019952599996
20
80.672900104029821
30
0
10
36.32769454366445
20
80.814781808360266
30
0
10
35.919788965051168
20
80.992135428889441
30
0
0
SPLINE
5
360
100
AcDbEntity
8
0
100
AcDbSpline
70
0
71
2
72
6
73
3
74
0
42
0.000000001
43
0.0000000001
44
0.0000000001
40
0
40
0
40
0
40
1
40
1
40
1
10
35.919788965051168
20
80.992135428889441
30
0
10
35.511883386437887
20
81.169489049418615
30
0
10
35.29019225484609
20
81.510894917948889
30
0
0
SPLINE
5
361
100
AcDbEntity
8
0
100
AcDbSpline
70
0
71
2
72
6
73
3
74
0
42
0.000000001
43
0.0000000001
44
0.0000000001
40
0
40
0
40
0
40
1
40
1
40
1
10
35.29019225484609
20
81.510894917948889
30
0
10
35.068501123254293
20
81.852299594386267
30
0
10
35.068501123254293
20
82.269080304606604
30
0
0
SPLINE
5
362
100
AcDbEntity
8
0
100
AcDbSpline
70
0
71
2
72
6
73
3
74
0
42
0.000000001
43
0.0000000001
44
0.0000000001
40
0
40
0
40
0
40
1
40
1
40
1
10
35.068501123254293
20
82.269080304606604
30
0
10
35.068501123254293
20
82.907550954325842
30
0
10
35.551785119836325
20
83.333199643595862
30
0
0
SPLINE
5
363
100
AcDbEntity
8
0
100
AcDbSpline
70
0
71
2
72
6
73
3
74
0
42
0.000000001
43
0.0000000001
44
0.0000000001
40
0
40
0
40
0
40
1
40
1
40
1
10
35.551785119836325
20
83.333199643595862
30
0
10
36.035069116418356
20
83.758848332865881
30
0
10
36.966179498498434
20
83.758848332865881
30
0
0
SPLINE
5
364
100
AcDbEntity
8
0
100
AcDbSpline
70
0
71
2
72
6
73
3
74
0
42
0.000000001
43
0.0000000001
44
0.0000000001
40
0
40
0
40
0
40
1
40
1
40
1
10
36.966179498498434
20
83.758848332865881
30
0
10
37.888420709435934
20
83.758848332865881
30
0
10
38.606690057580465
20
83.355370187266516
30
0
0
SPLINE
5
365
100
AcDbEntity
8
0
100
AcDbSpline
70
0
71
2
72
6
73
3
74
0
42
0.000000001
43
0.0000000001
44
0.0000000001
40
0
40
0
40
0
40
1
40
1
40
1
10
38.606690057580465
20
83.355370187266516
30
0
10
39.324978479211325
20
82.95188965748136
30
0
10
39.661949762170309
20
82.251344346507238
30
0
0
SPLINE
5
366
100
AcDbEntity
8
0
100
AcDbSpline
70
0
71
2
72
6
73
3
74
0
42
0.000000001
43
0.0000000001
44
0.0000000001
40
0
40
0
40
0
40
1
40
1
40
1
10
39.661949762170309
20
82.251344346507238
30
0
10
39.91909850484609
20
81.710416697962927
30
0
10
39.91909850484609
20
80.655164145930456
30
0
0
LINE
5
367
100
AcDbEntity
8
0
100
AcDbLine
10
39.91909850484609
20
80.655164145930456
30
0
11
39.91909850484609
21
80.069897794230627
31
0
0
LINE
5
368
100
AcDbEntity
8
0
100
AcDbLine
10
50.152386316125387
20
81.34684266994779
30
0
11
51.721962579553121
21
81.550799035533117
31
0
0
SPLINE
5
369
100
AcDbEntity
8
0
100
AcDbSpline
70
0
71
2
72
6
73
3
74
0
42
0.000000001
43
0.0000000001
44
0.0000000001
40
0
40
0
40
0
40
1
40
1
40
1
10
51.721962579553121
20
81.550799035533117
30
0
10
51.46481383687734
20
83.173580789073156
30
0
10
50.405129083459371
20
84.091385030253576
30
0
0
SPLINE
5
370
100
AcDbEntity
8
0
100
AcDbSpline
70
0
71
2
72
6
73
3
74
0
42
0.000000001
43
0.0000000001
44
0.0000000001
40
0
40
0
40
0
40
1
40
1
40
1
10
50.405129083459371
20
84.091385030253576
30
0
10
49.345425256555075
20
85.009189271433996
30
0
10
47.802456506555075
20
85.009189271433996
30
0
0
SPLINE
5
371
100
AcDbEntity
8
0
100
AcDbSpline
70
0
71
2
72
6
73
3
74
0
42
0.000000001
43
0.0000000001
44
0.0000000001
40
0
40
0
40
0
40
1
40
1
40
1
10
47.802456506555075
20
85.009189271433996
30
0
10
45.869301446740621
20
85.009189271433996
30
0
10
44.694336541955465
20
83.745546960337805
30
0
0
SPLINE
5
372
100
AcDbEntity
8
0
100
AcDbSpline
70
0
71
2
72
6
73
3
74
0
42
0.000000001
43
0.0000000001
44
0.0000000001
40
0
40
0
40
0
40
1
40
1
40
1
10
44.694336541955465
20
83.745546960337805
30
0
10
43.519371637170309
20
82.481904649241613
30
0
10
43.519371637170309
20
80.123104476435827
30
0
0
SPLINE
5
373
100
AcDbEntity
8
0
100
AcDbSpline
70
0
71
2
72
6
73
3
74
0
42
0.000000001
43
0.0000000001
44
0.0000000001
40
0
40
0
40
0
40
1
40
1
40
1
10
43.519371637170309
20
80.123104476435827
30
0
10
43.519371637170309
20
78.597865724070715
30
0
10
44.02483809835195
20
77.453935765727209
30
0
0
SPLINE
5
374
100
AcDbEntity
8
0
100
AcDbSpline
70
0
71
2
72
6
73
3
74
0
42
0.000000001
43
0.0000000001
44
0.0000000001
40
0
40
0
40
0
40
1
40
1
40
1
10
44.02483809835195
20
77.453935765727209
30
0
10
44.530285486047262
20
76.310006999476599
30
0
10
45.563381799523825
20
75.738042020304846
30
0
0
SPLINE
5
375
100
AcDbEntity
8
0
100
AcDbSpline
70
0
71
2
72
6
73
3
74
0
42
0.000000001
43
0.0000000001
44
0.0000000001
40
0
40
0
40
0
40
1
40
1
40
1
10
45.563381799523825
20
75.738042020304846
30
0
10
46.596459039514059
20
75.166078233225988
30
0
10
47.811325677697653
20
75.166078233225988
30
0
0
SPLINE
5
376
100
AcDbEntity
8
0
100
AcDbSpline
70
0
71
2
72
6
73
3
74
0
42
0.000000001
43
0.0000000001
44
0.0000000001
40
0
40
0
40
0
40
1
40
1
40
1
10
47.811325677697653
20
75.166078233225988
30
0
10
49.345425256555075
20
75.166078233225988
30
0
10
50.320881494348043
20
75.941999577983069
30
0
0
SPLINE
5
377
100
AcDbEntity
8
0
100
AcDbSpline
70
0
71
2
72
6
73
3
74
0
42
0.000000001
43
0.0000000001
44
0.0000000001
40
0
40
0
40
0
40
1
40
1
40
1
10
50.320881494348043
20
75.941999577983069
30
0
10
51.296318658654684
20
76.717919730647253
30
0
10
51.57122481710195
20
78.145614289744543
30
0
0
LINE
5
378
100
AcDbEntity
8
0
100
AcDbLine
10
51.57122481710195
20
78.145614289744543
30
0
11
50.019367822473043
21
78.385041379435705
31
0
0
SPLINE
5
379
100
AcDbEntity
8
0
100
AcDbSpline
70
0
71
2
72
6
73
3
74
0
42
0.000000001
43
0.0000000001
44
0.0000000001
40
0
40
0
40
0
40
1
40
1
40
1
10
50.019367822473043
20
78.385041379435705
30
0
10
49.797676690881246
20
77.436200999720739
30
0
10
49.23458922750234
20
76.957346820338415
30
0
0
SPLINE
5
380
100
AcDbEntity
8
0
100
AcDbSpline
70
0
71
2
72
6
73
3
74
0
42
0.000000001
43
0.0000000001
44
0.0000000001
40
0
40
0
40
0
40
1
40
1
40
1
10
49.23458922750234
20
76.957346820338415
30
0
10
48.671482690637106
20
76.478493833048987
30
0
10
47.8734098756957
20
76.478493833048987
30
0
0
SPLINE
5
381
100
AcDbEntity
8
0
100
AcDbSpline
70
0
71
2
72
6
73
3
74
0
42
0.000000001
43
0.0000000001
44
0.0000000001
40
0
40
0
40
0
40
1
40
1
40
1
10
47.8734098756957
20
76.478493833048987
30
0
10
46.667393335168356
20
76.478493833048987
30
0
10
45.913647302453512
20
77.343090199931311
30
0
0
SPLINE
5
382
100
AcDbEntity
8
0
100
AcDbSpline
70
0
71
2
72
6
73
3
74
0
42
0.000000001
43
0.0000000001
44
0.0000000001
40
0
40
0
40
0
40
1
40
1
40
1
10
45.913647302453512
20
77.343090199931311
30
0
10
45.159901269738668
20
78.20768775890653
30
0
10
45.159901269738668
20
80.07876577328031
30
0
0
SPLINE
5
383
100
AcDbEntity
8
0
100
AcDbSpline
70
0
71
2
72
6
73
3
74
0
42
0.000000001
43
0.0000000001
44
0.0000000001
40
0
40
0
40
0
40
1
40
1
40
1
10
45.159901269738668
20
80.07876577328031
30
0
10
45.159901269738668
20
81.976446532710241
30
0
10
45.887039789025778
20
82.836609506114172
30
0
0
SPLINE
5
384
100
AcDbEntity
8
0
100
AcDbSpline
70
0
71
2
72
6
73
3
74
0
42
0.000000001
43
0.0000000001
44
0.0000000001
40
0
40
0
40
0
40
1
40
1
40
1
10
45.887039789025778
20
82.836609506114172
30
0
10
46.614197381799215
20
83.696773671610998
30
0
10
47.784718164269918
20
83.696773671610998
30
0
0
SPLINE
5
385
100
AcDbEntity
8
0
100
AcDbSpline
70
0
71
2
72
6
73
3
74
0
42
0.000000001
43
0.0000000001
44
0.0000000001
40
0
40
0
40
0
40
1
40
1
40
1
10
47.784718164269918
20
83.696773671610998
30
0
10
48.724697717492575
20
83.696773671610998
30
0
10
49.354294427697653
20
83.120375298960852
30
0
0
SPLINE
5
386
100
AcDbEntity
8
0
100
AcDbSpline
70
0
71
2
72
6
73
3
74
0
42
0.000000001
43
0.0000000001
44
0.0000000001
40
0
40
0
40
0
40
1
40
1
40
1
10
49.354294427697653
20
83.120375298960852
30
0
10
49.983910211389059
20
82.543976926310705
30
0
10
50.152386316125387
20
81.34684266994779
30
0
0
LINE
5
387
100
AcDbEntity
8
0
100
AcDbLine
10
59.534386285607809
20
81.763623380168127
30
0
11
61.183785089318746
21
81.967578553660559
31
0
0
SPLINE
5
388
100
AcDbEntity
8
0
100
AcDbSpline
70
0
71
2
72
6
73
3
74
0
42
0.000000001
43
0.0000000001
44
0.0000000001
40
0
40
0
40
0
40
1
40
1
40
1
10
61.183785089318746
20
81.967578553660559
30
0
10
60.793598779504293
20
83.413007878764319
30
0
10
59.73833907491445
20
84.211099767192053
30
0
0
SPLINE
5
389
100
AcDbEntity
8
0
100
AcDbSpline
70
0
71
2
72
6
73
3
74
0
42
0.000000001
43
0.0000000001
44
0.0000000001
40
0
40
0
40
0
40
1
40
1
40
1
10
59.73833907491445
20
84.211099767192053
30
0
10
58.683098443810934
20
85.009189271433996
30
0
10
57.042568811242575
20
85.009189271433996
30
0
0
SPLINE
5
390
100
AcDbEntity
8
0
100
AcDbSpline
70
0
71
2
72
6
73
3
74
0
42
0.000000001
43
0.0000000001
44
0.0000000001
40
0
40
0
40
0
40
1
40
1
40
1
10
57.042568811242575
20
85.009189271433996
30
0
10
54.976414331262106
20
85.009189271433996
30
0
10
53.765972741906637
20
83.736677789195227
30
0
0
SPLINE
5
391
100
AcDbEntity
8
0
100
AcDbSpline
70
0
71
2
72
6
73
3
74
0
42
0.000000001
43
0.0000000001
44
0.0000000001
40
0
40
0
40
0
40
1
40
1
40
1
10
53.765972741906637
20
83.736677789195227
30
0
10
52.555531152551168
20
82.464168691142248
30
0
10
52.555531152551168
20
80.167443179591345
30
0
0
SPLINE
5
392
100
AcDbEntity
8
0
100
AcDbSpline
70
0
71
2
72
6
73
3
74
0
42
0.000000001
43
0.0000000001
44
0.0000000001
40
0
40
0
40
0
40
1
40
1
40
1
10
52.555531152551168
20
80.167443179591345
30
0
10
52.555531152551168
20
77.790907048686194
30
0
10
53.77926696187734
20
76.478493833048987
30
0
0
SPLINE
5
393
100
AcDbEntity
8
0
100
AcDbSpline
70
0
71
2
72
6
73
3
74
0
42
0.000000001
43
0.0000000001
44
0.0000000001
40
0
40
0
40
0
40
1
40
1
40
1
10
53.77926696187734
20
76.478493833048987
30
0
10
55.003002771203512
20
75.166078233225988
30
0
10
56.953896173303121
20
75.166078233225988
30
0
0
SPLINE
5
394
100
AcDbEntity
8
0
100
AcDbSpline
70
0
71
2
72
6
73
3
74
0
42
0.000000001
43
0.0000000001
44
0.0000000001
40
0
40
0
40
0
40
1
40
1
40
1
10
56.953896173303121
20
75.166078233225988
30
0
10
58.842705377404684
20
75.166078233225988
30
0
10
60.03985274678945
20
76.451889895899939
30
0
0
SPLINE
5
395
100
AcDbEntity
8
0
100
AcDbSpline
70
0
71
2
72
6
73
3
74
0
42
0.000000001
43
0.0000000001
44
0.0000000001
40
0
40
0
40
0
40
1
40
1
40
1
10
60.03985274678945
20
76.451889895899939
30
0
10
61.236981042687887
20
77.737701558573889
30
0
10
61.236981042687887
20
80.069897794230627
30
0
0
SPLINE
5
396
100
AcDbEntity
8
0
100
AcDbSpline
70
0
71
2
72
6
73
3
74
0
42
0.000000001
43
0.0000000001
44
0.0000000001
40
0
40
0
40
0
40
1
40
1
40
1
10
61.236981042687887
20
80.069897794230627
30
0
10
61.236981042687887
20
80.211780690653967
30
0
10
61.228111871545309
20
80.495546483500647
30
0
0
LINE
5
397
100
AcDbEntity
8
0
100
AcDbLine
10
61.228111871545309
20
80.495546483500647
30
0
11
54.204929956262106
21
80.495546483500647
31
0
0
SPLINE
5
398
100
AcDbEntity
8
0
100
AcDbSpline
70
0
71
2
72
6
73
3
74
0
42
0.000000001
43
0.0000000001
44
0.0000000001
40
0
40
0
40
0
40
1
40
1
40
1
10
54.204929956262106
20
80.495546483500647
30
0
10
54.293602594201559
20
82.047387980921911
30
0
10
55.082825311486715
20
82.872081422312903
30
0
0
SPLINE
5
399
100
AcDbEntity
8
0
100
AcDbSpline
70
0
71
2
72
6
73
3
74
0
42
0.000000001
43
0.0000000001
44
0.0000000001
40
0
40
0
40
0
40
1
40
1
40
1
10
55.082825311486715
20
82.872081422312903
30
0
10
55.872048028771871
20
83.696773671610998
30
0
10
57.051437982385153
20
83.696773671610998
30
0
0
SPLINE
5
400
100
AcDbEntity
8
0
100
AcDbSpline
70
0
71
2
72
6
73
3
74
0
42
0.000000001
43
0.0000000001
44
0.0000000001
40
0
40
0
40
0
40
1
40
1
40
1
10
57.051437982385153
20
83.696773671610998
30
0
10
57.929333337609762
20
83.696773671610998
30
0
10
58.55007995015859
20
83.235655450328039
30
0
0
SPLINE
5
401
100
AcDbEntity
8
0
100
AcDbSpline
70
0
71
2
72
6
73
3
74
0
42
0.000000001
43
0.0000000001
44
0.0000000001
40
0
40
0
40
0
40
1
40
1
40
1
10
58.55007995015859
20
83.235655450328039
30
0
10
59.17080748922109
20
82.77453722904508
30
0
10
59.534386285607809
20
81.763623380168127
30
0
0
LINE
5
402
100
AcDbEntity
8
0
100
AcDbLine
10
54.293602594201559
20
79.183130883677649
30
0
11
59.552124627892965
21
79.183130883677649
31
0
0
SPLINE
5
403
100
AcDbEntity
8
0
100
AcDbSpline
70
0
71
2
72
6
73
3
74
0
42
0.000000001
43
0.0000000001
44
0.0000000001
40
0
40
0
40
0
40
1
40
1
40
1
10
59.552124627892965
20
79.183130883677649
30
0
10
59.445713647668356
20
77.994864606364416
30
0
10
58.949116357629293
20
77.400730275614904
30
0
0
SPLINE
5
404
100
AcDbEntity
8
0
100
AcDbSpline
70
0
71
2
72
6
73
3
74
0
42
0.000000001
43
0.0000000001
44
0.0000000001
40
0
40
0
40
0
40
1
40
1
40
1
10
58.949116357629293
20
77.400730275614904
30
0
10
58.186501153771871
20
76.478493833048987
30
0
10
56.971634515588278
20
76.478493833048987
30
0
0
SPLINE
5
405
100
AcDbEntity
8
0
100
AcDbSpline
70
0
71
2
72
6
73
3
74
0
42
0.000000001
43
0.0000000001
44
0.0000000001
40
0
40
0
40
0
40
1
40
1
40
1
10
56.971634515588278
20
76.478493833048987
30
0
10
55.872048028771871
20
76.478493833048987
30
0
10
55.122727044885153
20
77.214508676036047
30
0
0
SPLINE
5
406
100
AcDbEntity
8
0
100
AcDbSpline
70
0
71
2
72
6
73
3
74
0
42
0.000000001
43
0.0000000001
44
0.0000000001
40
0
40
0
40
0
40
1
40
1
40
1
10
55.122727044885153
20
77.214508676036047
30
0
10
54.373406060998434
20
77.950525903208899
30
0
10
54.293602594201559
20
79.183130883677649
30
0
0
LINE
5
407
100
AcDbEntity
8
0
100
AcDbLine
10
-62.799511215622424
20
-71.053634024159294
30
0
11
-62.799511215622424
21
-84.053633547322136
31
0
0
LINE
5
408
100
AcDbEntity
8
0
100
AcDbLine
10
-62.799511215622424
20
-84.053633547322136
30
0
11
-61.079184076721667
21
-84.053633547322136
31
0
0
LINE
5
409
100
AcDbEntity
8
0
100
AcDbLine
10
-61.079184076721667
20
-84.053633547322136
30
0
11
-61.079184076721667
21
-77.606840467945915
31
0
0
LINE
5
410
100
AcDbEntity
8
0
100
AcDbLine
10
-61.079184076721667
20
-77.606840467945915
30
0
11
-54.623523018295764
21
-84.053633547322136
31
0
0
LINE
5
411
100
AcDbEntity
8
0
100
AcDbLine
10
-54.623523018295764
20
-84.053633547322136
30
0
11
-52.29132559054613
21
-84.053633547322136
31
0
0
LINE
5
412
100
AcDbEntity
8
0
100
AcDbLine
10
-52.29132559054613
20
-84.053633547322136
30
0
11
-57.744940779144763
21
-78.78623995830236
31
0
0
LINE
5
413
100
AcDbEntity
8
0
100
AcDbLine
10
-57.744940779144763
20
-78.78623995830236
30
0
11
-52.051898500854968
21
-71.053634024159294
31
0
0
LINE
5
414
100
AcDbEntity
8
0
100
AcDbLine
10
-52.051898500854968
20
-71.053634024159294
30
0
11
-54.322021267349719
21
-71.053634024159294
31
0
0
LINE
5
415
100
AcDbEntity
8
0
100
AcDbLine
10
-54.322021267349719
20
-71.053634024159294
30
0
11
-58.950944206650256
21
-77.633443213002067
31
0
0
LINE
5
416
100
AcDbEntity
8
0
100
AcDbLine
10
-58.950944206650256
20
-77.633443213002067
30
0
11
-61.079184076721667
21
-75.558410025135856
31
0
0
LINE
5
417
100
AcDbEntity
8
0
100
AcDbLine
10
-61.079184076721667
20
-75.558410025135856
30
0
11
-61.079184076721667
21
-71.053634024159294
31
0
0
LINE
5
418
100
AcDbEntity
8
0
100
AcDbLine
10
-61.079184076721667
20
-71.053634024159294
30
0
11
-62.799511215622424
21
-71.053634024159294
31
0
0
SPLINE
5
419
100
AcDbEntity
8
0
100
AcDbSpline
70
0
71
2
72
6
73
3
74
0
42
0.000000001
43
0.0000000001
44
0.0000000001
40
0
40
0
40
0
40
1
40
1
40
1
10
-51.413427851135729
20
-75.762365198628288
30
0
10
-51.413427851135729
20
-78.378327227131706
30
0
10
-49.959130546982287
20
-79.637536144749504
30
0
0
SPLINE
5
420
100
AcDbEntity
8
0
100
AcDbSpline
70
0
71
2
72
6
73
3
74
0
42
0.000000001
43
0.0000000001
44
0.0000000001
40
0
40
0
40
0
40
1
40
1
40
1
10
-49.959130546982287
20
-79.637536144749504
30
0
10
-48.744260332520007
20
-80.683920717732292
30
0
10
-46.997329256470202
20
-80.683920717732292
30
0
0
SPLINE
5
421
100
AcDbEntity
8
0
100
AcDbSpline
70
0
71
2
72
6
73
3
74
0
42
0.000000001
43
0.0000000001
44
0.0000000001
40
0
40
0
40
0
40
1
40
1
40
1
10
-46.997329256470202
20
-80.683920717732292
30
0
10
-45.055309793884753
20
-80.683920717732292
30
0
10
-43.822704813416003
20
-79.411410427586418
30
0
0
SPLINE
5
422
100
AcDbEntity
8
0
100
AcDbSpline
70
0
71
2
72
6
73
3
74
0
42
0.000000001
43
0.0000000001
44
0.0000000001
40
0
40
0
40
0
40
1
40
1
40
1
10
-43.822704813416003
20
-79.411410427586418
30
0
10
-42.590099832947253
20
-78.138900137440544
30
0
10
-42.590099832947253
20
-75.895381308094841
30
0
0
SPLINE
5
423
100
AcDbEntity
8
0
100
AcDbSpline
70
0
71
2
72
6
73
3
74
0
42
0.000000001
43
0.0000000001
44
0.0000000001
40
0
40
0
40
0
40
1
40
1
40
1
10
-42.590099832947253
20
-75.895381308094841
30
0
10
-42.590099832947253
20
-74.077508783833366
30
0
10
-43.135460874969958
20
-73.035557604328972
30
0
0
SPLINE
5
424
100
AcDbEntity
8
0
100
AcDbSpline
70
0
71
2
72
6
73
3
74
0
42
0.000000001
43
0.0000000001
44
0.0000000001
40
0
40
0
40
0
40
1
40
1
40
1
10
-43.135460874969958
20
-73.035557604328972
30
0
10
-43.680821916992663
20
-71.993606424824577
30
0
10
-44.722773096497058
20
-71.417208052174431
30
0
0
SPLINE
5
425
100
AcDbEntity
8
0
100
AcDbSpline
70
0
71
2
72
6
73
3
74
0
42
0.000000001
43
0.0000000001
44
0.0000000001
40
0
40
0
40
0
40
1
40
1
40
1
10
-44.722773096497058
20
-71.417208052174431
30
0
10
-45.764724276001452
20
-70.840809679524284
30
0
10
-46.997329256470202
20
-70.840809679524284
30
0
0
SPLINE
5
426
100
AcDbEntity
8
0
100
AcDbSpline
70
0
71
2
72
6
73
3
74
0
42
0.000000001
43
0.0000000001
44
0.0000000001
40
0
40
0
40
0
40
1
40
1
40
1
10
-46.997329256470202
20
-70.840809679524284
30
0
10
-48.974818251068591
20
-70.840809679524284
30
0
10
-50.194124243195056
20
-72.108886576191765
30
0
0
SPLINE
5
427
100
AcDbEntity
8
0
100
AcDbSpline
70
0
71
2
72
6
73
3
74
0
42
0.000000001
43
0.0000000001
44
0.0000000001
40
0
40
0
40
0
40
1
40
1
40
1
10
-50.194124243195056
20
-72.108886576191765
30
0
10
-51.413427851135729
20
-73.376963472859245
30
0
10
-51.413427851135729
20
-75.762365198628288
30
0
0
SPLINE
5
428
100
AcDbEntity
8
0
100
AcDbSpline
70
0
71
2
72
6
73
3
74
0
42
0.000000001
43
0.0000000001
44
0.0000000001
40
0
40
0
40
0
40
1
40
1
40
1
10
-49.77290894740343
20
-75.762365198628288
30
0
10
-49.77290894740343
20
-73.953361845509392
30
0
10
-48.983687422211169
20
-73.053293562428337
30
0
0
SPLINE
5
429
100
AcDbEntity
8
0
100
AcDbSpline
70
0
71
2
72
6
73
3
74
0
42
0.000000001
43
0.0000000001
44
0.0000000001
40
0
40
0
40
0
40
1
40
1
40
1
10
-48.983687422211169
20
-73.053293562428337
30
0
10
-48.194464704926013
20
-72.153225279347282
30
0
10
-46.997329256470202
20
-72.153225279347282
30
0
0
SPLINE
5
430
100
AcDbEntity
8
0
100
AcDbSpline
70
0
71
2
72
6
73
3
74
0
42
0.000000001
43
0.0000000001
44
0.0000000001
40
0
40
0
40
0
40
1
40
1
40
1
10
-46.997329256470202
20
-72.153225279347282
30
0
10
-45.80906297915697
20
-72.153225279347282
30
0
10
-45.019840261871813
20
-73.057725763813835
30
0
0
SPLINE
5
431
100
AcDbEntity
8
0
100
AcDbSpline
70
0
71
2
72
6
73
3
74
0
42
0.000000001
43
0.0000000001
44
0.0000000001
40
0
40
0
40
0
40
1
40
1
40
1
10
-45.019840261871813
20
-73.057725763813835
30
0
10
-44.230617544586657
20
-73.962228632466179
30
0
10
-44.230617544586657
20
-75.815570688740593
30
0
0
SPLINE
5
432
100
AcDbEntity
8
0
100
AcDbSpline
70
0
71
2
72
6
73
3
74
0
42
0.000000001
43
0.0000000001
44
0.0000000001
40
0
40
0
40
0
40
1
40
1
40
1
10
-44.230617544586657
20
-75.815570688740593
30
0
10
-44.230617544586657
20
-77.562501764790397
30
0
10
-45.024274847443102
20
-78.462570047871452
30
0
0
SPLINE
5
433
100
AcDbEntity
8
0
100
AcDbSpline
70
0
71
2
72
6
73
3
74
0
42
0.000000001
43
0.0000000001
44
0.0000000001
40
0
40
0
40
0
40
1
40
1
40
1
10
-45.024274847443102
20
-78.462570047871452
30
0
10
-45.817929766113757
20
-79.362638330952507
30
0
10
-46.997329256470202
20
-79.362638330952507
30
0
0
SPLINE
5
434
100
AcDbEntity
8
0
100
AcDbSpline
70
0
71
2
72
6
73
3
74
0
42
0.000000001
43
0.0000000001
44
0.0000000001
40
0
40
0
40
0
40
1
40
1
40
1
10
-46.997329256470202
20
-79.362638330952507
30
0
10
-48.194464704926013
20
-79.362638330952507
30
0
10
-48.983687422211169
20
-78.467004633442741
30
0
0
SPLINE
5
435
100
AcDbEntity
8
0
100
AcDbSpline
70
0
71
2
72
6
73
3
74
0
42
0.000000001
43
0.0000000001
44
0.0000000001
40
0
40
0
40
0
40
1
40
1
40
1
10
-48.983687422211169
20
-78.467004633442741
30
0
10
-49.77290894740343
20
-77.57136974384008
30
0
10
-49.77290894740343
20
-75.762365198628288
30
0
0
LINE
5
436
100
AcDbEntity
8
0
100
AcDbLine
10
-40.719019434387683
20
-71.053634024159294
30
0
11
-40.719019434387683
21
-84.053633547322136
31
0
0
LINE
5
437
100
AcDbEntity
8
0
100
AcDbLine
10
-40.719019434387683
20
-84.053633547322136
30
0
11
-39.122840425903796
21
-84.053633547322136
31
0
0
LINE
5
438
100
AcDbEntity
8
0
100
AcDbLine
10
-39.122840425903796
20
-84.053633547322136
30
0
11
-39.122840425903796
21
-79.389241076008659
31
0
0
SPLINE
5
439
100
AcDbEntity
8
0
100
AcDbSpline
70
0
71
2
72
6
73
3
74
0
42
0.000000001
43
0.0000000001
44
0.0000000001
40
0
40
0
40
0
40
1
40
1
40
1
10
-39.122840425903796
20
-79.389241076008659
30
0
10
-38.005513212616442
20
-80.683920717732292
30
0
10
-36.302920839722155
20
-80.683920717732292
30
0
0
SPLINE
5
440
100
AcDbEntity
8
0
100
AcDbSpline
70
0
71
2
72
6
73
3
74
0
42
0.000000001
43
0.0000000001
44
0.0000000001
40
0
40
0
40
0
40
1
40
1
40
1
10
-36.302920839722155
20
-80.683920717732292
30
0
10
-35.256537458832263
20
-80.683920717732292
30
0
10
-34.485048315460681
20
-80.271573400990349
30
0
0
SPLINE
5
441
100
AcDbEntity
8
0
100
AcDbSpline
70
0
71
2
72
6
73
3
74
0
42
0.000000001
43
0.0000000001
44
0.0000000001
40
0
40
0
40
0
40
1
40
1
40
1
10
-34.485048315460681
20
-80.271573400990349
30
0
10
-33.713563940460681
20
-79.859227276341301
30
0
10
-33.381024858887194
20
-79.132078028218132
30
0
0
SPLINE
5
442
100
AcDbEntity
8
0
100
AcDbSpline
70
0
71
2
72
6
73
3
74
0
42
0.000000001
43
0.0000000001
44
0.0000000001
40
0
40
0
40
0
40
1
40
1
40
1
10
-33.381024858887194
20
-79.132078028218132
30
0
10
-33.048488161499499
20
-78.404929972187858
30
0
10
-33.048488161499499
20
-77.021574116246086
30
0
0
LINE
5
443
100
AcDbEntity
8
0
100
AcDbLine
10
-33.048488161499499
20
-77.021574116246086
30
0
11
-33.048488161499499
21
-71.053634024159294
31
0
0
LINE
5
444
100
AcDbEntity
8
0
100
AcDbLine
10
-33.048488161499499
20
-71.053634024159294
30
0
11
-34.644667169983386
21
-71.053634024159294
31
0
0
LINE
5
445
100
AcDbEntity
8
0
100
AcDbLine
10
-34.644667169983386
20
-71.053634024159294
30
0
11
-34.644667169983386
21
-77.021574116246086
31
0
0
SPLINE
5
446
100
AcDbEntity
8
0
100
AcDbSpline
70
0
71
2
72
6
73
3
74
0
42
0.000000001
43
0.0000000001
44
0.0000000001
40
0
40
0
40
0
40
1
40
1
40
1
10
-34.644667169983386
20
-77.021574116246086
30
0
10
-34.644667169983386
20
-78.218708372609001
30
0
10
-35.163425466949938
20
-78.764070606724601
30
0
0
SPLINE
5
447
100
AcDbEntity
8
0
100
AcDbSpline
70
0
71
2
72
6
73
3
74
0
42
0.000000001
43
0.0000000001
44
0.0000000001
40
0
40
0
40
0
40
1
40
1
40
1
10
-35.163425466949938
20
-78.764070606724601
30
0
10
-35.682183763916491
20
-79.309432840840202
30
0
10
-36.631025335724352
20
-79.309432840840202
30
0
0
SPLINE
5
448
100
AcDbEntity
8
0
100
AcDbSpline
70
0
71
2
72
6
73
3
74
0
42
0.000000001
43
0.0000000001
44
0.0000000001
40
0
40
0
40
0
40
1
40
1
40
1
10
-36.631025335724352
20
-79.309432840840202
30
0
10
-37.340437433655261
20
-79.309432840840202
30
0
10
-37.965609095032214
20
-78.941424227253776
30
0
0
SPLINE
5
449
100
AcDbEntity
8
0
100
AcDbSpline
70
0
71
2
72
6
73
3
74
0
42
0.000000001
43
0.0000000001
44
0.0000000001
40
0
40
0
40
0
40
1
40
1
40
1
10
-37.965609095032214
20
-78.941424227253776
30
0
10
-38.590778372223376
20
-78.57341561366735
30
0
10
-38.856810591156481
20
-77.943811750904899
30
0
0
SPLINE
5
450
100
AcDbEntity
8
0
100
AcDbSpline
70
0
71
2
72
6
73
3
74
0
42
0.000000001
43
0.0000000001
44
0.0000000001
40
0
40
0
40
0
40
1
40
1
40
1
10
-38.856810591156481
20
-77.943811750904899
30
0
10
-39.122840425903796
20
-77.314206696049553
30
0
10
-39.122840425903796
20
-76.205748653904777
30
0
0
LINE
5
451
100
AcDbEntity
8
0
100
AcDbLine
10
-39.122840425903796
20
-76.205748653904777
30
0
11
-39.122840425903796
21
-71.053634024159294
31
0
0
LINE
5
452
100
AcDbEntity
8
0
100
AcDbLine
10
-39.122840425903796
20
-71.053634024159294
30
0
11
-40.719019434387683
21
-71.053634024159294
31
0
0
LINE
5
453
100
AcDbEntity
8
0
100
AcDbLine
10
-30.654219648773669
20
-71.053634024159294
30
0
11
-30.654219648773669
21
-84.053633547322136
31
0
0
LINE
5
454
100
AcDbEntity
8
0
100
AcDbLine
10
-30.654219648773669
20
-84.053633547322136
30
0
11
-29.058040640289782
21
-84.053633547322136
31
0
0
LINE
5
455
100
AcDbEntity
8
0
100
AcDbLine
10
-29.058040640289782
20
-84.053633547322136
30
0
11
-29.058040640289782
21
-71.053634024159294
31
0
0
LINE
5
456
100
AcDbEntity
8
0
100
AcDbLine
10
-29.058040640289782
20
-71.053634024159294
30
0
11
-30.654219648773669
21
-71.053634024159294
31
0
0
LINE
5
457
100
AcDbEntity
8
0
100
AcDbLine
10
-20.137166044647692
20
-74.086375570790153
30
0
11
-18.487776777679919
21
-73.882420397297722
31
0
0
SPLINE
5
458
100
AcDbEntity
8
0
100
AcDbSpline
70
0
71
2
72
6
73
3
74
0
42
0.000000001
43
0.0000000001
44
0.0000000001
40
0
40
0
40
0
40
1
40
1
40
1
10
-18.487776777679919
20
-73.882420397297722
30
0
10
-18.87795831912279
20
-72.436991072193962
30
0
10
-19.93320848696947
20
-71.638899183766227
30
0
0
SPLINE
5
459
100
AcDbEntity
8
0
100
AcDbSpline
70
0
71
2
72
6
73
3
74
0
42
0.000000001
43
0.0000000001
44
0.0000000001
40
0
40
0
40
0
40
1
40
1
40
1
10
-19.93320848696947
20
-71.638899183766227
30
0
10
-20.988458654816149
20
-70.840809679524284
30
0
10
-22.628978750641345
20
-70.840809679524284
30
0
0
SPLINE
5
460
100
AcDbEntity
8
0
100
AcDbSpline
70
0
71
2
72
6
73
3
74
0
42
0.000000001
43
0.0000000001
44
0.0000000001
40
0
40
0
40
0
40
1
40
1
40
1
10
-22.628978750641345
20
-70.840809679524284
30
0
10
-24.695142767364977
20
-70.840809679524284
30
0
10
-25.905584356720446
20
-72.113321161763054
30
0
0
SPLINE
5
461
100
AcDbEntity
8
0
100
AcDbSpline
70
0
71
2
72
6
73
3
74
0
42
0.000000001
43
0.0000000001
44
0.0000000001
40
0
40
0
40
0
40
1
40
1
40
1
10
-25.905584356720446
20
-72.113321161763054
30
0
10
-27.116016409332751
20
-73.385830259816032
30
0
10
-27.116016409332751
20
-75.682556963459831
30
0
0
SPLINE
5
462
100
AcDbEntity
8
0
100
AcDbSpline
70
0
71
2
72
6
73
3
74
0
42
0.000000001
43
0.0000000001
44
0.0000000001
40
0
40
0
40
0
40
1
40
1
40
1
10
-27.116016409332751
20
-75.682556963459831
30
0
10
-27.116016409332751
20
-78.059091902272087
30
0
10
-25.892280600006579
20
-79.371505117909294
30
0
0
SPLINE
5
463
100
AcDbEntity
8
0
100
AcDbSpline
70
0
71
2
72
6
73
3
74
0
42
0.000000001
43
0.0000000001
44
0.0000000001
40
0
40
0
40
0
40
1
40
1
40
1
10
-25.892280600006579
20
-79.371505117909294
30
0
10
-24.668544790680407
20
-80.683920717732292
30
0
10
-22.71765615695238
20
-80.683920717732292
30
0
0
SPLINE
5
464
100
AcDbEntity
8
0
100
AcDbSpline
70
0
71
2
72
6
73
3
74
0
42
0.000000001
43
0.0000000001
44
0.0000000001
40
0
40
0
40
0
40
1
40
1
40
1
10
-22.71765615695238
20
-80.683920717732292
30
0
10
-20.828842184479235
20
-80.683920717732292
30
0
10
-19.631709120209216
20
-79.398109055058342
30
0
0
SPLINE
5
465
100
AcDbEntity
8
0
100
AcDbSpline
70
0
71
2
72
6
73
3
74
0
42
0.000000001
43
0.0000000001
44
0.0000000001
40
0
40
0
40
0
40
1
40
1
40
1
10
-19.631709120209216
20
-79.398109055058342
30
0
10
-18.434571287567614
20
-78.112297392384392
30
0
10
-18.434571287567614
20
-75.780101156727653
30
0
0
SPLINE
5
466
100
AcDbEntity
8
0
100
AcDbSpline
70
0
71
2
72
6
73
3
74
0
42
0.000000001
43
0.0000000001
44
0.0000000001
40
0
40
0
40
0
40
1
40
1
40
1
10
-18.434571287567614
20
-75.780101156727653
30
0
10
-18.434571287567614
20
-75.638218260304313
30
0
10
-18.443440458710192
20
-75.354452467457634
30
0
0
LINE
5
467
100
AcDbEntity
8
0
100
AcDbLine
10
-18.443440458710192
20
-75.354452467457634
30
0
11
-25.46663191073656
21
-75.354452467457634
31
0
0
SPLINE
5
468
100
AcDbEntity
8
0
100
AcDbSpline
70
0
71
2
72
6
73
3
74
0
42
0.000000001
43
0.0000000001
44
0.0000000001
40
0
40
0
40
0
40
1
40
1
40
1
10
-25.46663191073656
20
-75.354452467457634
30
0
10
-25.377954504425524
20
-73.802609777943474
30
0
10
-24.588731787140368
20
-72.977917528645378
30
0
0
SPLINE
5
469
100
AcDbEntity
8
0
100
AcDbSpline
70
0
71
2
72
6
73
3
74
0
42
0.000000001
43
0.0000000001
44
0.0000000001
40
0
40
0
40
0
40
1
40
1
40
1
10
-24.588731787140368
20
-72.977917528645378
30
0
10
-23.799509069855212
20
-72.153225279347282
30
0
10
-22.620109579498767
20
-72.153225279347282
30
0
0
SPLINE
5
470
100
AcDbEntity
8
0
100
AcDbSpline
70
0
71
2
72
6
73
3
74
0
42
0.000000001
43
0.0000000001
44
0.0000000001
40
0
40
0
40
0
40
1
40
1
40
1
10
-22.620109579498767
20
-72.153225279347282
30
0
10
-21.742214224274157
20
-72.153225279347282
30
0
10
-21.121477148468493
20
-72.614343500630241
30
0
0
SPLINE
5
471
100
AcDbEntity
8
0
100
AcDbSpline
70
0
71
2
72
6
73
3
74
0
42
0.000000001
43
0.0000000001
44
0.0000000001
40
0
40
0
40
0
40
1
40
1
40
1
10
-21.121477148468493
20
-72.614343500630241
30
0
10
-20.500740072662829
20
-73.0754617219132
30
0
10
-20.137166044647692
20
-74.086375570790153
30
0
0
LINE
5
472
100
AcDbEntity
8
0
100
AcDbLine
10
-25.377954504425524
20
-76.666868067280632
30
0
11
-20.119427702362536
21
-76.666868067280632
31
0
0
SPLINE
5
473
100
AcDbEntity
8
0
100
AcDbSpline
70
0
71
2
72
6
73
3
74
0
42
0.000000001
43
0.0000000001
44
0.0000000001
40
0
40
0
40
0
40
1
40
1
40
1
10
-20.119427702362536
20
-76.666868067280632
30
0
10
-20.225843450958727
20
-77.855134344593864
30
0
10
-20.722431204254626
20
-78.449268675343376
30
0
0
SPLINE
5
474
100
AcDbEntity
8
0
100
AcDbSpline
70
0
71
2
72
6
73
3
74
0
42
0.000000001
43
0.0000000001
44
0.0000000001
40
0
40
0
40
0
40
1
40
1
40
1
10
-20.722431204254626
20
-78.449268675343376
30
0
10
-21.48505117648363
20
-79.371505117909294
30
0
10
-22.699922583038806
20
-79.371505117909294
30
0
0
SPLINE
5
475
100
AcDbEntity
8
0
100
AcDbSpline
70
0
71
2
72
6
73
3
74
0
42
0.000000001
43
0.0000000001
44
0.0000000001
40
0
40
0
40
0
40
1
40
1
40
1
10
-22.699922583038806
20
-79.371505117909294
30
0
10
-23.799509069855212
20
-79.371505117909294
30
0
10
-24.548830053741931
20
-78.635490274922233
30
0
0
SPLINE
5
476
100
AcDbEntity
8
0
100
AcDbSpline
70
0
71
2
72
6
73
3
74
0
42
0.000000001
43
0.0000000001
44
0.0000000001
40
0
40
0
40
0
40
1
40
1
40
1
10
-24.548830053741931
20
-78.635490274922233
30
0
10
-25.298146269257067
20
-77.899473047749382
30
0
10
-25.377954504425524
20
-76.666868067280632
30
0
0
LINE
5
477
100
AcDbEntity
8
0
100
AcDbLine
10
-16.501420996124743
20
-71.053634024159294
30
0
11
-16.501420996124743
21
-80.471096373097282
31
0
0
LINE
5
478
100
AcDbEntity
8
0
100
AcDbLine
10
-16.501420996124743
20
-80.471096373097282
30
0
11
-15.064858457977772
21
-80.471096373097282
31
0
0
LINE
5
479
100
AcDbEntity
8
0
100
AcDbLine
10
-15.064858457977772
20
-80.471096373097282
30
0
11
-15.064858457977772
21
-79.043401813999992
31
0
0
SPLINE
5
480
100
AcDbEntity
8
0
100
AcDbSpline
70
0
71
2
72
6
73
3
74
0
42
0.000000001
43
0.0000000001
44
0.0000000001
40
0
40
0
40
0
40
1
40
1
40
1
10
-15.064858457977772
20
-79.043401813999992
30
0
10
-14.515065214569569
20
-80.045447683827263
30
0
10
-14.04951002352953
20
-80.364684200779777
30
0
0
SPLINE
5
481
100
AcDbEntity
8
0
100
AcDbSpline
70
0
71
2
72
6
73
3
74
0
42
0.000000001
43
0.0000000001
44
0.0000000001
40
0
40
0
40
0
40
1
40
1
40
1
10
-14.04951002352953
20
-80.364684200779777
30
0
10
-13.583959600861073
20
-80.683920717732292
30
0
10
-13.025297186310292
20
-80.683920717732292
30
0
0
SPLINE
5
482
100
AcDbEntity
8
0
100
AcDbSpline
70
0
71
2
72
6
73
3
74
0
42
0.000000001
43
0.0000000001
44
0.0000000001
40
0
40
0
40
0
40
1
40
1
40
1
10
-13.025297186310292
20
-80.683920717732292
30
0
10
-12.218336126739979
20
-80.683920717732292
30
0
10
-11.384777090485096
20
-80.169595814244133
30
0
0
LINE
5
483
100
AcDbEntity
8
0
100
AcDbLine
10
-11.384777090485096
20
-80.169595814244133
30
0
11
-11.9345703338933
21
-78.688695765034538
31
0
0
SPLINE
5
484
100
AcDbEntity
8
0
100
AcDbSpline
70
0
71
2
72
6
73
3
74
0
42
0.000000001
43
0.0000000001
44
0.0000000001
40
0
40
0
40
0
40
1
40
1
40
1
10
-11.9345703338933
20
-78.688695765034538
30
0
10
-12.519840261871815
20
-79.034533834950309
30
0
10
-13.105105421478749
20
-79.034533834950309
30
0
0
SPLINE
5
485
100
AcDbEntity
8
0
100
AcDbSpline
70
0
71
2
72
6
73
3
74
0
42
0.000000001
43
0.0000000001
44
0.0000000001
40
0
40
0
40
0
40
1
40
1
40
1
10
-13.105105421478749
20
-79.034533834950309
30
0
10
-13.6282959198308
20
-79.034533834950309
30
0
10
-14.045075437958241
20
-78.719731903569084
30
0
0
SPLINE
5
486
100
AcDbEntity
8
0
100
AcDbSpline
70
0
71
2
72
6
73
3
74
0
42
0.000000001
43
0.0000000001
44
0.0000000001
40
0
40
0
40
0
40
1
40
1
40
1
10
-14.045075437958241
20
-78.719731903569084
30
0
10
-14.461859724457264
20
-78.404929972187858
30
0
10
-14.639209768707753
20
-77.846267557637077
30
0
0
SPLINE
5
487
100
AcDbEntity
8
0
100
AcDbSpline
70
0
71
2
72
6
73
3
74
0
42
0.000000001
43
0.0000000001
44
0.0000000001
40
0
40
0
40
0
40
1
40
1
40
1
10
-14.639209768707753
20
-77.846267557637077
30
0
10
-14.905241987640858
20
-76.994970179097038
30
0
10
-14.905241987640858
20
-75.984056330220085
30
0
0
LINE
5
488
100
AcDbEntity
8
0
100
AcDbLine
10
-14.905241987640858
20
-75.984056330220085
30
0
11
-14.905241987640858
21
-71.053634024159294
31
0
0
LINE
5
489
100
AcDbEntity
8
0
100
AcDbLine
10
-14.905241987640858
20
-71.053634024159294
30
0
11
-16.501420996124743
21
-71.053634024159294
31
0
0
LINE
5
490
100
AcDbEntity
8
0
100
AcDbLine
10
-5.2572193359684949
20
-71.053634024159294
30
0
11
-5.2572193359684949
21
-84.053633547322136
31
0
0
LINE
5
491
100
AcDbEntity
8
0
100
AcDbLine
10
-5.2572193359684949
20
-84.053633547322136
30
0
11
-3.5368910049748425
21
-84.053633547322136
31
0
0
LINE
5
492
100
AcDbEntity
8
0
100
AcDbLine
10
-3.5368910049748425
20
-84.053633547322136
30
0
11
-3.5368910049748425
21
-77.606840467945915
31
0
0
LINE
5
493
100
AcDbEntity
8
0
100
AcDbLine
10
-3.5368910049748425
20
-77.606840467945915
30
0
11
2.9187688613581653
21
-84.053633547322136
31
0
0
LINE
5
494
100
AcDbEntity
8
0
100
AcDbLine
10
2.9187688613581653
20
-84.053633547322136
30
0
11
5.2509650970149035
21
-84.053633547322136
31
0
0
LINE
5
495
100
AcDbEntity
8
0
100
AcDbLine
10
5.2509650970149035
20
-84.053633547322136
30
0
11
-0.20265009158372926
21
-78.78623995830236
31
0
0
LINE
5
496
100
AcDbEntity
8
0
100
AcDbLine
10
-0.20265009158372926
20
-78.78623995830236
30
0
11
5.4903945708918567
21
-71.053634024159294
31
0
0
LINE
5
497
100
AcDbEntity
8
0
100
AcDbLine
10
5.4903945708918567
20
-71.053634024159294
30
0
11
3.2202682281184192
21
-71.053634024159294
31
0
0
LINE
5
498
100
AcDbEntity
8
0
100
AcDbLine
10
3.2202682281184192
20
-71.053634024159294
30
0
11
-1.4086523269963269
21
-77.633443213002067
31
0
0
LINE
5
499
100
AcDbEntity
8
0
100
AcDbLine
10
-1.4086523269963269
20
-77.633443213002067
30
0
11
-3.5368910049748425
21
-75.558410025135856
31
0
0
LINE
5
500
100
AcDbEntity
8
0
100
AcDbLine
10
-3.5368910049748425
20
-75.558410025135856
30
0
11
-3.5368910049748425
21
-71.053634024159294
31
0
0
LINE
5
501
100
AcDbEntity
8
0
100
AcDbLine
10
-3.5368910049748425
20
-71.053634024159294
30
0
11
-5.2572193359684949
21
-71.053634024159294
31
0
0
LINE
5
502
100
AcDbEntity
8
0
100
AcDbLine
10
6.1022624755549426
20
-74.955406523243767
30
0
11
6.1022624755549426
21
-76.560454702870231
31
0
0
LINE
5
503
100
AcDbEntity
8
0
100
AcDbLine
10
6.1022624755549426
20
-76.560454702870231
30
0
11
11.006084420745372
21
-76.560454702870231
31
0
0
LINE
5
504
100
AcDbEntity
8
0
100
AcDbLine
10
11.006084420745372
20
-76.560454702870231
30
0
11
11.006084420745372
21
-74.955406523243767
31
0
0
LINE
5
505
100
AcDbEntity
8
0
100
AcDbLine
10
11.006084420745372
20
-74.955406523243767
30
0
11
6.1022624755549426
21
-74.955406523243767
31
0
0
LINE
5
506
100
AcDbEntity
8
0
100
AcDbLine
10
12.566791513030529
20
-74.059772825734001
30
0
11
14.10089109188795
21
-74.201655722157341
31
0
0
SPLINE
5
507
100
AcDbEntity
8
0
100
AcDbSpline
70
0
71
2
72
6
73
3
74
0
42
0.000000001
43
0.0000000001
44
0.0000000001
40
0
40
0
40
0
40
1
40
1
40
1
10
14.10089109188795
20
-74.201655722157341
30
0
10
14.295984246795177
20
-73.119800425068718
30
0
10
14.84577749020338
20
-72.632079458729606
30
0
0
SPLINE
5
508
100
AcDbEntity
8
0
100
AcDbSpline
70
0
71
2
72
6
73
3
74
0
42
0.000000001
43
0.0000000001
44
0.0000000001
40
0
40
0
40
0
40
1
40
1
40
1
10
14.84577749020338
20
-72.632079458729606
30
0
10
15.395580270354747
20
-72.144356108204704
30
0
10
16.255737283294202
20
-72.144356108204704
30
0
0
SPLINE
5
509
100
AcDbEntity
8
0
100
AcDbSpline
70
0
71
2
72
6
73
3
74
0
42
0.000000001
43
0.0000000001
44
0.0000000001
40
0
40
0
40
0
40
1
40
1
40
1
10
16.255737283294202
20
-72.144356108204704
30
0
10
16.991754510467054
20
-72.144356108204704
30
0
10
17.545982339446546
20
-72.481327391163688
30
0
0
SPLINE
5
510
100
AcDbEntity
8
0
100
AcDbSpline
70
0
71
2
72
6
73
3
74
0
42
0.000000001
43
0.0000000001
44
0.0000000001
40
0
40
0
40
0
40
1
40
1
40
1
10
17.545982339446546
20
-72.481327391163688
30
0
10
18.100210168426038
20
-72.818298674122673
30
0
10
18.454919793670179
20
-73.381395674244743
30
0
0
SPLINE
5
511
100
AcDbEntity
8
0
100
AcDbSpline
70
0
71
2
72
6
73
3
74
0
42
0.000000001
43
0.0000000001
44
0.0000000001
40
0
40
0
40
0
40
1
40
1
40
1
10
18.454919793670179
20
-73.381395674244743
30
0
10
18.809629418914319
20
-73.944492674366813
30
0
10
19.049049356048108
20
-74.902201033131462
30
0
0
SPLINE
5
512
100
AcDbEntity
8
0
100
AcDbSpline
70
0
71
2
72
6
73
3
74
0
42
0.000000001
43
0.0000000001
44
0.0000000001
40
0
40
0
40
0
40
1
40
1
40
1
10
19.049049356048108
20
-74.902201033131462
30
0
10
19.288478829925062
20
-75.85990939189611
30
0
10
19.288478829925062
20
-76.853088474766594
30
0
0
SPLINE
5
513
100
AcDbEntity
8
0
100
AcDbSpline
70
0
71
2
72
6
73
3
74
0
42
0.000000001
43
0.0000000001
44
0.0000000001
40
0
40
0
40
0
40
1
40
1
40
1
10
19.288478829925062
20
-76.853088474766594
30
0
10
19.288478829925062
20
-76.959500647084099
30
0
10
19.279609658782483
20
-77.172324991719108
30
0
0
SPLINE
5
514
100
AcDbEntity
8
0
100
AcDbSpline
70
0
71
2
72
6
73
3
74
0
42
0.000000001
43
0.0000000001
44
0.0000000001
40
0
40
0
40
0
40
1
40
1
40
1
10
19.279609658782483
20
-77.172324991719108
30
0
10
18.800760247771741
20
-76.409705019490104
30
0
10
17.971635797088148
20
-75.935285425679069
30
0
0
SPLINE
5
515
100
AcDbEntity
8
0
100
AcDbSpline
70
0
71
2
72
6
73
3
74
0
42
0.000000001
43
0.0000000001
44
0.0000000001
40
0
40
0
40
0
40
1
40
1
40
1
10
17.971635797088148
20
-75.935285425679069
30
0
10
17.14250180966139
20
-75.460863447682243
30
0
10
16.175933816497327
20
-75.460863447682243
30
0
0
SPLINE
5
516
100
AcDbEntity
8
0
100
AcDbSpline
70
0
71
2
72
6
73
3
74
0
42
0.000000001
43
0.0000000001
44
0.0000000001
40
0
40
0
40
0
40
1
40
1
40
1
10
16.175933816497327
20
-75.460863447682243
30
0
10
14.5620116973567
20
-75.460863447682243
30
0
10
13.444686868255138
20
-76.631396151081901
30
0
0
SPLINE
5
517
100
AcDbEntity
8
0
100
AcDbSpline
70
0
71
2
72
6
73
3
74
0
42
0.000000001
43
0.0000000001
44
0.0000000001
40
0
40
0
40
0
40
1
40
1
40
1
10
13.444686868255138
20
-76.631396151081901
30
0
10
12.327362039153575
20
-77.801928854481559
30
0
10
12.327362039153575
20
-79.717345572010856
30
0
0
SPLINE
5
518
100
AcDbEntity
8
0
100
AcDbSpline
70
0
71
2
72
6
73
3
74
0
42
0.000000001
43
0.0000000001
44
0.0000000001
40
0
40
0
40
0
40
1
40
1
40
1
10
12.327362039153575
20
-79.717345572010856
30
0
10
12.327362039153575
20
-81.694834566609245
30
0
10
13.493457772796154
20
-82.900837994114738
30
0
0
SPLINE
5
519
100
AcDbEntity
8
0
100
AcDbSpline
70
0
71
2
72
6
73
3
74
0
42
0.000000001
43
0.0000000001
44
0.0000000001
40
0
40
0
40
0
40
1
40
1
40
1
10
13.493457772796154
20
-82.900837994114738
30
0
10
14.659553506438732
20
-84.106840229527336
30
0
10
16.415353753631116
20
-84.106840229527336
30
0
0
SPLINE
5
520
100
AcDbEntity
8
0
100
AcDbSpline
70
0
71
2
72
6
73
3
74
0
42
0.000000001
43
0.0000000001
44
0.0000000001
40
0
40
0
40
0
40
1
40
1
40
1
10
16.415353753631116
20
-84.106840229527336
30
0
10
17.683435418670179
20
-84.106840229527336
30
0
10
18.734251000945569
20
-83.424029684559684
30
0
0
SPLINE
5
521
100
AcDbEntity
8
0
100
AcDbSpline
70
0
71
2
72
6
73
3
74
0
42
0.000000001
43
0.0000000001
44
0.0000000001
40
0
40
0
40
0
40
1
40
1
40
1
10
18.734251000945569
20
-83.424029684559684
30
0
10
19.78506658322096
20
-82.741220331684929
30
0
10
20.330434777801038
20
-81.477576828495842
30
0
0
SPLINE
5
522
100
AcDbEntity
8
0
100
AcDbSpline
70
0
71
2
72
6
73
3
74
0
42
0.000000001
43
0.0000000001
44
0.0000000001
40
0
40
0
40
0
40
1
40
1
40
1
10
20.330434777801038
20
-81.477576828495842
30
0
10
20.875793435637952
20
-80.213933325306755
30
0
10
20.875793435637952
20
-77.819664812580925
30
0
0
SPLINE
5
523
100
AcDbEntity
8
0
100
AcDbSpline
70
0
71
2
72
6
73
3
74
0
42
0.000000001
43
0.0000000001
44
0.0000000001
40
0
40
0
40
0
40
1
40
1
40
1
10
20.875793435637952
20
-77.819664812580925
30
0
10
20.875793435637952
20
-75.327849722401481
30
0
10
20.334869363372327
20
-73.85138306667028
30
0
0
SPLINE
5
524
100
AcDbEntity
8
0
100
AcDbSpline
70
0
71
2
72
6
73
3
74
0
42
0.000000001
43
0.0000000001
44
0.0000000001
40
0
40
0
40
0
40
1
40
1
40
1
10
20.334869363372327
20
-73.85138306667028
30
0
10
19.793935754363538
20
-72.374916410939079
30
0
10
18.725381829802991
20
-71.603429651753288
30
0
0
SPLINE
5
525
100
AcDbEntity
8
0
100
AcDbSpline
70
0
71
2
72
6
73
3
74
0
42
0.000000001
43
0.0000000001
44
0.0000000001
40
0
40
0
40
0
40
1
40
1
40
1
10
18.725381829802991
20
-71.603429651753288
30
0
10
17.656827905242444
20
-70.831942892567497
30
0
10
16.220270135467054
20
-70.831942892567497
30
0
0
SPLINE
5
526
100
AcDbEntity
8
0
100
AcDbSpline
70
0
71
2
72
6
73
3
74
0
42
0.000000001
43
0.0000000001
44
0.0000000001
40
0
40
0
40
0
40
1
40
1
40
1
10
16.220270135467054
20
-70.831942892567497
30
0
10
14.695030191009044
20
-70.831942892567497
30
0
10
13.728452661101818
20
-71.678805685536247
30
0
0
SPLINE
5
527
100
AcDbEntity
8
0
100
AcDbSpline
70
0
71
2
72
6
73
3
74
0
42
0.000000001
43
0.0000000001
44
0.0000000001
40
0
40
0
40
0
40
1
40
1
40
1
10
13.728452661101818
20
-71.678805685536247
30
0
10
12.761875131194591
20
-72.525666094319206
30
0
10
12.566791513030529
20
-74.059772825734001
30
0
0
SPLINE
5
528
100
AcDbEntity
8
0
100
AcDbSpline
70
0
71
2
72
6
73
3
74
0
42
0.000000001
43
0.0000000001
44
0.0000000001
40
0
40
0
40
0
40
1
40
1
40
1
10
19.102264382903577
20
-79.797153807179313
30
0
10
19.102264382903577
20
-81.171642876164299
30
0
10
18.370681741302015
20
-81.978600359455925
30
0
0
SPLINE
5
529
100
AcDbEntity
8
0
100
AcDbSpline
70
0
71
2
72
6
73
3
74
0
42
0.000000001
43
0.0000000001
44
0.0000000001
40
0
40
0
40
0
40
1
40
1
40
1
10
18.370681741302015
20
-81.978600359455925
30
0
10
17.639099099700452
20
-82.785557842747551
30
0
10
16.610446908538343
20
-82.785557842747551
30
0
0
SPLINE
5
530
100
AcDbEntity
8
0
100
AcDbSpline
70
0
71
2
72
6
73
3
74
0
42
0.000000001
43
0.0000000001
44
0.0000000001
40
0
40
0
40
0
40
1
40
1
40
1
10
16.610446908538343
20
-82.785557842747551
30
0
10
15.546327569549083
20
-82.785557842747551
30
0
10
14.757104852263927
20
-81.916526890293937
30
0
0
SPLINE
5
531
100
AcDbEntity
8
0
100
AcDbSpline
70
0
71
2
72
6
73
3
74
0
42
0.000000001
43
0.0000000001
44
0.0000000001
40
0
40
0
40
0
40
1
40
1
40
1
10
14.757104852263927
20
-81.916526890293937
30
0
10
13.967882134978771
20
-81.047494745747429
30
0
10
13.967882134978771
20
-79.664138889805656
30
0
0
SPLINE
5
532
100
AcDbEntity
8
0
100
AcDbSpline
70
0
71
2
72
6
73
3
74
0
42
0.000000001
43
0.0000000001
44
0.0000000001
40
0
40
0
40
0
40
1
40
1
40
1
10
13.967882134978771
20
-79.664138889805656
30
0
10
13.967882134978771
20
-78.422665930287224
30
0
10
14.717193582122325
20
-77.646744585530143
30
0
0
SPLINE
5
533
100
AcDbEntity
8
0
100
AcDbSpline
70
0
71
2
72
6
73
3
74
0
42
0.000000001
43
0.0000000001
44
0.0000000001
40
0
40
0
40
0
40
1
40
1
40
1
10
14.717193582122325
20
-77.646744585530143
30
0
10
15.466514566009044
20
-76.870823240773063
30
0
10
16.566110589568616
20
-76.870823240773063
30
0
0
SPLINE
5
534
100
AcDbEntity
8
0
100
AcDbSpline
70
0
71
2
72
6
73
3
74
0
42
0.000000001
43
0.0000000001
44
0.0000000001
40
0
40
0
40
0
40
1
40
1
40
1
10
16.566110589568616
20
-76.870823240773063
30
0
10
17.674566247527601
20
-76.870823240773063
30
0
10
18.388410546844007
20
-77.646744585530143
30
0
0
SPLINE
5
535
100
AcDbEntity
8
0
100
AcDbSpline
70
0
71
2
72
6
73
3
74
0
42
0.000000001
43
0.0000000001
44
0.0000000001
40
0
40
0
40
0
40
1
40
1
40
1
10
18.388410546844007
20
-77.646744585530143
30
0
10
19.102264382903577
20
-78.422665930287224
30
0
10
19.102264382903577
20
-79.797153807179313
30
0
0
LINE
5
536
100
AcDbEntity
8
0
100
AcDbLine
10
22.667070367400648
20
-74.059772825734001
30
0
11
24.201169946258069
21
-74.201655722157341
31
0
0
SPLINE
5
537
100
AcDbEntity
8
0
100
AcDbSpline
70
0
71
2
72
6
73
3
74
0
42
0.000000001
43
0.0000000001
44
0.0000000001
40
0
40
0
40
0
40
1
40
1
40
1
10
24.201169946258069
20
-74.201655722157341
30
0
10
24.396263101165296
20
-73.119800425068718
30
0
10
24.946056344573499
20
-72.632079458729606
30
0
0
SPLINE
5
538
100
AcDbEntity
8
0
100
AcDbSpline
70
0
71
2
72
6
73
3
74
0
42
0.000000001
43
0.0000000001
44
0.0000000001
40
0
40
0
40
0
40
1
40
1
40
1
10
24.946056344573499
20
-72.632079458729606
30
0
10
25.495849587981702
20
-72.144356108204704
30
0
10
26.356016137664319
20
-72.144356108204704
30
0
0
SPLINE
5
539
100
AcDbEntity
8
0
100
AcDbSpline
70
0
71
2
72
6
73
3
74
0
42
0.000000001
43
0.0000000001
44
0.0000000001
40
0
40
0
40
0
40
1
40
1
40
1
10
26.356016137664319
20
-72.144356108204704
30
0
10
27.092033364837171
20
-72.144356108204704
30
0
10
27.646261193816663
20
-72.481327391163688
30
0
0
SPLINE
5
540
100
AcDbEntity
8
0
100
AcDbSpline
70
0
71
2
72
6
73
3
74
0
42
0.000000001
43
0.0000000001
44
0.0000000001
40
0
40
0
40
0
40
1
40
1
40
1
10
27.646261193816663
20
-72.481327391163688
30
0
10
28.200489022796155
20
-72.818298674122673
30
0
10
28.555198648040296
20
-73.381395674244743
30
0
0
SPLINE
5
541
100
AcDbEntity
8
0
100
AcDbSpline
70
0
71
2
72
6
73
3
74
0
42
0.000000001
43
0.0000000001
44
0.0000000001
40
0
40
0
40
0
40
1
40
1
40
1
10
28.555198648040296
20
-73.381395674244743
30
0
10
28.909908273284437
20
-73.944492674366813
30
0
10
29.149328210418226
20
-74.902201033131462
30
0
0
SPLINE
5
542
100
AcDbEntity
8
0
100
AcDbSpline
70
0
71
2
72
6
73
3
74
0
42
0.000000001
43
0.0000000001
44
0.0000000001
40
0
40
0
40
0
40
1
40
1
40
1
10
29.149328210418226
20
-74.902201033131462
30
0
10
29.388757684295179
20
-75.85990939189611
30
0
10
29.388757684295179
20
-76.853088474766594
30
0
0
SPLINE
5
543
100
AcDbEntity
8
0
100
AcDbSpline
70
0
71
2
72
6
73
3
74
0
42
0.000000001
43
0.0000000001
44
0.0000000001
40
0
40
0
40
0
40
1
40
1
40
1
10
29.388757684295179
20
-76.853088474766594
30
0
10
29.388757684295179
20
-76.959500647084099
30
0
10
29.379888513152601
20
-77.172324991719108
30
0
0
SPLINE
5
544
100
AcDbEntity
8
0
100
AcDbSpline
70
0
71
2
72
6
73
3
74
0
42
0.000000001
43
0.0000000001
44
0.0000000001
40
0
40
0
40
0
40
1
40
1
40
1
10
29.379888513152601
20
-77.172324991719108
30
0
10
28.901039102141858
20
-76.409705019490104
30
0
10
28.071914651458265
20
-75.935285425679069
30
0
0
SPLINE
5
545
100
AcDbEntity
8
0
100
AcDbSpline
70
0
71
2
72
6
73
3
74
0
42
0.000000001
43
0.0000000001
44
0.0000000001
40
0
40
0
40
0
40
1
40
1
40
1
10
28.071914651458265
20
-75.935285425679069
30
0
10
27.242780664031507
20
-75.460863447682243
30
0
10
26.276212670867444
20
-75.460863447682243
30
0
0
SPLINE
5
546
100
AcDbEntity
8
0
100
AcDbSpline
70
0
71
2
72
6
73
3
74
0
42
0.000000001
43
0.0000000001
44
0.0000000001
40
0
40
0
40
0
40
1
40
1
40
1
10
26.276212670867444
20
-75.460863447682243
30
0
10
24.662290551726819
20
-75.460863447682243
30
0
10
23.544965722625257
20
-76.631396151081901
30
0
0
SPLINE
5
547
100
AcDbEntity
8
0
100
AcDbSpline
70
0
71
2
72
6
73
3
74
0
42
0.000000001
43
0.0000000001
44
0.0000000001
40
0
40
0
40
0
40
1
40
1
40
1
10
23.544965722625257
20
-76.631396151081901
30
0
10
22.427640893523694
20
-77.801928854481559
30
0
10
22.427640893523694
20
-79.717345572010856
30
0
0
SPLINE
5
548
100
AcDbEntity
8
0
100
AcDbSpline
70
0
71
2
72
6
73
3
74
0
42
0.000000001
43
0.0000000001
44
0.0000000001
40
0
40
0
40
0
40
1
40
1
40
1
10
22.427640893523694
20
-79.717345572010856
30
0
10
22.427640893523694
20
-81.694834566609245
30
0
10
23.593736627166273
20
-82.900837994114738
30
0
0
SPLINE
5
549
100
AcDbEntity
8
0
100
AcDbSpline
70
0
71
2
72
6
73
3
74
0
42
0.000000001
43
0.0000000001
44
0.0000000001
40
0
40
0
40
0
40
1
40
1
40
1
10
23.593736627166273
20
-82.900837994114738
30
0
10
24.759841897552015
20
-84.106840229527336
30
0
10
26.515632608001233
20
-84.106840229527336
30
0
0
SPLINE
5
550
100
AcDbEntity
8
0
100
AcDbSpline
70
0
71
2
72
6
73
3
74
0
42
0.000000001
43
0.0000000001
44
0.0000000001
40
0
40
0
40
0
40
1
40
1
40
1
10
26.515632608001233
20
-84.106840229527336
30
0
10
27.783714273040296
20
-84.106840229527336
30
0
10
28.834529855315687
20
-83.424029684559684
30
0
0
SPLINE
5
551
100
AcDbEntity
8
0
100
AcDbSpline
70
0
71
2
72
6
73
3
74
0
42
0.000000001
43
0.0000000001
44
0.0000000001
40
0
40
0
40
0
40
1
40
1
40
1
10
28.834529855315687
20
-83.424029684559684
30
0
10
29.885345437591077
20
-82.741220331684929
30
0
10
30.430713632171155
20
-81.477576828495842
30
0
0
SPLINE
5
552
100
AcDbEntity
8
0
100
AcDbSpline
70
0
71
2
72
6
73
3
74
0
42
0.000000001
43
0.0000000001
44
0.0000000001
40
0
40
0
40
0
40
1
40
1
40
1
10
30.430713632171155
20
-81.477576828495842
30
0
10
30.976072290008069
20
-80.213933325306755
30
0
10
30.976072290008069
20
-77.819664812580925
30
0
0
SPLINE
5
553
100
AcDbEntity
8
0
100
AcDbSpline
70
0
71
2
72
6
73
3
74
0
42
0.000000001
43
0.0000000001
44
0.0000000001
40
0
40
0
40
0
40
1
40
1
40
1
10
30.976072290008069
20
-77.819664812580925
30
0
10
30.976072290008069
20
-75.327849722401481
30
0
10
30.435148217742444
20
-73.85138306667028
30
0
0
SPLINE
5
554
100
AcDbEntity
8
0
100
AcDbSpline
70
0
71
2
72
6
73
3
74
0
42
0.000000001
43
0.0000000001
44
0.0000000001
40
0
40
0
40
0
40
1
40
1
40
1
10
30.435148217742444
20
-73.85138306667028
30
0
10
29.894214608733655
20
-72.374916410939079
30
0
10
28.825660684173108
20
-71.603429651753288
30
0
0
SPLINE
5
555
100
AcDbEntity
8
0
100
AcDbSpline
70
0
71
2
72
6
73
3
74
0
42
0.000000001
43
0.0000000001
44
0.0000000001
40
0
40
0
40
0
40
1
40
1
40
1
10
28.825660684173108
20
-71.603429651753288
30
0
10
27.757106759612562
20
-70.831942892567497
30
0
10
26.320548989837171
20
-70.831942892567497
30
0
0
SPLINE
5
556
100
AcDbEntity
8
0
100
AcDbSpline
70
0
71
2
72
6
73
3
74
0
42
0.000000001
43
0.0000000001
44
0.0000000001
40
0
40
0
40
0
40
1
40
1
40
1
10
26.320548989837171
20
-70.831942892567497
30
0
10
24.795309045379163
20
-70.831942892567497
30
0
10
23.828731515471937
20
-71.678805685536247
30
0
0
SPLINE
5
557
100
AcDbEntity
8
0
100
AcDbSpline
70
0
71
2
72
6
73
3
74
0
42
0.000000001
43
0.0000000001
44
0.0000000001
40
0
40
0
40
0
40
1
40
1
40
1
10
23.828731515471937
20
-71.678805685536247
30
0
10
22.86215398556471
20
-72.525666094319206
30
0
10
22.667070367400648
20
-74.059772825734001
30
0
0
SPLINE
5
558
100
AcDbEntity
8
0
100
AcDbSpline
70
0
71
2
72
6
73
3
74
0
42
0.000000001
43
0.0000000001
44
0.0000000001
40
0
40
0
40
0
40
1
40
1
40
1
10
29.20253370053053
20
-79.797153807179313
30
0
10
29.20253370053053
20
-81.171642876164299
30
0
10
28.470951058928968
20
-81.978600359455925
30
0
0
SPLINE
5
559
100
AcDbEntity
8
0
100
AcDbSpline
70
0
71
2
72
6
73
3
74
0
42
0.000000001
43
0.0000000001
44
0.0000000001
40
0
40
0
40
0
40
1
40
1
40
1
10
28.470951058928968
20
-81.978600359455925
30
0
10
27.739368417327405
20
-82.785557842747551
30
0
10
26.71072576290846
20
-82.785557842747551
30
0
0
SPLINE
5
560
100
AcDbEntity
8
0
100
AcDbSpline
70
0
71
2
72
6
73
3
74
0
42
0.000000001
43
0.0000000001
44
0.0000000001
40
0
40
0
40
0
40
1
40
1
40
1
10
26.71072576290846
20
-82.785557842747551
30
0
10
25.646606423919202
20
-82.785557842747551
30
0
10
24.857383706634046
20
-81.916526890293937
30
0
0
SPLINE
5
561
100
AcDbEntity
8
0
100
AcDbSpline
70
0
71
2
72
6
73
3
74
0
42
0.000000001
43
0.0000000001
44
0.0000000001
40
0
40
0
40
0
40
1
40
1
40
1
10
24.857383706634046
20
-81.916526890293937
30
0
10
24.06816098934889
20
-81.047494745747429
30
0
10
24.06816098934889
20
-79.664138889805656
30
0
0
SPLINE
5
562
100
AcDbEntity
8
0
100
AcDbSpline
70
0
71
2
72
6
73
3
74
0
42
0.000000001
43
0.0000000001
44
0.0000000001
40
0
40
0
40
0
40
1
40
1
40
1
10
24.06816098934889
20
-79.664138889805656
30
0
10
24.06816098934889
20
-78.422665930287224
30
0
10
24.817481973235608
20
-77.646744585530143
30
0
0
SPLINE
5
563
100
AcDbEntity
8
0
100
AcDbSpline
70
0
71
2
72
6
73
3
74
0
42
0.000000001
43
0.0000000001
44
0.0000000001
40
0
40
0
40
0
40
1
40
1
40
1
10
24.817481973235608
20
-77.646744585530143
30
0
10
25.566793420379163
20
-76.870823240773063
30
0
10
26.666389443938733
20
-76.870823240773063
30
0
0
SPLINE
5
564
100
AcDbEntity
8
0
100
AcDbSpline
70
0
71
2
72
6
73
3
74
0
42
0.000000001
43
0.0000000001
44
0.0000000001
40
0
40
0
40
0
40
1
40
1
40
1
10
26.666389443938733
20
-76.870823240773063
30
0
10
27.774845101897718
20
-76.870823240773063
30
0
10
28.488689401214124
20
-77.646744585530143
30
0
0
SPLINE
5
565
100
AcDbEntity
8
0
100
AcDbSpline
70
0
71
2
72
6
73
3
74
0
42
0.000000001
43
0.0000000001
44
0.0000000001
40
0
40
0
40
0
40
1
40
1
40
1
10
28.488689401214124
20
-77.646744585530143
30
0
10
29.20253370053053
20
-78.422665930287224
30
0
10
29.20253370053053
20
-79.797153807179313
30
0
0
LINE
5
566
100
AcDbEntity
8
0
100
AcDbLine
10
40.810304620330335
20
-80.870142317311149
30
0
11
39.222999551360608
21
-80.745994186894279
31
0
0
SPLINE
5
567
100
AcDbEntity
8
0
100
AcDbSpline
70
0
71
2
72
6
73
3
74
0
42
0.000000001
43
0.0000000001
44
0.0000000001
40
0
40
0
40
0
40
1
40
1
40
1
10
39.222999551360608
20
-80.745994186894279
30
0
10
39.010168054168226
20
-81.685967779652458
30
0
10
38.619991281096937
20
-82.111615276829582
30
0
0
SPLINE
5
568
100
AcDbEntity
8
0
100
AcDbSpline
70
0
71
2
72
6
73
3
74
0
42
0.000000001
43
0.0000000001
44
0.0000000001
40
0
40
0
40
0
40
1
40
1
40
1
10
38.619991281096937
20
-82.111615276829582
30
0
10
37.972656228606702
20
-82.794425821797233
30
0
10
37.023817040984632
20
-82.794425821797233
30
0
0
SPLINE
5
569
100
AcDbEntity
8
0
100
AcDbSpline
70
0
71
2
72
6
73
3
74
0
42
0.000000001
43
0.0000000001
44
0.0000000001
40
0
40
0
40
0
40
1
40
1
40
1
10
37.023817040984632
20
-82.794425821797233
30
0
10
36.261192300384046
20
-82.794425821797233
30
0
10
35.684801080291273
20
-82.368778324620109
30
0
0
SPLINE
5
570
100
AcDbEntity
8
0
100
AcDbSpline
70
0
71
2
72
6
73
3
74
0
42
0.000000001
43
0.0000000001
44
0.0000000001
40
0
40
0
40
0
40
1
40
1
40
1
10
35.684801080291273
20
-82.368778324620109
30
0
10
34.931045510833265
20
-81.818982697026115
30
0
10
34.496532418792249
20
-80.763728952900749
30
0
0
SPLINE
5
571
100
AcDbEntity
8
0
100
AcDbSpline
70
0
71
2
72
6
73
3
74
0
42
0.000000001
43
0.0000000001
44
0.0000000001
40
0
40
0
40
0
40
1
40
1
40
1
10
34.496532418792249
20
-80.763728952900749
30
0
10
34.062009790008069
20
-79.708476400868278
30
0
10
34.044280984466077
20
-77.757590151326042
30
0
0
SPLINE
5
572
100
AcDbEntity
8
0
100
AcDbSpline
70
0
71
2
72
6
73
3
74
0
42
0.000000001
43
0.0000000001
44
0.0000000001
40
0
40
0
40
0
40
1
40
1
40
1
10
34.044280984466077
20
-77.757590151326042
30
0
10
34.620681741302015
20
-78.635489082829338
30
0
10
35.454240777556898
20
-79.061136580006462
30
0
0
SPLINE
5
573
100
AcDbEntity
8
0
100
AcDbSpline
70
0
71
2
72
6
73
3
74
0
42
0.000000001
43
0.0000000001
44
0.0000000001
40
0
40
0
40
0
40
1
40
1
40
1
10
35.454240777556898
20
-79.061136580006462
30
0
10
36.28779981381178
20
-79.486785269276481
30
0
10
37.201171853606702
20
-79.486785269276481
30
0
0
SPLINE
5
574
100
AcDbEntity
8
0
100
AcDbSpline
70
0
71
2
72
6
73
3
74
0
42
0.000000001
43
0.0000000001
44
0.0000000001
40
0
40
0
40
0
40
1
40
1
40
1
10
37.201171853606702
20
-79.486785269276481
30
0
10
38.797346093719007
20
-79.486785269276481
30
0
10
39.919105508391858
20
-78.31181917239843
30
0
0
SPLINE
5
575
100
AcDbEntity
8
0
100
AcDbSpline
70
0
71
2
72
6
73
3
74
0
42
0.000000001
43
0.0000000001
44
0.0000000001
40
0
40
0
40
0
40
1
40
1
40
1
10
39.919105508391858
20
-78.31181917239843
30
0
10
41.04086492306471
20
-77.136853075520378
30
0
10
41.04086492306471
20
-75.274644232289177
30
0
0
SPLINE
5
576
100
AcDbEntity
8
0
100
AcDbSpline
70
0
71
2
72
6
73
3
74
0
42
0.000000001
43
0.0000000001
44
0.0000000001
40
0
40
0
40
0
40
1
40
1
40
1
10
41.04086492306471
20
-75.274644232289177
30
0
10
41.04086492306471
20
-74.050906038777214
30
0
10
40.513244607512952
20
-73.000088072316032
30
0
0
SPLINE
5
577
100
AcDbEntity
8
0
100
AcDbSpline
70
0
71
2
72
6
73
3
74
0
42
0.000000001
43
0.0000000001
44
0.0000000001
40
0
40
0
40
0
40
1
40
1
40
1
10
40.513244607512952
20
-73.000088072316032
30
0
10
39.98561475521803
20
-71.949267721669059
30
0
10
39.06337354428053
20
-71.390605307118278
30
0
0
SPLINE
5
578
100
AcDbEntity
8
0
100
AcDbSpline
70
0
71
2
72
6
73
3
74
0
42
0.000000001
43
0.0000000001
44
0.0000000001
40
0
40
0
40
0
40
1
40
1
40
1
10
39.06337354428053
20
-71.390605307118278
30
0
10
38.141141870086194
20
-70.831942892567497
30
0
10
36.970611550872327
20
-70.831942892567497
30
0
0
SPLINE
5
579
100
AcDbEntity
8
0
100
AcDbSpline
70
0
71
2
72
6
73
3
74
0
42
0.000000001
43
0.0000000001
44
0.0000000001
40
0
40
0
40
0
40
1
40
1
40
1
10
36.970611550872327
20
-70.831942892567497
30
0
10
34.975381829802991
20
-70.831942892567497
30
0
10
33.716178872649671
20
-72.29954037715612
30
0
0
SPLINE
5
580
100
AcDbEntity
8
0
100
AcDbSpline
70
0
71
2
72
6
73
3
74
0
42
0.000000001
43
0.0000000001
44
0.0000000001
40
0
40
0
40
0
40
1
40
1
40
1
10
33.716178872649671
20
-72.29954037715612
30
0
10
32.456966378753187
20
-73.767140245930534
30
0
10
32.456966378753187
20
-77.136853075520378
30
0
0
SPLINE
5
581
100
AcDbEntity
8
0
100
AcDbSpline
70
0
71
2
72
6
73
3
74
0
42
0.000000001
43
0.0000000001
44
0.0000000001
40
0
40
0
40
0
40
1
40
1
40
1
10
32.456966378753187
20
-77.136853075520378
30
0
10
32.456966378753187
20
-80.905611849324089
30
0
10
33.849187829558851
20
-82.617072201268059
30
0
0
SPLINE
5
582
100
AcDbEntity
8
0
100
AcDbSpline
70
0
71
2
72
6
73
3
74
0
42
0.000000001
43
0.0000000001
44
0.0000000001
40
0
40
0
40
0
40
1
40
1
40
1
10
33.849187829558851
20
-82.617072201268059
30
0
10
35.064064004485608
20
-84.106840229527336
30
0
10
37.121358850066663
20
-84.106840229527336
30
0
0
SPLINE
5
583
100
AcDbEntity
8
0
100
AcDbSpline
70
0
71
2
72
6
73
3
74
0
42
0.000000001
43
0.0000000001
44
0.0000000001
40
0
40
0
40
0
40
1
40
1
40
1
10
37.121358850066663
20
-84.106840229527336
30
0
10
38.655467965667249
20
-84.106840229527336
30
0
10
39.635339715545179
20
-83.246677256123405
30
0
0
SPLINE
5
584
100
AcDbEntity
8
0
100
AcDbSpline
70
0
71
2
72
6
73
3
74
0
42
0.000000001
43
0.0000000001
44
0.0000000001
40
0
40
0
40
0
40
1
40
1
40
1
10
39.635339715545179
20
-83.246677256123405
30
0
10
40.615221002166273
20
-82.386513090626579
30
0
10
40.810304620330335
20
-80.870142317311149
30
0
0
SPLINE
5
585
100
AcDbEntity
8
0
100
AcDbSpline
70
0
71
2
72
6
73
3
74
0
42
0.000000001
43
0.0000000001
44
0.0000000001
40
0
40
0
40
0
40
1
40
1
40
1
10
34.292570092742444
20
-75.265775061146599
30
0
10
34.292570092742444
20
-74.441082811848503
30
0
10
34.642845132415296
20
-73.687332010762077
30
0
0
SPLINE
5
586
100
AcDbEntity
8
0
100
AcDbSpline
70
0
71
2
72
6
73
3
74
0
42
0.000000001
43
0.0000000001
44
0.0000000001
40
0
40
0
40
0
40
1
40
1
40
1
10
34.642845132415296
20
-73.687332010762077
30
0
10
34.993120172088148
20
-72.93357882548986
30
0
10
35.62272641903639
20
-72.538967466847282
30
0
0
SPLINE
5
587
100
AcDbEntity
8
0
100
AcDbSpline
70
0
71
2
72
6
73
3
74
0
42
0.000000001
43
0.0000000001
44
0.0000000001
40
0
40
0
40
0
40
1
40
1
40
1
10
35.62272641903639
20
-72.538967466847282
30
0
10
36.252323129241468
20
-72.144356108204704
30
0
10
36.944004037444593
20
-72.144356108204704
30
0
0
SPLINE
5
588
100
AcDbEntity
8
0
100
AcDbSpline
70
0
71
2
72
6
73
3
74
0
42
0.000000001
43
0.0000000001
44
0.0000000001
40
0
40
0
40
0
40
1
40
1
40
1
10
36.944004037444593
20
-72.144356108204704
30
0
10
37.954917886321546
20
-72.144356108204704
30
0
10
38.682065942351819
20
-72.960181570546013
30
0
0
SPLINE
5
589
100
AcDbEntity
8
0
100
AcDbSpline
70
0
71
2
72
6
73
3
74
0
42
0.000000001
43
0.0000000001
44
0.0000000001
40
0
40
0
40
0
40
1
40
1
40
1
10
38.682065942351819
20
-72.960181570546013
30
0
10
39.409213998382093
20
-73.776007032887321
30
0
10
39.409213998382093
20
-75.177100039021354
30
0
0
SPLINE
5
590
100
AcDbEntity
8
0
100
AcDbSpline
70
0
71
2
72
6
73
3
74
0
42
0.000000001
43
0.0000000001
44
0.0000000001
40
0
40
0
40
0
40
1
40
1
40
1
10
39.409213998382093
20
-75.177100039021354
30
0
10
39.409213998382093
20
-76.524985170857292
30
0
10
38.690935113494398
20
-77.300905323521476
30
0
0
SPLINE
5
591
100
AcDbEntity
8
0
100
AcDbSpline
70
0
71
2
72
6
73
3
74
0
42
0.000000001
43
0.0000000001
44
0.0000000001
40
0
40
0
40
0
40
1
40
1
40
1
10
38.690935113494398
20
-77.300905323521476
30
0
10
37.972656228606702
20
-78.076825476185661
30
0
10
36.88192937618971
20
-78.076825476185661
30
0
0
SPLINE
5
592
100
AcDbEntity
8
0
100
AcDbSpline
70
0
71
2
72
6
73
3
74
0
42
0.000000001
43
0.0000000001
44
0.0000000001
40
0
40
0
40
0
40
1
40
1
40
1
10
36.88192937618971
20
-78.076825476185661
30
0
10
35.80008123165846
20
-78.076825476185661
30
0
10
35.046325662200452
20
-77.300905323521476
30
0
0
SPLINE
5
593
100
AcDbEntity
8
0
100
AcDbSpline
70
0
71
2
72
6
73
3
74
0
42
0.000000001
43
0.0000000001
44
0.0000000001
40
0
40
0
40
0
40
1
40
1
40
1
10
35.046325662200452
20
-77.300905323521476
30
0
10
34.292570092742444
20
-76.524985170857292
30
0
10
34.292570092742444
20
-75.265775061146599
30
0
0
LINE
5
594
100
AcDbEntity
8
0
100
AcDbLine
10
42.867618539397718
20
-74.059772825734001
30
0
11
44.40171811825514
21
-74.201655722157341
31
0
0
SPLINE
5
595
100
AcDbEntity
8
0
100
AcDbSpline
70
0
71
2
72
6
73
3
74
0
42
0.000000001
43
0.0000000001
44
0.0000000001
40
0
40
0
40
0
40
1
40
1
40
1
10
44.40171811825514
20
-74.201655722157341
30
0
10
44.596811273162366
20
-73.119800425068718
30
0
10
45.146604516570569
20
-72.632079458729606
30
0
0
SPLINE
5
596
100
AcDbEntity
8
0
100
AcDbSpline
70
0
71
2
72
6
73
3
74
0
42
0.000000001
43
0.0000000001
44
0.0000000001
40
0
40
0
40
0
40
1
40
1
40
1
10
45.146604516570569
20
-72.632079458729606
30
0
10
45.696397759978773
20
-72.144356108204704
30
0
10
46.55656430966139
20
-72.144356108204704
30
0
0
SPLINE
5
597
100
AcDbEntity
8
0
100
AcDbSpline
70
0
71
2
72
6
73
3
74
0
42
0.000000001
43
0.0000000001
44
0.0000000001
40
0
40
0
40
0
40
1
40
1
40
1
10
46.55656430966139
20
-72.144356108204704
30
0
10
47.292581536834241
20
-72.144356108204704
30
0
10
47.846809365813733
20
-72.481327391163688
30
0
0
SPLINE
5
598
100
AcDbEntity
8
0
100
AcDbSpline
70
0
71
2
72
6
73
3
74
0
42
0.000000001
43
0.0000000001
44
0.0000000001
40
0
40
0
40
0
40
1
40
1
40
1
10
47.846809365813733
20
-72.481327391163688
30
0
10
48.401037194793226
20
-72.818298674122673
30
0
10
48.755746820037366
20
-73.381395674244743
30
0
0
SPLINE
5
599
100
AcDbEntity
8
0
100
AcDbSpline
70
0
71
2
72
6
73
3
74
0
42
0.000000001
43
0.0000000001
44
0.0000000001
40
0
40
0
40
0
40
1
40
1
40
1
10
48.755746820037366
20
-73.381395674244743
30
0
10
49.110456445281507
20
-73.944492674366813
30
0
10
49.349876382415296
20
-74.902201033131462
30
0
0
SPLINE
5
600
100
AcDbEntity
8
0
100
AcDbSpline
70
0
71
2
72
6
73
3
74
0
42
0.000000001
43
0.0000000001
44
0.0000000001
40
0
40
0
40
0
40
1
40
1
40
1
10
49.349876382415296
20
-74.902201033131462
30
0
10
49.589305856292249
20
-75.85990939189611
30
0
10
49.589305856292249
20
-76.853088474766594
30
0
0
SPLINE
5
601
100
AcDbEntity
8
0
100
AcDbSpline
70
0
71
2
72
6
73
3
74
0
42
0.000000001
43
0.0000000001
44
0.0000000001
40
0
40
0
40
0
40
1
40
1
40
1
10
49.589305856292249
20
-76.853088474766594
30
0
10
49.589305856292249
20
-76.959500647084099
30
0
10
49.580436685149671
20
-77.172324991719108
30
0
0
SPLINE
5
602
100
AcDbEntity
8
0
100
AcDbSpline
70
0
71
2
72
6
73
3
74
0
42
0.000000001
43
0.0000000001
44
0.0000000001
40
0
40
0
40
0
40
1
40
1
40
1
10
49.580436685149671
20
-77.172324991719108
30
0
10
49.101587274138929
20
-76.409705019490104
30
0
10
48.272462823455335
20
-75.935285425679069
30
0
0
SPLINE
5
603
100
AcDbEntity
8
0
100
AcDbSpline
70
0
71
2
72
6
73
3
74
0
42
0.000000001
43
0.0000000001
44
0.0000000001
40
0
40
0
40
0
40
1
40
1
40
1
10
48.272462823455335
20
-75.935285425679069
30
0
10
47.443328836028577
20
-75.460863447682243
30
0
10
46.476760842864515
20
-75.460863447682243
30
0
0
SPLINE
5
604
100
AcDbEntity
8
0
100
AcDbSpline
70
0
71
2
72
6
73
3
74
0
42
0.000000001
43
0.0000000001
44
0.0000000001
40
0
40
0
40
0
40
1
40
1
40
1
10
46.476760842864515
20
-75.460863447682243
30
0
10
44.86283872372389
20
-75.460863447682243
30
0
10
43.745513894622327
20
-76.631396151081901
30
0
0
SPLINE
5
605
100
AcDbEntity
8
0
100
AcDbSpline
70
0
71
2
72
6
73
3
74
0
42
0.000000001
43
0.0000000001
44
0.0000000001
40
0
40
0
40
0
40
1
40
1
40
1
10
43.745513894622327
20
-76.631396151081901
30
0
10
42.628189065520765
20
-77.801928854481559
30
0
10
42.628189065520765
20
-79.717345572010856
30
0
0
SPLINE
5
606
100
AcDbEntity
8
0
100
AcDbSpline
70
0
71
2
72
6
73
3
74
0
42
0.000000001
43
0.0000000001
44
0.0000000001
40
0
40
0
40
0
40
1
40
1
40
1
10
42.628189065520765
20
-79.717345572010856
30
0
10
42.628189065520765
20
-81.694834566609245
30
0
10
43.794284799163343
20
-82.900837994114738
30
0
0
SPLINE
5
607
100
AcDbEntity
8
0
100
AcDbSpline
70
0
71
2
72
6
73
3
74
0
42
0.000000001
43
0.0000000001
44
0.0000000001
40
0
40
0
40
0
40
1
40
1
40
1
10
43.794284799163343
20
-82.900837994114738
30
0
10
44.960390069549085
20
-84.106840229527336
30
0
10
46.716180779998304
20
-84.106840229527336
30
0
0
SPLINE
5
608
100
AcDbEntity
8
0
100
AcDbSpline
70
0
71
2
72
6
73
3
74
0
42
0.000000001
43
0.0000000001
44
0.0000000001
40
0
40
0
40
0
40
1
40
1
40
1
10
46.716180779998304
20
-84.106840229527336
30
0
10
47.984262445037366
20
-84.106840229527336
30
0
10
49.035078027312757
20
-83.424029684559684
30
0
0
SPLINE
5
609
100
AcDbEntity
8
0
100
AcDbSpline
70
0
71
2
72
6
73
3
74
0
42
0.000000001
43
0.0000000001
44
0.0000000001
40
0
40
0
40
0
40
1
40
1
40
1
10
49.035078027312757
20
-83.424029684559684
30
0
10
50.085893609588148
20
-82.741220331684929
30
0
10
50.631261804168226
20
-81.477576828495842
30
0
0
SPLINE
5
610
100
AcDbEntity
8
0
100
AcDbSpline
70
0
71
2
72
6
73
3
74
0
42
0.000000001
43
0.0000000001
44
0.0000000001
40
0
40
0
40
0
40
1
40
1
40
1
10
50.631261804168226
20
-81.477576828495842
30
0
10
51.17662046200514
20
-80.213933325306755
30
0
10
51.17662046200514
20
-77.819664812580925
30
0
0
SPLINE
5
611
100
AcDbEntity
8
0
100
AcDbSpline
70
0
71
2
72
6
73
3
74
0
42
0.000000001
43
0.0000000001
44
0.0000000001
40
0
40
0
40
0
40
1
40
1
40
1
10
51.17662046200514
20
-77.819664812580925
30
0
10
51.17662046200514
20
-75.327849722401481
30
0
10
50.635696389739515
20
-73.85138306667028
30
0
0
SPLINE
5
612
100
AcDbEntity
8
0
100
AcDbSpline
70
0
71
2
72
6
73
3
74
0
42
0.000000001
43
0.0000000001
44
0.0000000001
40
0
40
0
40
0
40
1
40
1
40
1
10
50.635696389739515
20
-73.85138306667028
30
0
10
50.094762780730726
20
-72.374916410939079
30
0
10
49.026208856170179
20
-71.603429651753288
30
0
0
SPLINE
5
613
100
AcDbEntity
8
0
100
AcDbSpline
70
0
71
2
72
6
73
3
74
0
42
0.000000001
43
0.0000000001
44
0.0000000001
40
0
40
0
40
0
40
1
40
1
40
1
10
49.026208856170179
20
-71.603429651753288
30
0
10
47.957654931609632
20
-70.831942892567497
30
0
10
46.521097161834241
20
-70.831942892567497
30
0
0
SPLINE
5
614
100
AcDbEntity
8
0
100
AcDbSpline
70
0
71
2
72
6
73
3
74
0
42
0.000000001
43
0.0000000001
44
0.0000000001
40
0
40
0
40
0
40
1
40
1
40
1
10
46.521097161834241
20
-70.831942892567497
30
0
10
44.995857217376233
20
-70.831942892567497
30
0
10
44.029279687469007
20
-71.678805685536247
30
0
0
SPLINE
5
615
100
AcDbEntity
8
0
100
AcDbSpline
70
0
71
2
72
6
73
3
74
0
42
0.000000001
43
0.0000000001
44
0.0000000001
40
0
40
0
40
0
40
1
40
1
40
1
10
44.029279687469007
20
-71.678805685536247
30
0
10
43.06270215756178
20
-72.525666094319206
30
0
10
42.867618539397718
20
-74.059772825734001
30
0
0
SPLINE
5
616
100
AcDbEntity
8
0
100
AcDbSpline
70
0
71
2
72
6
73
3
74
0
42
0.000000001
43
0.0000000001
44
0.0000000001
40
0
40
0
40
0
40
1
40
1
40
1
10
49.403091409270765
20
-79.797153807179313
30
0
10
49.403091409270765
20
-81.171642876164299
30
0
10
48.671508767669202
20
-81.978600359455925
30
0
0
SPLINE
5
617
100
AcDbEntity
8
0
100
AcDbSpline
70
0
71
2
72
6
73
3
74
0
42
0.000000001
43
0.0000000001
44
0.0000000001
40
0
40
0
40
0
40
1
40
1
40
1
10
48.671508767669202
20
-81.978600359455925
30
0
10
47.93992612606764
20
-82.785557842747551
30
0
10
46.91127393490553
20
-82.785557842747551
30
0
0
SPLINE
5
618
100
AcDbEntity
8
0
100
AcDbSpline
70
0
71
2
72
6
73
3
74
0
42
0.000000001
43
0.0000000001
44
0.0000000001
40
0
40
0
40
0
40
1
40
1
40
1
10
46.91127393490553
20
-82.785557842747551
30
0
10
45.847154595916273
20
-82.785557842747551
30
0
10
45.057931878631116
20
-81.916526890293937
30
0
0
SPLINE
5
619
100
AcDbEntity
8
0
100
AcDbSpline
70
0
71
2
72
6
73
3
74
0
42
0.000000001
43
0.0000000001
44
0.0000000001
40
0
40
0
40
0
40
1
40
1
40
1
10
45.057931878631116
20
-81.916526890293937
30
0
10
44.26870916134596
20
-81.047494745747429
30
0
10
44.26870916134596
20
-79.664138889805656
30
0
0
SPLINE
5
620
100
AcDbEntity
8
0
100
AcDbSpline
70
0
71
2
72
6
73
3
74
0
42
0.000000001
43
0.0000000001
44
0.0000000001
40
0
40
0
40
0
40
1
40
1
40
1
10
44.26870916134596
20
-79.664138889805656
30
0
10
44.26870916134596
20
-78.422665930287224
30
0
10
45.018020608489515
20
-77.646744585530143
30
0
0
SPLINE
5
621
100
AcDbEntity
8
0
100
AcDbSpline
70
0
71
2
72
6
73
3
74
0
42
0.000000001
43
0.0000000001
44
0.0000000001
40
0
40
0
40
0
40
1
40
1
40
1
10
45.018020608489515
20
-77.646744585530143
30
0
10
45.767341592376233
20
-76.870823240773063
30
0
10
46.866937615935804
20
-76.870823240773063
30
0
0
SPLINE
5
622
100
AcDbEntity
8
0
100
AcDbSpline
70
0
71
2
72
6
73
3
74
0
42
0.000000001
43
0.0000000001
44
0.0000000001
40
0
40
0
40
0
40
1
40
1
40
1
10
46.866937615935804
20
-76.870823240773063
30
0
10
47.975393273894788
20
-76.870823240773063
30
0
10
48.689237573211194
20
-77.646744585530143
30
0
0
SPLINE
5
623
100
AcDbEntity
8
0
100
AcDbSpline
70
0
71
2
72
6
73
3
74
0
42
0.000000001
43
0.0000000001
44
0.0000000001
40
0
40
0
40
0
40
1
40
1
40
1
10
48.689237573211194
20
-77.646744585530143
30
0
10
49.403091409270765
20
-78.422665930287224
30
0
10
49.403091409270765
20
-79.797153807179313
30
0
0
LINE
5
624
100
AcDbEntity
8
0
100
AcDbLine
10
52.737318017547132
20
-74.48542151500402
30
0
11
54.333501794402601
21
-74.69824585963903
31
0
0
SPLINE
5
625
100
AcDbEntity
8
0
100
AcDbSpline
70
0
71
2
72
6
73
3
74
0
42
0.000000001
43
0.0000000001
44
0.0000000001
40
0
40
0
40
0
40
1
40
1
40
1
10
54.333501794402601
20
-74.69824585963903
30
0
10
54.608398416106702
20
-73.341491556660515
30
0
10
55.269037225310804
20
-72.742925024525505
30
0
0
SPLINE
5
626
100
AcDbEntity
8
0
100
AcDbSpline
70
0
71
2
72
6
73
3
74
0
42
0.000000001
43
0.0000000001
44
0.0000000001
40
0
40
0
40
0
40
1
40
1
40
1
10
55.269037225310804
20
-72.742925024525505
30
0
10
55.929676034514905
20
-72.144356108204704
30
0
10
56.878515222136976
20
-72.144356108204704
30
0
0
SPLINE
5
627
100
AcDbEntity
8
0
100
AcDbSpline
70
0
71
2
72
6
73
3
74
0
42
0.000000001
43
0.0000000001
44
0.0000000001
40
0
40
0
40
0
40
1
40
1
40
1
10
56.878515222136976
20
-72.144356108204704
30
0
10
58.004709222381116
20
-72.144356108204704
30
0
10
58.780637719695569
20
-72.924712038533073
30
0
0
SPLINE
5
628
100
AcDbEntity
8
0
100
AcDbSpline
70
0
71
2
72
6
73
3
74
0
42
0.000000001
43
0.0000000001
44
0.0000000001
40
0
40
0
40
0
40
1
40
1
40
1
10
58.780637719695569
20
-72.924712038533073
30
0
10
59.556556680266858
20
-73.705065584675651
30
0
10
59.556556680266858
20
-74.857862329975944
30
0
0
SPLINE
5
629
100
AcDbEntity
8
0
100
AcDbSpline
70
0
71
2
72
6
73
3
74
0
42
0.000000001
43
0.0000000001
44
0.0000000001
40
0
40
0
40
0
40
1
40
1
40
1
10
59.556556680266858
20
-74.857862329975944
30
0
10
59.556556680266858
20
-75.957453585163933
30
0
10
58.838277795379163
20
-76.671301460759025
30
0
0
SPLINE
5
630
100
AcDbEntity
8
0
100
AcDbSpline
70
0
71
2
72
6
73
3
74
0
42
0.000000001
43
0.0000000001
44
0.0000000001
40
0
40
0
40
0
40
1
40
1
40
1
10
58.838277795379163
20
-76.671301460759025
30
0
10
58.119989373748304
20
-77.385149336354118
30
0
10
57.011533715789319
20
-77.385149336354118
30
0
0
SPLINE
5
631
100
AcDbEntity
8
0
100
AcDbSpline
70
0
71
2
72
6
73
3
74
0
42
0.000000001
43
0.0000000001
44
0.0000000001
40
0
40
0
40
0
40
1
40
1
40
1
10
57.011533715789319
20
-77.385149336354118
30
0
10
56.559282281463148
20
-77.385149336354118
30
0
10
55.885339715545179
20
-77.207794523732048
30
0
0
LINE
5
632
100
AcDbEntity
8
0
100
AcDbLine
10
55.885339715545179
20
-77.207794523732048
30
0
11
56.062694528167249
21
-78.608886337773185
31
0
0
SPLINE
5
633
100
AcDbEntity
8
0
100
AcDbSpline
70
0
71
2
72
6
73
3
74
0
42
0.000000001
43
0.0000000001
44
0.0000000001
40
0
40
0
40
0
40
1
40
1
40
1
10
56.062694528167249
20
-78.608886337773185
30
0
10
56.222310998504163
20
-78.591151571766716
30
0
10
56.319852807586194
20
-78.591151571766716
30
0
0
SPLINE
5
634
100
AcDbEntity
8
0
100
AcDbSpline
70
0
71
2
72
6
73
3
74
0
42
0.000000001
43
0.0000000001
44
0.0000000001
40
0
40
0
40
0
40
1
40
1
40
1
10
56.319852807586194
20
-78.591151571766716
30
0
10
57.339635827605726
20
-78.591151571766716
30
0
10
58.155466058318616
20
-79.123211241261345
30
0
0
SPLINE
5
635
100
AcDbEntity
8
0
100
AcDbSpline
70
0
71
2
72
6
73
3
74
0
42
0.000000001
43
0.0000000001
44
0.0000000001
40
0
40
0
40
0
40
1
40
1
40
1
10
58.155466058318616
20
-79.123211241261345
30
0
10
58.971286752288343
20
-79.655270910755974
30
0
10
58.971286752288343
20
-80.763728952900749
30
0
0
SPLINE
5
636
100
AcDbEntity
8
0
100
AcDbSpline
70
0
71
2
72
6
73
3
74
0
42
0.000000001
43
0.0000000001
44
0.0000000001
40
0
40
0
40
0
40
1
40
1
40
1
10
58.971286752288343
20
-80.763728952900749
30
0
10
58.971286752288343
20
-81.64162907649694
30
0
10
58.377157189910413
20
-82.218027449147087
30
0
0
SPLINE
5
637
100
AcDbEntity
8
0
100
AcDbSpline
70
0
71
2
72
6
73
3
74
0
42
0.000000001
43
0.0000000001
44
0.0000000001
40
0
40
0
40
0
40
1
40
1
40
1
10
58.377157189910413
20
-82.218027449147087
30
0
10
57.783018090789319
20
-82.794425821797233
30
0
10
56.843048074309827
20
-82.794425821797233
30
0
0
SPLINE
5
638
100
AcDbEntity
8
0
100
AcDbSpline
70
0
71
2
72
6
73
3
74
0
42
0.000000001
43
0.0000000001
44
0.0000000001
40
0
40
0
40
0
40
1
40
1
40
1
10
56.843048074309827
20
-82.794425821797233
30
0
10
55.911947228972913
20
-82.794425821797233
30
0
10
55.291210153167249
20
-82.209159470097404
30
0
0
SPLINE
5
639
100
AcDbEntity
8
0
100
AcDbSpline
70
0
71
2
72
6
73
3
74
0
42
0.000000001
43
0.0000000001
44
0.0000000001
40
0
40
0
40
0
40
1
40
1
40
1
10
55.291210153167249
20
-82.209159470097404
30
0
10
54.670473077361585
20
-81.623893118397575
30
0
10
54.493118264739515
20
-80.453361607090812
30
0
0
LINE
5
640
100
AcDbEntity
8
0
100
AcDbLine
10
54.493118264739515
20
-80.453361607090812
30
0
11
52.896934487884046
21
-80.737126207844597
31
0
0
SPLINE
5
641
100
AcDbEntity
8
0
100
AcDbSpline
70
0
71
2
72
6
73
3
74
0
42
0.000000001
43
0.0000000001
44
0.0000000001
40
0
40
0
40
0
40
1
40
1
40
1
10
52.896934487884046
20
-80.737126207844597
30
0
10
53.189569451873304
20
-82.342174387471061
30
0
10
54.227090814177991
20
-83.224506712452751
30
0
0
SPLINE
5
642
100
AcDbEntity
8
0
100
AcDbSpline
70
0
71
2
72
6
73
3
74
0
42
0.000000001
43
0.0000000001
44
0.0000000001
40
0
40
0
40
0
40
1
40
1
40
1
10
54.227090814177991
20
-83.224506712452751
30
0
10
55.264602639739515
20
-84.106840229527336
30
0
10
56.807580926482679
20
-84.106840229527336
30
0
0
SPLINE
5
643
100
AcDbEntity
8
0
100
AcDbSpline
70
0
71
2
72
6
73
3
74
0
42
0.000000001
43
0.0000000001
44
0.0000000001
40
0
40
0
40
0
40
1
40
1
40
1
10
56.807580926482679
20
-84.106840229527336
30
0
10
57.871700265471937
20
-84.106840229527336
30
0
10
58.767333962981702
20
-83.65015540172277
30
0
0
SPLINE
5
644
100
AcDbEntity
8
0
100
AcDbSpline
70
0
71
2
72
6
73
3
74
0
42
0.000000001
43
0.0000000001
44
0.0000000001
40
0
40
0
40
0
40
1
40
1
40
1
10
58.767333962981702
20
-83.65015540172277
30
0
10
59.662967660491468
20
-83.193470573918205
30
0
10
60.137382485930921
20
-82.404247856633049
30
0
0
SPLINE
5
645
100
AcDbEntity
8
0
100
AcDbSpline
70
0
71
2
72
6
73
3
74
0
42
0.000000001
43
0.0000000001
44
0.0000000001
40
0
40
0
40
0
40
1
40
1
40
1
10
60.137382485930921
20
-82.404247856633049
30
0
10
60.611806848113538
20
-81.615025139347892
30
0
10
60.611806848113538
20
-80.728259420887809
30
0
0
SPLINE
5
646
100
AcDbEntity
8
0
100
AcDbSpline
70
0
71
2
72
6
73
3
74
0
42
0.000000001
43
0.0000000001
44
0.0000000001
40
0
40
0
40
0
40
1
40
1
40
1
10
60.611806848113538
20
-80.728259420887809
30
0
10
60.611806848113538
20
-79.885831213490349
30
0
10
60.159555413787366
20
-79.194152689473015
30
0
0
SPLINE
5
647
100
AcDbEntity
8
0
100
AcDbSpline
70
0
71
2
72
6
73
3
74
0
42
0.000000001
43
0.0000000001
44
0.0000000001
40
0
40
0
40
0
40
1
40
1
40
1
10
60.159555413787366
20
-79.194152689473015
30
0
10
59.707303979461194
20
-78.502474165455681
30
0
10
58.820539453094007
20
-78.094561434285026
30
0
0
SPLINE
5
648
100
AcDbEntity
8
0
100
AcDbSpline
70
0
71
2
72
6
73
3
74
0
42
0.000000001
43
0.0000000001
44
0.0000000001
40
0
40
0
40
0
40
1
40
1
40
1
10
58.820539453094007
20
-78.094561434285026
30
0
10
59.973331430022718
20
-77.828531599537712
30
0
10
60.611806848113538
20
-76.99053797771154
30
0
0
SPLINE
5
649
100
AcDbEntity
8
0
100
AcDbSpline
70
0
71
2
72
6
73
3
74
0
42
0.000000001
43
0.0000000001
44
0.0000000001
40
0
40
0
40
0
40
1
40
1
40
1
10
60.611806848113538
20
-76.99053797771154
30
0
10
61.250282266204358
20
-76.152541971699577
30
0
10
61.250282266204358
20
-74.893334246174675
30
0
0
SPLINE
5
650
100
AcDbEntity
8
0
100
AcDbSpline
70
0
71
2
72
6
73
3
74
0
42
0.000000001
43
0.0000000001
44
0.0000000001
40
0
40
0
40
0
40
1
40
1
40
1
10
61.250282266204358
20
-74.893334246174675
30
0
10
61.250282266204358
20
-73.190741873280388
30
0
10
60.00880811459303
20
-72.006907797352653
30
0
0
SPLINE
5
651
100
AcDbEntity
8
0
100
AcDbSpline
70
0
71
2
72
6
73
3
74
0
42
0.000000001
43
0.0000000001
44
0.0000000001
40
0
40
0
40
0
40
1
40
1
40
1
10
60.00880811459303
20
-72.006907797352653
30
0
10
58.767333962981702
20
-70.823073721424919
30
0
10
56.869655587737562
20
-70.823073721424919
30
0
0
SPLINE
5
652
100
AcDbEntity
8
0
100
AcDbSpline
70
0
71
2
72
6
73
3
74
0
42
0.000000001
43
0.0000000001
44
0.0000000001
40
0
40
0
40
0
40
1
40
1
40
1
10
56.869655587737562
20
-70.823073721424919
30
0
10
55.158191659514905
20
-70.823073721424919
30
0
10
54.027563073699476
20
-71.84285674144445
30
0
0
SPLINE
5
653
100
AcDbEntity
8
0
100
AcDbSpline
70
0
71
2
72
6
73
3
74
0
42
0.000000001
43
0.0000000001
44
0.0000000001
40
0
40
0
40
0
40
1
40
1
40
1
10
54.027563073699476
20
-71.84285674144445
30
0
10
52.896934487884046
20
-72.86263737727819
30
0
10
52.737318017547132
20
-74.48542151500402
30
0
0
ENDSEC
0
SECTION
2
OBJECTS
0
DICTIONARY
5
C
100
AcDbDictionary
3
ACAD_GROUP
350
D
3
ACAD_MLINESTYLE
350
17
0
DICTIONARY
5
D
100
AcDbDictionary
0
DICTIONARY
5
1A
330
C
100
AcDbDictionary
0
DICTIONARY
5
17
100
AcDbDictionary
0
ENDSEC
0
EOF
